<!-- images/sprite.svg -->
<svg xmlns="http://www.w3.org/2000/svg" style="display: none;">
    <defs>
        <!-- Существующие иконки из Font Awesome, которые нужно заменить -->
        <symbol id="icon-user" viewBox="0 0 448 512">
            <path d="M224 256A128 128 0 1 0 224 0a128 128 0 1 0 0 256zm-45.7 48C79.8 304 0 383.8 0 482.3C0 498.7 13.3 512 29.7 512H418.3c16.4 0 29.7-13.3 29.7-29.7C448 383.8 368.2 304 269.7 304H178.3z"/>
        </symbol>
        
        <symbol id="icon-dumbbell" viewBox="0 0 640 512">
            <path d="M112 96c0-17.7 14.3-32 32-32h16c17.7 0 32 14.3 32 32V224H112V96zm272 32V96c0-17.7 14.3-32 32-32h16c17.7 0 32 14.3 32 32V224H384V128zM32 288c-17.7 0-32 14.3-32 32s14.3 32 32 32H64v64H32c-17.7 0-32 14.3-32 32s14.3 32 32 32H64c0 53 43 96 96 96s96-43 96-96H384c0 53 43 96 96 96s96-43 96-96h32c17.7 0 32-14.3 32-32s-14.3-32-32-32H576V352h32c17.7 0 32-14.3 32-32s-14.3-32-32-32H544V160c0-35.3-28.7-64-64-64s-64 28.7-64 64V288H224V160c0-35.3-28.7-64-64-64s-64 28.7-64 64V288H32zM96 416c0 17.7-14.3 32-32 32s-32-14.3-32-32s14.3-32 32-32H96v32zm480-32c17.7 0 32 14.3 32 32s-14.3 32-32 32s-32-14.3-32-32V384h32z"/>
        </symbol>
        
        <symbol id="icon-blog" viewBox="0 0 512 512">
            <path d="M192 32c0 17.7 14.3 32 32 32c123.7 0 224 100.3 224 224c0 17.7 14.3 32 32 32s32-14.3 32-32C512 128.9 383.1 0 224 0c-17.7 0-32 14.3-32 32zm0 96c0 17.7 14.3 32 32 32c70.7 0 128 57.3 128 128c0 17.7 14.3 32 32 32s32-14.3 32-32c0-106-86-192-192-192c-17.7 0-32 14.3-32 32zM96 144c0-26.5-21.5-48-48-48S0 117.5 0 144V368c0 79.5 64.5 144 144 144s144-64.5 144-144s-64.5-144-144-144H128v96h16c26.5 0 48 21.5 48 48s-21.5 48-48 48s-48-21.5-48-48V144z"/>
        </symbol>
        
        <symbol id="icon-bolt" viewBox="0 0 448 512">
            <path d="M349.4 44.6c5.9-13.7 1.5-29.7-10.6-38.5s-28.6-8-39.9 1.8l-256 224c-10 8.8-13.6 22.9-8.9 35.3S50.7 288 64 288H175.5L98.6 467.4c-5.9 13.7-1.5 29.7 10.6 38.5s28.6 8 39.9-1.8l256-224c10-8.8 13.6-22.9 8.9-35.3s-16.6-20.7-30-20.7H272.5L349.4 44.6z"/>
        </symbol>
        
        <symbol id="icon-sign-in" viewBox="0 0 512 512">
            <path d="M502.6 278.6c12.5-12.5 12.5-32.8 0-45.3l-128-128c-12.5-12.5-32.8-12.5-45.3 0s-12.5 32.8 0 45.3L402.7 224 192 224c-17.7 0-32 14.3-32 32s14.3 32 32 32l210.7 0-73.4 73.4c-12.5 12.5-12.5 32.8 0 45.3s32.8 12.5 45.3 0l128-128zM160 96c17.7 0 32-14.3 32-32s-14.3-32-32-32L96 32C43 32 0 75 0 128L0 384c0 53 43 96 96 96l64 0c17.7 0 32-14.3 32-32s-14.3-32-32-32l-64 0c-17.7 0-32-14.3-32-32l0-256c0-17.7 14.3-32 32-32l64 0z"/>
        </symbol>
        
        <!-- Дополнительные иконки для фитнеса -->
        <symbol id="icon-heart" viewBox="0 0 512 512">
            <path d="M47.6 300.4L228.3 469.1c7.5 7 17.4 10.9 27.7 10.9s20.2-3.9 27.7-10.9L464.4 300.4c30.4-28.3 47.6-68 47.6-109.5v-5.8c0-69.9-50.5-129.5-119.4-141C347 36.5 300.6 51.4 268 84L256 96 244 84c-32.6-32.6-79-47.5-124.6-39.9C50.5 55.6 0 115.2 0 185.1v5.8c0 41.5 17.2 81.2 47.6 109.5z"/>
        </symbol>
        
        <symbol id="icon-fire" viewBox="0 0 448 512">
            <path d="M159.3 5.4c7.8-7.3 19.9-7.2 27.7 .1c27.6 25.9 53.5 53.8 77.7 84c11-14.4 23.5-30.1 37-42.9c7.9-7.4 20.1-7.4 28 .1c34.6 33 63.9 76.6 84.5 118c20.3 40.8 33.8 82.5 33.8 111.9C448 404.2 348.2 512 224 512C98.4 512 0 404.1 0 276.5c0-38.4 17.8-85.3 45.4-131.7C73.3 97.7 112.7 48.6 159.3 5.4zM225.7 416c25.3 0 47.7-7 68.8-21c42.1-29.4 53.4-88.2 28.1-134.4c-4.5-9-16-9.6-22.5-2l-25.2 29.3c-6.6 7.6-18.5 7.4-24.7-.5c-16.5-21-46-58.5-62.8-79.8c-6.3-8-18.3-8.1-24.7-.1c-33.8 42.5-50.8 69.3-50.8 99.4C112 375.4 162.6 416 225.7 416z"/>
        </symbol>
        
        <symbol id="icon-calendar" viewBox="0 0 448 512">
            <path d="M128 0c17.7 0 32 14.3 32 32V64H288V32c0-17.7 14.3-32 32-32s32 14.3 32 32V64h48c26.5 0 48 21.5 48 48v48H0V112C0 85.5 21.5 64 48 64H96V32c0-17.7 14.3-32 32-32zM0 192H448V464c0 26.5-21.5 48-48 48H48c-26.5 0-48-21.5-48-48V192zm64 80v32c0 8.8 7.2 16 16 16h32c8.8 0 16-7.2 16-16V272c0-8.8-7.2-16-16-16H80c-8.8 0-16 7.2-16 16zm128 0v32c0 8.8 7.2 16 16 16h32c8.8 0 16-7.2 16-16V272c0-8.8-7.2-16-16-16H208c-8.8 0-16 7.2-16 16zm144-16c-8.8 0-16 7.2-16 16v32c0 8.8 7.2 16 16 16h32c8.8 0 16-7.2 16-16V272c0-8.8-7.2-16-16-16H336zM64 400v32c0 8.8 7.2 16 16 16h32c8.8 0 16-7.2 16-16V400c0-8.8-7.2-16-16-16H80c-8.8 0-16 7.2-16 16zm144-16c-8.8 0-16 7.2-16 16v32c0 8.8 7.2 16 16 16h32c8.8 0 16-7.2 16-16V400c0-8.8-7.2-16-16-16H208zm112 16v32c0 8.8 7.2 16 16 16h32c8.8 0 16-7.2 16-16V400c0-8.8-7.2-16-16-16H336c-8.8 0-16 7.2-16 16z"/>
        </symbol>
        
        <symbol id="icon-check" viewBox="0 0 448 512">
            <path d="M438.6 105.4c12.5 12.5 12.5 32.8 0 45.3l-256 256c-12.5 12.5-32.8 12.5-45.3 0l-128-128c-12.5-12.5-12.5-32.8 0-45.3s32.8-12.5 45.3 0L160 338.7 393.4 105.4c12.5-12.5 32.8-12.5 45.3 0z"/>
        </symbol>
        
        <symbol id="icon-moon" viewBox="0 0 384 512">
            <path d="M223.5 32C100 32 0 132.3 0 256S100 480 223.5 480c60.6 0 115.5-24.2 155.8-63.4c5-4.9 6.3-12.5 3.1-18.7s-10.1-9.7-17-8.5c-9.8 1.7-19.8 2.6-30.1 2.6c-96.9 0-175.5-78.8-175.5-176c0-65.8 36-123.1 89.3-153.3c6.1-3.5 9.2-10.5 7.7-17.3s-7.3-11.9-14.3-12.5c-6.3-.5-12.6-.8-19-.8z"/>
        </symbol>
        
        <symbol id="icon-sun" viewBox="0 0 512 512">
            <path d="M361.5 1.2c5 2.1 8.6 6.6 9.6 11.9L391 121l107.9 19.8c5.3 1 9.8 4.6 11.9 9.6s1.5 10.7-1.6 15.2L446.9 256l62.3 90.3c3.1 4.5 3.7 10.2 1.6 15.2s-6.6 8.6-11.9 9.6L391 391 371.1 498.9c-1 5.3-4.6 9.8-9.6 11.9s-10.7 1.5-15.2-1.6L256 446.9l-90.3 62.3c-4.5 3.1-10.2 3.7-15.2 1.6s-8.6-6.6-9.6-11.9L121 391 13.1 371.1c-5.3-1-9.8-4.6-11.9-9.6s-1.5-10.7 1.6-15.2L65.1 256 2.8 165.7c-3.1-4.5-3.7-10.2-1.6-15.2s6.6-8.6 11.9-9.6L121 121 140.9 13.1c1-5.3 4.6-9.8 9.6-11.9s10.7-1.5 15.2 1.6L256 65.1 346.3 2.8c4.5-3.1 10.2-3.7 15.2-1.6zM160 256a96 96 0 1 1 192 0 96 96 0 1 1 -192 0zm224 0a128 128 0 1 0 -256 0 128 128 0 1 0 256 0z"/>
        </symbol>
        
        <symbol id="icon-heart-pulse" viewBox="0 0 512 512">
            <path d="M228.3 469.1L47.6 300.4c-4.2-3.9-8.2-8.1-11.9-12.4h87c22.6 0 43-13.6 51.7-34.5l10.5-25.2 49.3 109.5c3.8 8.5 12.1 14 21.4 14.1s17.8-5 22-13.3L320 253.7l1.7 3.4c9.5 19 28.9 31 50.1 31H476.3c-3.7 4.3-7.7 8.5-11.9 12.4L283.7 469.1c-7.5 7-17.4 10.9-27.7 10.9s-20.2-3.9-27.7-10.9zM503.7 240h-132c-3 0-5.8-1.7-7.2-4.4l-23.2-46.3c-4.1-8.1-12.4-13.3-21.5-13.3s-17.4 5.1-21.5 13.3l-41.4 82.8L205.9 158.2c-3.9-8.7-12.7-14.3-22.2-14.1s-18.1 5.9-21.8 14.8l-39.9 96c-1.4 3.2-1.2 6.9 .5 9.9s4.3 5 7.5 5h112c5.8 0 11-3.1 13.8-8.1l40.9-81.9 41.1 91.4c3 6.6 9.4 10.6 16.5 10.6c.2 0 .5 0 .7 0c7.3-.2 13.7-4.6 16.5-11.2l42.4-84.9c1.4-2.8 4.2-4.6 7.3-4.6h130.5c8.5 0 16.3-4.5 20.5-11.8s4.2-16.2-.2-23.2l-112-192C434.3 6 426.8 0 418.3 0H93.7C85.2 0 77.7 6 74 14.8l-112 192c-4.4 7.5-4.5 16.7-.2 23.2S21.5 240 30 240h110.7c5.8 0 11-3.1 13.8-8.1l40.9-81.9 41.1 91.4c3 6.6 9.4 10.6 16.5 10.6c.2 0 .5 0 .7 0c7.3-.2 13.7-4.6 16.5-11.2l42.4-84.9c1.4-2.8 4.2-4.6 7.3-4.6h130.5c8.5 0 16.3-4.5 20.5-11.8s4.2-16.2-.2-23.2l-112-192C434.3 6 426.8 0 418.3 0H93.7C85.2 0 77.7 6 74 14.8l-112 192c-4.4 7.5-4.5 16.7-.2 23.2S21.5 240 30 240h110.7c5.8 0 11-3.1 13.8-8.1l40.9-81.9 41.1 91.4c3 6.6 9.4 10.6 16.5 10.6c.2 0 .5 0 .7 0c7.3-.2 13.7-4.6 16.5-11.2l42.4-84.9c1.4-2.8 4.2-4.6 7.3-4.6h132c13.3 0 24 10.7 24 24s-10.7 24-24 24z"/>
        </symbol>
        
        <symbol id="icon-bed" viewBox="0 0 640 512">
            <path d="M32 32c17.7 0 32 14.3 32 32V320H288V160c0-17.7 14.3-32 32-32H544c53 0 96 43 96 96V448c0 17.7-14.3 32-32 32s-32-14.3-32-32V416H352 320 64v32c0 17.7-14.3 32-32 32s-32-14.3-32-32V64C0 46.3 14.3 32 32 32zM176 96a80 80 0 1 1 0 160 80 80 0 1 1 0-160z"/>
        </symbol>
    </defs>
</svg>