<svg xmlns="http://www.w3.org/2000/svg" style="display:none;">
  <defs>
    <symbol id="icon-coins" viewBox="0 0 32 32">
      <path d="M28.5 23h-12.246c0.359-0.619 0.634-1.29 0.816-2h11.43c0.553 0 1 0.447 1 1 0 0.552-0.447 1-1 1zM28.5 20h-11.236c0.041-0.328 0.069-0.661 0.069-1 0-0.34-0.028-0.672-0.069-1h11.236c0.553 0 1 0.447 1 1 0 0.552-0.447 1-1 1zM28.5 17h-11.43c-0.183-0.71-0.457-1.381-0.816-2h12.246c0.553 0 1 0.447 1 1 0 0.552-0.447 1-1 1zM28.5 14h-12.928c-0.65-0.811-1.453-1.493-2.369-2h15.297c0.553 0 1 0.447 1 1 0 0.552-0.447 1-1 1zM28.5 11h-16c-0.553 0-1-0.448-1-1 0-0.553 0.447-1 1-1h16c0.553 0 1 0.447 1 1 0 0.552-0.447 1-1 1zM28.5 8h-16c-0.553 0-1-0.448-1-1 0-0.553 0.447-1 1-1h16c0.553 0 1 0.447 1 1 0 0.552-0.447 1-1 1zM16.5 19c0 3.866-3.135 7-7 7s-7-3.134-7-7 3.134-7 7-7c3.865 0 7 3.134 7 7zM11.978 19.761c-0.101-0.239-0.231-0.447-0.394-0.624s-0.348-0.329-0.556-0.456c-0.208-0.127-0.42-0.24-0.637-0.341-0.217-0.1-0.429-0.194-0.637-0.284-0.208-0.089-0.395-0.185-0.559-0.287s-0.296-0.219-0.394-0.35c-0.098-0.131-0.147-0.286-0.147-0.466 0-0.12 0.022-0.234 0.065-0.342 0.044-0.107 0.11-0.2 0.2-0.277 0.089-0.076 0.201-0.137 0.334-0.18 0.133-0.044 0.29-0.065 0.469-0.065 0.229 0 0.439 0.027 0.631 0.083 0.191 0.057 0.36 0.118 0.506 0.187 0.146 0.068 0.269 0.131 0.369 0.189s0.173 0.086 0.219 0.086 0.082-0.012 0.109-0.037c0.026-0.025 0.048-0.064 0.062-0.119 0.015-0.054 0.024-0.123 0.031-0.206 0.006-0.084 0.009-0.187 0.009-0.308 0-0.108-0.002-0.199-0.006-0.271s-0.012-0.134-0.021-0.182c-0.011-0.048-0.023-0.087-0.037-0.116-0.016-0.029-0.043-0.064-0.085-0.105s-0.127-0.094-0.256-0.155c-0.129-0.062-0.277-0.118-0.443-0.167-0.167-0.050-0.346-0.089-0.537-0.118-0.039-0.006-0.079-0.004-0.118-0.009v-1.034h-0.984v1.034c-0.181 0.024-0.356 0.060-0.526 0.109-0.331 0.096-0.618 0.24-0.862 0.434s-0.438 0.438-0.581 0.73c-0.144 0.294-0.215 0.634-0.215 1.021 0 0.337 0.050 0.627 0.149 0.868s0.23 0.451 0.391 0.628c0.161 0.177 0.342 0.328 0.546 0.455 0.204 0.128 0.415 0.241 0.631 0.341s0.427 0.194 0.631 0.284 0.386 0.186 0.546 0.287c0.161 0.103 0.291 0.219 0.391 0.35 0.1 0.132 0.15 0.289 0.15 0.472 0 0.159-0.029 0.303-0.087 0.433s-0.143 0.237-0.253 0.325c-0.11 0.088-0.244 0.155-0.402 0.203-0.159 0.048-0.337 0.072-0.538 0.072-0.304 0-0.572-0.034-0.803-0.103s-0.43-0.145-0.597-0.229c-0.167-0.083-0.303-0.158-0.409-0.228-0.106-0.068-0.188-0.103-0.247-0.103-0.042 0-0.079 0.012-0.109 0.034-0.032 0.023-0.057 0.062-0.075 0.116-0.019 0.055-0.032 0.125-0.041 0.213s-0.013 0.196-0.013 0.325c0 0.192 0.012 0.339 0.034 0.441 0.023 0.103 0.062 0.181 0.116 0.234s0.142 0.115 0.265 0.186 0.276 0.137 0.459 0.201c0.183 0.063 0.395 0.118 0.634 0.164 0.239 0.045 0.499 0.067 0.778 0.067 0.012 0 0.023-0.002 0.036-0.002v0.963h0.983v-1.092c0.047-0.012 0.097-0.018 0.143-0.031 0.362-0.108 0.679-0.27 0.95-0.484s0.485-0.481 0.644-0.802c0.158-0.321 0.236-0.693 0.236-1.118 0.001-0.323-0.049-0.604-0.148-0.844zM15.572 24h12.928c0.553 0 1 0.447 1 1 0 0.552-0.447 1-1 1h-15.297c0.916-0.507 1.719-1.189 2.369-2z"/>
    </symbol>

    <symbol id="icon-calendar" viewBox="0 0 24 24">
      <path d="M10 21H6.2C5.0799 21 4.51984 21 4.09202 20.782C3.71569 20.5903 3.40973 20.2843 3.21799 19.908C3 19.4802 3 18.9201 3 17.8V8.2C3 7.0799 3 6.51984 3.21799 6.09202C3.40973 5.71569 3.71569 5.40973 4.09202 5.21799C4.51984 5 5.0799 5 6.2 5H17.8C18.9201 5 19.4802 5 19.908 5.21799C20.2843 5.40973 20.5903 5.71569 20.782 6.09202C21 6.51984 21 7.0799 21 8.2V10M7 3V5M17 3V5M3 9H21M13.5 13.0001L7 13M10 17.0001L7 17M14 21L16.025 20.595C16.2015 20.5597 16.2898 20.542 16.3721 20.5097C16.4452 20.4811 16.5147 20.4439 16.579 20.399C16.6516 20.3484 16.7152 20.2848 16.8426 20.1574L21 16C21.5523 15.4477 21.5523 14.5523 21 14C20.4477 13.4477 19.5523 13.4477 19 14L14.8426 18.1574C14.7152 18.2848 14.6516 18.3484 14.601 18.421C14.5561 18.4853 14.5189 18.5548 14.4903 18.6279C14.458 18.7102 14.4403 18.7985 14.405 18.975L14 21Z" stroke="#000000" stroke-width="2" stroke-linecap="round" stroke-linejoin="round"/>
    </symbol>

    <symbol id="icon-sale" viewBox="0 0 24 24">
      <path d="M15.5 14.5C15.5 15.0523 15.0523 15.5 14.5 15.5C13.9477 15.5 13.5 15.0523 13.5 14.5C13.5 13.9477 13.9477 13.5 14.5 13.5C15.0523 13.5 15.5 13.9477 15.5 14.5Z" fill="#1C274C"/>
      <path d="M10.5 9.5C10.5 10.0523 10.0523 10.5 9.5 10.5C8.94772 10.5 8.5 10.0523 8.5 9.5C8.5 8.94772 8.94772 8.5 9.5 8.5C10.0523 8.5 10.5 8.94772 10.5 9.5Z" fill="#1C274C"/>
      <path fill-rule="evenodd" clip-rule="evenodd" d="M15.5303 8.46967C15.8232 8.76256 15.8232 9.23744 15.5303 9.53033L9.53033 15.5303C9.23744 15.8232 8.76256 15.8232 8.46967 15.5303C8.17678 15.2374 8.17678 14.7626 8.46967 14.4697L14.4697 8.46967C14.7626 8.17678 15.2374 8.17678 15.5303 8.46967Z" fill="#1C274C"/>
      <path fill-rule="evenodd" clip-rule="evenodd" d="M11.9426 1.25H12.0574C14.3658 1.24999 16.1748 1.24998 17.5863 1.43975C19.031 1.63399 20.1711 2.03933 21.0659 2.93414C21.9607 3.82895 22.366 4.96897 22.5603 6.41371C22.75 7.82519 22.75 9.63423 22.75 11.9426V12.0574C22.75 14.3658 22.75 16.1748 22.5603 17.5863C22.366 19.031 21.9607 20.1711 21.0659 21.0659C20.1711 21.9607 19.031 22.366 17.5863 22.5603C16.1748 22.75 14.3658 22.75 12.0574 22.75H11.9426C9.63423 22.75 7.82519 22.75 6.41371 22.5603C4.96897 22.366 3.82895 21.9607 2.93414 21.0659C2.03933 20.1711 1.63399 19.031 1.43975 17.5863C1.24998 16.1748 1.24999 14.3658 1.25 12.0574V11.9426C1.24999 9.63423 1.24998 7.82519 1.43975 6.41371C1.63399 4.96897 2.03933 3.82895 2.93414 2.93414C3.82895 2.03933 4.96897 1.63399 6.41371 1.43975C7.82519 1.24998 9.63423 1.24999 11.9426 1.25ZM6.61358 2.92637C5.33517 3.09825 4.56445 3.42514 3.9948 3.9948C3.42514 4.56445 3.09825 5.33517 2.92637 6.61358C2.75159 7.91356 2.75 9.62178 2.75 12C2.75 14.3782 2.75159 16.0864 2.92637 17.3864C3.09825 18.6648 3.42514 19.4355 3.9948 20.0052C4.56445 20.5749 5.33517 20.9018 6.61358 21.0736C7.91356 21.2484 9.62178 21.25 12 21.25C14.3782 21.25 16.0864 21.2484 17.3864 21.0736C18.6648 20.9018 19.4355 20.5749 20.0052 20.0052C20.5749 19.4355 20.9018 18.6648 21.0736 17.3864C21.2484 16.0864 21.25 14.3782 21.25 12C21.25 9.62178 21.2484 7.91356 21.0736 6.61358C20.9018 5.33517 20.5749 4.56445 20.0052 3.9948C19.4355 3.42514 18.6648 3.09825 17.3864 2.92637C16.0864 2.75159 14.3782 2.75 12 2.75C9.62178 2.75 7.91356 2.75159 6.61358 2.92637Z" fill="#1C274C"/>
    </symbol>

    <symbol id="icon-snooze" viewBox="0 0 32 32">
      <path stroke="#535358" stroke-linecap="round" stroke-linejoin="round" stroke-width="2" d="M5.5 14v-4a3 3 0 013-3h15a3 3 0 013 3v4m-21 0A2.5 2.5 0 003 16.5V25h5M5.5 14A2.5 2.5 0 018 16.5V20h16v-3.5a2.5 2.5 0 012.5-2.5m0 0a2.5 2.5 0 012.5 2.5V25h-5m0 0H8m16 0v2M8 25v2"/>
    </symbol>
  </defs>
</svg>