<svg xmlns="http://www.w3.org/2000/svg" aria-hidden="true" style="position:absolute;width:0;height:0;overflow:hidden">
  <!-- Дом / главная -->
  <symbol id="icon-home" viewBox="0 0 24 24">
    <path d="M3 11.25 12 3l9 8.25V21a1 1 0 0 1-1 1h-5.5a.5.5 0 0 1-.5-.5V15h-4v6.5a.5.5 0 0 1-.5.5H4a1 1 0 0 1-1-1v-8.75Z"/>
  </symbol>

  <!-- Гантеля / тренировки -->
  <symbol id="icon-dumbbell" viewBox="0 0 24 24">
    <path d="M4 7h2v10H4V7Zm3 2h2v6H7V9Zm8 0h2v6h-2V9Zm3-2h2v10h-2V7ZM9 11h6v2H9v-2Z"/>
  </symbol>

  <!-- Пользователь / профиль -->
  <symbol id="icon-user" viewBox="0 0 24 24">
    <path d="M12 3a4 4 0 1 1 0 8 4 4 0 0 1 0-8Zm0 10c-4.418 0-8 2.239-8 5v1h16v-1c0-2.761-3.582-5-8-5Z"/>
  </symbol>

  <!-- Солнце / светлая тема -->
  <symbol id="icon-sun" viewBox="0 0 24 24">
    <circle cx="12" cy="12" r="4"/>
    <path d="M12 2v3M12 19v3M4.22 4.22 6.34 6.34M17.66 17.66l2.12 2.12M2 12h3M19 12h3M4.22 19.78 6.34 17.66M17.66 6.34l2.12-2.12" stroke-width="2" stroke="currentColor" fill="none" stroke-linecap="round"/>
  </symbol>

  <!-- Луна / тёмная тема -->
  <symbol id="icon-moon" viewBox="0 0 24 24">
    <path d="M20 14.5A7.5 7.5 0 0 1 11.5 6 6.5 6.5 0 1 0 20 14.5Z"/>
  </symbol>
</svg>


