<svg xmlns="http://www.w3.org/2000/svg" style="display: none;">

    <symbol id="icon-heart-pulse" viewBox="0 0 16 16">
        <path d="M8 2.748l-.717-.737C5.6.281 2.514.878 1.4 3.053c-.523 1.023-.641 2.5.314 4.385.92 1.815 2.834 3.989 6.286 6.357 3.452-2.368 5.365-4.542 6.286-6.357.955-1.886.838-3.362.314-4.385C13.486.878 10.4.28 8.717 2.01L8 2.748z" 
            fill="none" 
            stroke="currentColor" 
            stroke-width="1"/>
        <path d="M3.5 8.5h2l1-2.5 1.5 5 1-2.5h3.5" 
            fill="none" 
            stroke="currentColor" 
            stroke-width="1" 
            stroke-linecap="round" 
            stroke-linejoin="round"/>
    </symbol>

    <symbol id="icon-search" viewBox="0 0 16 16">
        <path d="M11.742 10.344a6.5 6.5 0 1 0-1.397 1.398h-.001c.03.04.062.078.098.115l3.85 3.85a1 1 0 0 0 1.415-1.414l-3.85-3.85a1.007 1.007 0 0 0-.115-.1zM12 6.5a5.5 5.5 0 1 1-11 0 5.5 5.5 0 0 1 11 0z"/>
    </symbol>

    <symbol id="icon-person" viewBox="0 0 16 16">
        <path d="M8 8a3 3 0 1 0 0-6 3 3 0 0 0 0 6m2-3a2 2 0 1 1-4 0 2 2 0 0 1 4 0m4 8c0 1-1 1-1 1H3s-1 0-1-1 1-4 6-4 6 3 6 4m-1-.004c-.001-.246-.154-.986-.832-1.664C11.516 10.68 10.289 10 8 10s-3.516.68-4.168 1.332c-.678.678-.83 1.418-.832 1.664z"/>
    </symbol>

    <symbol id="icon-box-arrow-in-right" viewBox="0 0 16 16">
        <path fill-rule="evenodd" d="M6 3.5a.5.5 0 0 1 .5-.5h8a.5.5 0 0 1 .5.5v9a.5.5 0 0 1-.5.5h-8a.5.5 0 0 1-.5-.5v-2a.5.5 0 0 0-1 0v2A1.5 1.5 0 0 0 6.5 14h8a1.5 1.5 0 0 0 1.5-1.5v-9A1.5 1.5 0 0 0 14.5 2h-8A1.5 1.5 0 0 0 5 3.5v2a.5.5 0 0 0 1 0v-2z"/>
        <path fill-rule="evenodd" d="M11.854 8.354a.5.5 0 0 0 0-.708l-3-3a.5.5 0 1 0-.708.708L10.293 7.5H1.5a.5.5 0 0 0 0 1h8.793l-2.147 2.146a.5.5 0 0 0 .708.708l3-3z"/>
    </symbol>

    <symbol id="icon-moon-fill" viewBox="0 0 16 16">
        <path d="M6 .278a.77.77 0 0 1 .08.858 7.2 7.2 0 0 0-.878 3.46c0 4.021 3.278 7.277 7.318 7.277q.792-.001 1.533-.16a.79.79 0 0 1 .81.316.73.73 0 0 1-.031.893A8.35 8.35 0 0 1 8.344 16C3.734 16 0 12.286 0 7.71 0 4.266 2.114 1.312 5.124.06A.75.75 0 0 1 6 .278"/>
    </symbol>

    <symbol id="icon-sun-fill" viewBox="0 0 16 16">
        <path d="M8 12a4 4 0 1 0 0-8 4 4 0 0 0 0 8M8 0a.5.5 0 0 1 .5.5v2a.5.5 0 0 1-1 0v-2A.5.5 0 0 1 8 0m0 13a.5.5 0 0 1 .5.5v2a.5.5 0 0 1-1 0v-2A.5.5 0 0 1 8 13m8-5a.5.5 0 0 1-.5.5h-2a.5.5 0 0 1 0-1h2a.5.5 0 0 1 .5.5M3 8a.5.5 0 0 1-.5.5h-2a.5.5 0 0 1 0-1h2A.5.5 0 0 1 3 8m10.657-5.657a.5.5 0 0 1 0 .707l-1.414 1.414a.5.5 0 1 1-.707-.707l1.414-1.414a.5.5 0 0 1 .707 0m-9.193 9.193a.5.5 0 0 1 0 .707L3.05 13.657a.5.5 0 0 1-.707-.707l1.414-1.414a.5.5 0 0 1 .707 0m9.193 2.121a.5.5 0 0 1-.707 0l-1.414-1.414a.5.5 0 0 1 .707-.707l1.414 1.414a.5.5 0 0 1 0 .707M4.464 4.465a.5.5 0 0 1-.707 0L2.343 3.05a.5.5 0 1 1 .707-.707l1.414 1.414a.5.5 0 0 1 0 .708z"/>
    </symbol>

    <symbol id="icon-graph-up" viewBox="0 0 16 16">
        <line x1="1.5" y1="1" x2="1.5" y2="14" stroke="currentColor" stroke-width="1.25"/>
        <line x1="2" y1="13.5" x2="15" y2="13.5" stroke="currentColor" stroke-width="1.25"/>

        <line x1="3.58929" y1="11.5195" x2="7.70204" y2="5.59626"
            stroke="currentColor"
            stroke-width="1.25"/>

        <line x1="7.11618" y1="5.58397" x2="10.1162" y2="7.58397"
            stroke="currentColor"
            stroke-width="1.25"/>

        <line x1="9.45472" y1="7.67991" x2="14.4547" y2="1.67991"
            stroke="currentColor"
            stroke-width="1.25"/>
    </symbol>

    <symbol id="icon-calendar-check" viewBox="0 0 16 16">
        <path d="M10.854 7.5a.5.5 0 0 0-.708 0L7 10.293 5.854 9.146a.5.5 0 1 0-.708.708l1.5 1.5a.5.5 0 0 0 .708 0l3.5-3.5a.5.5 0 0 0 0-.708z"/>
        <path d="M3.5 0a.5.5 0 0 1 .5.5V1h8V.5a.5.5 0 0 1 1 0V1h1a2 2 0 0 1 2 2v11a2 2 0 0 1-2 2H2a2 2 0 0 1-2-2V3a2 2 0 0 1 2-2h1V.5a.5.5 0 0 1 .5-.5zM1 4v10a1 1 0 0 0 1 1h12a1 1 0 0 0 1-1V4H1z"/>
    </symbol>

    <symbol id="icon-check-circle-fill" viewBox="0 0 16 16">
        <path d="M16 8A8 8 0 1 1 0 8a8 8 0 0 1 16 0zm-3.97-3.03a.75.75 0 0 0-1.08.022L7.477 9.417 5.384 7.323a.75.75 0 0 0-1.06 1.06L6.97 11.03a.75.75 0 0 0 1.079-.02l3.992-4.99a.75.75 0 0 0-.01-1.08z"/>
    </symbol>

    <symbol id="icon-x-circle-fill" viewBox="0 0 16 16">
        <path d="M16 8A8 8 0 1 1 0 8a8 8 0 0 1 16 0zM5.354 4.646a.5.5 0 1 0-.708.708L7.293 8l-2.647 2.646a.5.5 0 0 0 .708.708L8 8.707l2.646 2.647a.5.5 0 0 0 .708-.708L8.707 8l2.647-2.646a.5.5 0 0 0-.708-.708L8 7.293 5.354 4.646z"/>
    </symbol>

    <symbol id="icon-hamburger" viewBox="0 0 30 30">
        <path stroke="currentColor" stroke-linecap="round" stroke-miterlimit="10" stroke-width="2" 
            d="M4 7h22M4 15h22M4 23h22"/>
    </symbol>
</svg>