<svg xmlns="http://www.w3.org/2000/svg" style="display:none">
  <symbol id="icon-moon" viewBox="0 0 24 24">
    <path d="M21 13.2A8.5 8.5 0 0 1 10.8 3a7 7 0 1 0 10.2 10.2Z"></path>
  </symbol>

  <symbol id="icon-sun" viewBox="0 0 24 24">
    <path d="M12 18a6 6 0 1 1 0-12 6 6 0 0 1 0 12Z"></path>
    <path d="M12 2v2M12 20v2M4 12H2M22 12h-2M5.6 5.6 4.2 4.2M19.8 19.8l-1.4-1.4M18.4 5.6l1.4-1.4M4.2 19.8l1.4-1.4" fill="none" stroke="currentColor" stroke-width="2" stroke-linecap="round"></path>
  </symbol>

  <symbol id="icon-search" viewBox="0 0 24 24">
    <path d="M10.5 18a7.5 7.5 0 1 1 0-15 7.5 7.5 0 0 1 0 15Z"></path>
    <path d="M16.5 16.5 21 21" fill="none" stroke="currentColor" stroke-width="2" stroke-linecap="round"></path>
  </symbol>

  <symbol id="icon-user" viewBox="0 0 24 24">
    <path d="M12 12a4.5 4.5 0 1 0-4.5-4.5A4.5 4.5 0 0 0 12 12Z"></path>
    <path d="M4 21a8 8 0 0 1 16 0" fill="none" stroke="currentColor" stroke-width="2" stroke-linecap="round"></path>
  </symbol>

  <symbol id="icon-home" viewBox="0 0 24 24">
    <path d="M3 10.5 12 3l9 7.5V21a1 1 0 0 1-1 1h-5v-7H9v7H4a1 1 0 0 1-1-1v-10.5Z"></path>
  </symbol>

  <symbol id="icon-logout" viewBox="0 0 24 24">
    <path d="M10 17H6a2 2 0 0 1-2-2V9a2 2 0 0 1 2-2h4" fill="none" stroke="currentColor" stroke-width="2" stroke-linecap="round"></path>
    <path d="M16 17l5-5-5-5" fill="none" stroke="currentColor" stroke-width="2" stroke-linecap="round" stroke-linejoin="round"></path>
    <path d="M21 12H10" fill="none" stroke="currentColor" stroke-width="2" stroke-linecap="round"></path>
  </symbol>

  <symbol id="icon-plus" viewBox="0 0 24 24">
    <path d="M12 5v14M5 12h14" fill="none" stroke="currentColor" stroke-width="2" stroke-linecap="round"></path>
  </symbol>

  <symbol id="icon-message" viewBox="0 0 24 24">
    <path d="M4 5h16a2 2 0 0 1 2 2v9a2 2 0 0 1-2 2H9l-5 4v-4H4a2 2 0 0 1-2-2V7a2 2 0 0 1 2-2Z"></path>
  </symbol>

  <symbol id="icon-phone" viewBox="0 0 24 24">
    <path d="M6.5 3.5 9 5.5c.7.6.9 1.6.4 2.4l-1 1.8a14.5 14.5 0 0 0 6 6l1.8-1c.8-.5 1.8-.3 2.4.4l2 2.5c.6.7.5 1.8-.2 2.4-1 .9-2.2 1.4-3.5 1.4C10.1 22 2 13.9 2 4.8c0-1.3.5-2.5 1.4-3.5.6-.7 1.7-.8 2.4-.2Z"></path>
  </symbol>
</svg>
