<svg xmlns="http://www.w3.org/2000/svg" style="display:none;">
<symbol id="icon-sun" viewBox="0 0 24 24">
    <circle cx="12" cy="12" r="4" fill="#f5c518"/>

    <line x1="12" y1="1" x2="12" y2="4" stroke="#f5c518" stroke-width="2" stroke-linecap="round"/>
    <line x1="12" y1="20" x2="12" y2="23" stroke="#f5c518" stroke-width="2" stroke-linecap="round"/>

    <line x1="4.22" y1="4.22" x2="6.34" y2="6.34" stroke="#f5c518" stroke-width="2" stroke-linecap="round"/>
    <line x1="17.66" y1="17.66" x2="19.78" y2="19.78" stroke="#f5c518" stroke-width="2" stroke-linecap="round"/>

    <line x1="1" y1="12" x2="4" y2="12" stroke="#f5c518" stroke-width="2" stroke-linecap="round"/>
    <line x1="20" y1="12" x2="23" y2="12" stroke="#f5c518" stroke-width="2" stroke-linecap="round"/>

    <line x1="4.22" y1="19.78" x2="6.34" y2="17.66" stroke="#f5c518" stroke-width="2" stroke-linecap="round"/>
    <line x1="17.66" y1="6.34" x2="19.78" y2="4.22" stroke="#f5c518" stroke-width="2" stroke-linecap="round"/>
</symbol>

<symbol id="icon-moon" viewBox="0 0 24 24">
    <path d="M21 12.79A9 9 0 1111.21 3 7 7 0 0021 12.79z" fill="currentColor"/>
</symbol>

<symbol id="icon-heart" fill="currentColor" class="s-icon s-icon-sport-cross-country" viewBox="0 0 16 16">
    <path fill-rule="evenodd" d="M13.413 3.467c0 .8-.666 1.466-1.466 1.466a1.48 1.48 0 0 1-1.467-1.466c0-.8.667-1.467 1.467-1.467s1.466.667 1.466 1.467Zm-.733 2.466c.4-.266 1-.066 1.2.334.267.466.067 1-.333 1.266l-2.4 1.4c-.134.067-.267.134-.4.134-.134 0-.267 0-.334-.067-.266-.133-.466-.333-.533-.6l-.133-.467-.867.934 1.933.866c.267.134.467.4.534.734 0 .333-.134.666-.334.8l-3.066 2.266a.757.757 0 0 1-.534.2c-.266 0-.533-.133-.733-.4-.267-.4-.2-1 .2-1.266l1.8-1.334-.867-.4L3.547 13.8c-.267.133-.467.2-.667.2-.267 0-.533-.133-.667-.333-.333-.4-.266-1 .134-1.267l3.4-2.733A1.321 1.321 0 0 1 5.947 8l2.066-2.2-.6-.267-2 1.2c-.133.067-.266.134-.466.134-.267 0-.6-.2-.734-.467-.266-.467-.133-1 .334-1.267l2.4-1.4c.266-.133.533-.133.8-.066l2.4 1.066c.066 0 .066.067.133.067h.067c.066 0 .066.067.133.067.2.133.4.333.467.6L11.28 6.8l1.4-.867Z"/>
</symbol>
</svg>
