<svg xmlns="http://www.w3.org/2000/svg" style="display: none;">
    <!-- сердце -->
    <symbol id="icon-heart" viewBox="0 0 24 24">
        <path d="M12 21.35l-1.45-1.32C5.4 15.36 2 12.28 2 8.5 2 5.42 4.42 3 7.5 3c1.74 0 3.41.81 4.5 2.09C13.09 3.81 14.76 3 16.5 3 19.58 3 22 5.42 22 8.5c0 3.78-3.4 6.86-8.55 11.54L12 21.35z" fill="currentColor"/>
    </symbol>
    
    <!-- сообщение -->
    <symbol id="icon-message" viewBox="0 0 24 24">
        <path d="M20 2H4c-1.1 0-2 .9-2 2v12c0 1.1.9 2 2 2h14l4 4V4c0-1.1-.9-2-2-2zm0 15.17L18.83 16H4V4h16v13.17z" fill="currentColor"/>
        <path d="M6 12h12v2H6zM6 9h12v2H6zM6 6h12v2H6z" fill="currentColor"/>
    </symbol>
    
    <!-- луна -->
    <symbol id="icon-moon" viewBox="0 0 24 24">
        <path d="M12 3c-4.97 0-9 4.03-9 9s4.03 9 9 9 9-4.03 9-9c0-.46-.04-.92-.1-1.36-.98 1.37-2.58 2.26-4.4 2.26-3.03 0-5.5-2.47-5.5-5.5 0-1.82.89-3.42 2.26-4.4-.44-.06-.9-.1-1.36-.1z" fill="currentColor"/>
    </symbol>
    
    <!-- солнце -->
    <symbol id="icon-sun" viewBox="0 0 24 24">
        <path d="M6.76 4.84l-1.8-1.79-1.41 1.41 1.79 1.79 1.42-1.41zM4 10.5H1v2h3v-2zm9-9.95h-2V3.5h2V.55zm7.45 3.91l-1.41-1.41-1.79 1.79 1.41 1.41 1.79-1.79zm-3.21 13.7l1.79 1.8 1.41-1.41-1.8-1.79-1.4 1.4zM20 10.5v2h3v-2h-3zm-8-5c-3.31 0-6 2.69-6 6s2.69 6 6 6 6-2.69 6-6-2.69-6-6-6zm-1 16.95h2V19.5h-2v2.95zm-7.45-3.91l1.41 1.41 1.79-1.8-1.41-1.41-1.79 1.8z" fill="currentColor"/>
    </symbol>
</svg>