<svg xmlns="http://www.w3.org/2000/svg" style="display: none;">
  <symbol id="icon-sun" viewBox="0 0 16 16">
    <path d="M8 12a4 4 0 1 0 0-8 4 4 0 0 0 0 8zM8 0a.5.5 0 0 1 .5.5v2a.5.5 0 0 1-1 0v-2A.5.5 0 0 1 8 0zm0 13a.5.5 0 0 1 .5.5v2a.5.5 0 0 1-1 0v-2A.5.5 0 0 1 8 13zm8-5a.5.5 0 0 1-.5.5h-2a.5.5 0 0 1 0-1h2a.5.5 0 0 1 .5.5zM3 8a.5.5 0 0 1-.5.5h-2a.5.5 0 0 1 0-1h2A.5.5 0 0 1 3 8zm10.657-5.657a.5.5 0 0 1 0 .707l-1.414 1.415a.5.5 0 1 1-.707-.708l1.414-1.414a.5.5 0 0 1 .707 0zm-9.193 9.193a.5.5 0 0 1 0 .707L3.05 13.657a.5.5 0 0 1-.707-.707l1.414-1.414a.5.5 0 0 1 .707 0zm9.193 2.121a.5.5 0 0 1-.707 0l-1.414-1.414a.5.5 0 0 1 .707-.707l1.414 1.414a.5.5 0 0 1 0 .707zM4.464 4.465a.5.5 0 0 1-.707 0L2.343 3.05a.5.5 0 1 1 .707-.707l1.414 1.414a.5.5 0 0 1 0 .708z"/>
  </symbol>
  <symbol id="icon-moon" viewBox="0 0 16 16">
    <path d="M6 .278a.768.768 0 0 1 .08.858 7.208 7.208 0 0 0-.878 3.46c0 4.021 3.278 7.277 7.318 7.277.527 0 1.04-.055 1.533-.16a.787.787 0 0 1 .81.316.733.733 0 0 1-.031.893A8.349 8.349 0 0 1 8.344 16C3.734 16 0 12.286 0 7.71 0 4.266 2.114 1.312 5.124.06A.752.752 0 0 1 6 .278z"/>
  </symbol>
  <symbol id="icon-activity" viewBox="0 0 16 16">
    <path fill-rule="evenodd" d="M6 2a.5.5 0 0 1 .47.33L10 12.036l1.53-4.208A.5.5 0 0 1 12 7.5h3.5a.5.5 0 0 1 0 1h-3.15l-1.88 5.17a.5.5 0 0 1-.94 0L6 3.964 4.47 8.171A.5.5 0 0 1 4 8.5H.5a.5.5 0 0 1 0-1h3.15l1.88-5.17A.5.5 0 0 1 6 2"/>
  </symbol>
  <symbol id="icon-graph-up" viewBox="0 0 16 16">
    <path fill-rule="evenodd" d="M0 0h1v15h15v1H0zm14.817 3.113a.5.5 0 0 1 .07.704l-4.5 5.5a.5.5 0 0 1-.74.037L7.06 6.767l-3.656 5.027a.5.5 0 0 1-.808-.588l4-5.5a.5.5 0 0 1 .758-.06l2.609 2.61 4.15-5.073a.5.5 0 0 1 .704-.07"/>
  </symbol>
  <symbol id="icon-camera-video" viewBox="0 0 16 16">
    <path fill-rule="evenodd" d="M0 5a2 2 0 0 1 2-2h7.5a2 2 0 0 1 1.983 1.738l3.11-1.382A1 1 0 0 1 16 4.269v7.462a1 1 0 0 1-1.406.913l-3.111-1.382A2 2 0 0 1 9.5 13H2a2 2 0 0 1-2-2zm11.5 5.175 3.5 1.556V4.269l-3.5 1.556zM2 4a1 1 0 0 0-1 1v6a1 1 0 0 0 1 1h7.5a1 1 0 0 0 1-1V5a1 1 0 0 0-1-1z"/>
  </symbol>
  <symbol id="icon-heart-pulse" viewBox="0 0 16 16">
    <path d="m8 2.748-.717-.737C5.6.281 2.514.878 1.4 3.053.918 3.995.78 5.323 1.508 7H.43c-2.128-5.697 4.165-8.83 7.394-5.857q.09.083.176.171a3 3 0 0 1 .176-.17c3.23-2.974 9.522.159 7.394 5.856h-1.078c.728-1.677.59-3.005.108-3.947C13.486.878 10.4.28 8.717 2.01zM2.212 10h1.315C4.593 11.183 6.05 12.458 8 13.795c1.949-1.337 3.407-2.612 4.473-3.795h1.315c-1.265 1.566-3.14 3.25-5.788 5-2.648-1.75-4.523-3.434-5.788-5"/>
    <path d="M10.464 3.314a.5.5 0 0 0-.945.049L7.921 8.956 6.464 5.314a.5.5 0 0 0-.88-.091L3.732 8H.5a.5.5 0 0 0 0 1H4a.5.5 0 0 0 .416-.223l1.473-2.209 1.647 4.118a.5.5 0 0 0 .945-.049l1.598-5.593 1.457 3.642A.5.5 0 0 0 12 9h3.5a.5.5 0 0 0 0-1h-3.162z"/>
  </symbol>
<symbol id="logo-grizzly-gym" viewBox="0 0 2400.000000 1528.000000"><g transform="translate(0.000000,1528.000000) scale(0.100000,-0.100000)"
fill="#FAE016" stroke="none">
<path d="M11377 15266 c-3 -8 -21 -17 -39 -21 -74 -16 -160 -66 -224 -130 -73
-72 -108 -139 -127 -240 -16 -92 -26 -97 -129 -62 -175 58 -260 69 -508 65
-170 -4 -243 -9 -300 -22 -76 -19 -243 -69 -291 -88 -23 -10 -35 -6 -85 25
-132 80 -351 102 -559 58 -169 -37 -165 -37 -210 -1 -184 147 -370 225 -481
201 -39 -9 -60 -22 -96 -59 -75 -77 -92 -119 -95 -241 -2 -58 -8 -110 -13
-115 -6 -6 -36 -10 -66 -9 -63 3 -72 -14 -27 -50 77 -61 181 -177 198 -220 17
-45 17 -46 -9 -102 -41 -89 -283 -425 -307 -425 -5 0 -9 -9 -9 -21 0 -11 -9
-28 -20 -37 -37 -32 -120 -186 -151 -280 -22 -70 -29 -110 -27 -151 3 -56 3
-56 36 -57 18 -1 38 -6 43 -11 6 -6 21 -46 34 -89 32 -110 54 -166 71 -185 8
-8 14 -29 14 -46 0 -18 6 -33 15 -37 8 -3 20 -17 25 -30 5 -14 61 -114 124
-223 182 -316 281 -528 274 -588 -3 -26 -1 -34 9 -31 8 3 16 -8 22 -32 35
-133 42 -171 48 -241 4 -61 3 -79 -8 -83 -15 -6 -112 5 -147 16 -18 6 -19 3
-11 -45 24 -153 102 -299 232 -436 98 -103 99 -104 80 -125 -10 -12 -42 -31
-70 -44 -29 -13 -53 -28 -53 -33 0 -25 232 -149 370 -199 182 -65 195 -67 450
-67 192 0 243 3 280 17 25 9 68 19 95 22 28 3 65 12 82 21 17 8 50 17 74 20
24 2 57 10 74 18 39 19 143 46 225 58 36 6 73 14 82 19 30 17 149 31 197 24
58 -8 91 -25 143 -72 47 -42 56 -63 59 -131 2 -49 3 -50 28 -44 40 10 560 278
634 327 34 23 35 13 8 -73 -10 -33 -17 -62 -14 -65 9 -8 156 93 206 141 63 61
158 190 271 368 120 188 115 184 109 83 -4 -64 -2 -87 8 -93 9 -6 47 27 127
111 131 137 161 180 198 278 15 39 31 76 35 82 5 6 6 13 3 17 -8 7 24 117 34
117 21 -1 31 -20 34 -65 l3 -50 270 -6 270 -5 55 -30 55 -29 -190 -6 c-182 -6
-297 -22 -359 -50 -14 -7 -26 -15 -26 -19 0 -9 52 -20 99 -20 20 -1 54 -9 76
-20 22 -11 48 -19 58 -20 9 0 54 -13 100 -29 125 -43 177 -81 111 -81 -12 0
-52 -14 -88 -31 l-66 -31 0 -73 c0 -42 6 -88 15 -108 8 -20 15 -49 15 -64 -1
-27 -1 -27 -16 -8 -8 11 -41 61 -73 110 -32 50 -72 104 -90 121 -36 35 -108
70 -164 79 -21 3 -53 19 -72 36 l-35 31 -37 -30 c-46 -37 -169 -164 -206 -213
-49 -65 -46 -66 136 -71 119 -4 172 -10 199 -22 21 -9 48 -16 61 -16 61 0 217
-111 217 -155 0 -7 11 -29 25 -49 25 -37 25 -38 6 -62 -10 -13 -22 -49 -26
-81 -3 -32 -9 -69 -12 -83 -12 -50 27 1 72 94 61 125 124 210 262 349 222 223
405 317 754 386 53 11 99 27 120 42 l34 24 -80 3 c-44 2 -107 -2 -140 -7 -33
-6 -85 -13 -115 -16 -69 -7 -174 -31 -267 -61 -40 -12 -75 -19 -78 -15 -6 11
109 103 170 135 73 39 220 81 395 111 137 24 172 27 310 22 165 -5 284 -29
460 -92 109 -39 333 -155 444 -230 53 -35 109 -70 124 -77 41 -20 24 -33 -35
-30 -69 5 -69 -7 0 -84 30 -32 91 -114 136 -181 161 -241 271 -491 286 -651 6
-64 4 -73 -12 -78 -57 -19 -327 -131 -378 -156 -168 -84 -192 -104 -480 -392
-154 -153 -334 -323 -400 -376 -66 -53 -143 -121 -170 -151 -64 -68 -117 -160
-120 -208 -1 -20 -9 -59 -18 -86 -9 -28 -19 -77 -22 -109 -18 -169 -136 -445
-274 -641 -69 -98 -390 -429 -486 -500 -38 -29 -90 -69 -114 -89 -24 -20 -46
-34 -49 -31 -3 2 17 29 44 58 53 58 164 227 264 401 155 271 302 654 344 896
7 45 -6 69 -28 51 -9 -8 -16 -19 -16 -26 0 -26 -294 -489 -401 -630 -20 -27
-52 -71 -71 -96 -160 -224 -490 -565 -641 -662 -146 -94 -239 -137 -437 -199
-68 -21 -93 -23 -280 -23 -188 0 -211 2 -274 23 -159 53 -268 125 -403 265
-86 89 -93 99 -93 137 0 46 2 47 218 171 120 67 160 109 147 149 -8 26 -31 20
-94 -22 -65 -44 -133 -76 -177 -84 -21 -3 -52 -13 -68 -22 -17 -8 -66 -17
-111 -20 -81 -5 -82 -4 -119 28 -20 18 -46 50 -57 71 -18 37 -18 40 -2 75 14
28 33 44 87 71 90 45 124 68 281 183 152 112 343 306 322 326 -7 7 -140 -64
-209 -112 -70 -48 -273 -148 -353 -174 -101 -33 -140 -32 -198 8 -27 19 -52
45 -58 59 -5 13 -9 93 -9 178 0 135 3 166 29 266 48 190 108 324 217 486 106
156 176 220 464 422 58 41 122 87 142 103 20 15 67 43 104 62 60 31 120 52
369 130 44 13 105 36 135 49 89 40 126 98 40 63 -50 -20 -79 -20 -86 -2 -3 8
-25 21 -49 30 -31 12 -74 49 -157 134 -62 64 -127 138 -143 164 -48 77 -63 58
-21 -28 14 -27 32 -67 41 -89 21 -49 37 -176 28 -227 l-6 -38 -51 0 c-87 0
-216 75 -216 126 0 19 -22 64 -32 64 -4 0 -8 -46 -8 -103 0 -104 -2 -115 -42
-227 -17 -49 -31 -70 -57 -87 -45 -30 -52 -29 -80 12 -23 34 -23 41 -18 148 3
61 13 130 21 152 12 31 15 87 16 243 0 111 -2 202 -5 202 -3 0 -71 -32 -151
-71 -80 -39 -203 -95 -272 -123 -120 -49 -127 -54 -133 -85 -9 -42 -33 -68
-145 -151 -130 -98 -131 -99 -323 -475 -39 -77 -84 -156 -100 -175 l-29 -34
-12 59 c-8 38 -10 93 -6 154 4 53 9 134 12 181 5 60 12 93 25 112 11 14 19 37
19 50 0 41 85 172 149 230 77 70 211 145 270 153 70 10 71 11 71 58 0 55 -13
71 -78 96 -87 34 -154 29 -407 -29 -27 -6 -72 -16 -100 -22 -27 -6 -74 -19
-103 -29 -30 -10 -67 -19 -83 -19 -15 0 -48 -7 -71 -14 -57 -20 -307 -56 -383
-56 -86 0 -324 36 -419 64 -108 31 -246 89 -326 136 -72 43 -166 129 -153 140
4 4 34 18 67 31 32 13 60 28 62 34 3 6 -16 33 -41 60 -76 83 -121 146 -170
238 -42 78 -50 87 -75 87 -16 0 -59 8 -97 17 -100 25 -364 24 -453 -1 -315
-91 -542 -324 -634 -653 -24 -85 -26 -107 -26 -290 0 -137 5 -217 15 -259 8
-33 17 -114 21 -180 4 -65 12 -137 19 -159 20 -62 27 -159 19 -259 -6 -73 -9
-87 -18 -72 -6 11 -28 38 -48 61 -21 23 -45 59 -53 79 -9 20 -20 34 -25 31 -6
-4 -10 -64 -10 -138 l0 -132 -47 -13 c-27 -7 -55 -13 -62 -15 -9 -1 -29 24
-50 63 -33 62 -47 135 -52 270 -4 100 15 322 31 370 10 30 21 81 24 114 4 32
11 66 16 76 5 9 14 47 20 82 5 36 17 78 25 94 27 53 3 44 -60 -23 -34 -37 -66
-65 -70 -61 -4 4 -3 13 3 20 5 7 22 49 37 93 39 115 141 367 174 434 16 31 48
80 70 108 73 92 305 252 498 343 52 25 73 48 32 35 -15 -5 -20 -3 -17 6 2 8
35 25 74 38 61 22 90 25 259 29 199 4 332 -8 350 -31 5 -7 18 -16 28 -20 16
-6 17 -2 12 26 -9 50 -11 174 -2 183 4 4 28 -2 52 -14 25 -12 45 -18 45 -13 0
4 -9 33 -19 64 -11 30 -17 58 -14 61 4 3 1 6 -5 6 -6 0 -14 10 -18 23 -4 12
-15 33 -26 46 l-18 24 2 -24 c3 -20 -5 -26 -57 -44 -134 -47 -554 -192 -950
-328 -231 -80 -508 -178 -615 -220 -252 -97 -509 -198 -635 -249 -158 -65
-294 -116 -325 -123 -16 -3 -34 -13 -41 -21 -14 -17 -29 -18 -29 -3 0 18 407
201 865 388 83 34 170 70 195 81 628 272 1080 434 1460 525 103 24 148 50 118
66 -16 9 -101 -4 -162 -25 -26 -9 -53 -16 -60 -16 -7 0 -39 -9 -72 -19 -32
-10 -120 -38 -194 -62 -193 -61 -383 -130 -741 -272 -395 -156 -393 -155 -418
-133 -10 9 -32 43 -49 75 -92 175 -292 444 -475 637 -89 95 -398 360 -503 432
-232 161 -634 348 -914 426 -327 91 -843 131 -1155 90 -139 -18 -356 -58 -435
-81 -131 -37 -346 -113 -435 -153 -359 -162 -654 -349 -942 -597 -126 -109
-444 -430 -542 -548 -515 -619 -820 -1289 -903 -1984 -17 -139 -17 -616 0
-741 25 -185 66 -371 113 -510 31 -92 60 -173 74 -205 75 -174 99 -226 156
-330 36 -66 93 -162 127 -214 34 -52 62 -100 62 -106 0 -7 -53 -43 -117 -80
-153 -87 -258 -162 -341 -241 -37 -35 -70 -64 -74 -64 -5 0 -8 -6 -8 -13 0 -8
-9 -22 -21 -33 -25 -23 -115 -161 -146 -224 -29 -59 -67 -161 -86 -230 -56
-204 -57 -208 -57 -339 0 -94 4 -136 15 -157 8 -16 17 -49 20 -74 19 -136 118
-399 213 -565 95 -165 182 -280 386 -511 406 -461 522 -652 587 -971 47 -232
4 -543 -116 -825 -106 -248 -138 -360 -155 -536 -44 -443 167 -823 627 -1131
151 -100 386 -218 628 -313 74 -29 392 -134 476 -158 77 -21 445 -109 559
-134 203 -45 569 -107 910 -156 198 -28 651 -78 910 -100 69 -6 175 -15 235
-20 207 -18 485 -36 940 -60 488 -26 1980 -20 2435 10 80 6 239 14 355 20 115
5 304 17 420 25 364 26 746 55 865 66 63 5 192 16 285 24 94 8 233 22 310 30
77 8 190 19 250 25 61 6 216 22 345 36 129 13 302 31 385 39 82 9 159 18 170
21 11 2 83 11 160 19 77 8 176 19 220 25 44 5 157 19 250 31 367 45 496 61
635 80 80 10 165 21 190 24 25 3 90 12 145 20 254 36 391 56 530 75 293 41
438 62 815 120 69 10 188 29 265 40 172 26 352 54 510 80 66 11 192 31 280 45
88 14 196 32 240 40 44 8 136 23 205 35 174 29 336 57 465 80 61 11 162 29
225 40 392 69 479 86 500 94 9 4 24 0 34 -7 17 -13 17 -20 -18 -178 -20 -90
-43 -191 -51 -224 -8 -33 -24 -103 -35 -155 -12 -52 -27 -117 -33 -143 -10
-44 -9 -53 13 -95 37 -72 219 -247 335 -323 55 -36 116 -75 135 -87 51 -30
261 -133 290 -143 14 -4 59 -22 100 -39 93 -39 130 -52 250 -91 52 -17 113
-37 135 -45 53 -18 112 -34 330 -88 457 -113 965 -193 1385 -217 115 -7 184
-15 202 -25 38 -20 845 -21 886 0 18 9 103 17 257 25 608 29 1028 112 1350
266 72 34 158 83 192 109 174 132 263 302 263 504 0 83 -26 276 -56 407 -8 39
-24 111 -35 160 -50 224 -101 396 -258 875 -107 322 -131 414 -176 652 -45
246 -63 738 -37 1023 23 240 78 530 139 725 63 206 118 328 245 548 78 135
140 261 168 342 19 54 23 87 24 190 1 120 0 127 -29 184 -69 135 -215 247
-445 338 -147 58 -340 123 -535 178 -44 12 -98 28 -120 35 -22 8 -92 28 -155
45 -63 18 -134 38 -158 46 -23 8 -49 14 -58 14 -8 0 -47 9 -87 19 -233 63
-821 159 -1132 186 -128 11 -230 28 -244 41 -11 10 -2 26 54 96 37 45 85 101
105 123 50 53 246 329 341 480 133 209 339 584 339 615 0 16 -46 12 -69 -7
-11 -10 -60 -88 -107 -173 -146 -265 -277 -473 -441 -705 -162 -230 -457 -541
-620 -655 -172 -120 -370 -204 -513 -217 -108 -9 -260 51 -358 141 -119 109
-232 361 -253 561 -4 39 -14 95 -23 125 -15 48 -16 119 -14 590 2 440 6 539
17 560 10 16 16 72 20 161 4 90 11 142 19 152 8 10 17 62 22 131 4 64 12 122
18 129 6 7 16 55 22 106 6 51 15 101 20 110 5 10 12 42 15 72 7 51 29 158 76
369 116 512 309 1107 506 1565 198 458 516 1009 738 1280 23 28 66 84 97 125
77 103 394 412 509 497 201 147 310 203 499 254 134 36 192 37 307 0 177 -55
302 -179 379 -373 93 -236 145 -718 111 -1028 -9 -80 -19 -190 -22 -245 -5
-111 -41 -372 -80 -595 -14 -80 -30 -172 -36 -205 -5 -33 -16 -80 -24 -104
-20 -60 -19 -94 5 -116 11 -10 22 -26 25 -36 11 -32 25 -21 25 19 0 21 7 65
16 97 18 65 46 216 70 365 8 52 19 109 24 125 5 17 14 81 20 144 6 63 13 118
16 122 10 18 35 382 41 599 11 475 -59 831 -211 1058 -107 160 -226 231 -450
267 -86 15 -96 14 -181 -6 -232 -54 -422 -158 -680 -369 -372 -306 -757 -827
-1083 -1462 -264 -515 -505 -1208 -681 -1953 -77 -326 -89 -384 -97 -455 -3
-36 -12 -76 -19 -90 -7 -14 -15 -64 -19 -113 -4 -48 -13 -102 -20 -120 -8 -17
-16 -77 -20 -132 -4 -55 -13 -122 -21 -150 -7 -27 -18 -120 -24 -205 -6 -85
-18 -189 -27 -230 -23 -108 -13 -654 17 -850 63 -422 149 -645 313 -813 75
-76 268 -147 400 -147 131 0 298 60 484 172 75 45 93 52 160 58 77 8 237 -1
327 -19 28 -5 93 -12 145 -16 271 -18 867 -114 1155 -186 267 -67 808 -231
959 -291 134 -53 264 -120 313 -163 35 -30 41 -41 45 -84 12 -119 -23 -216
-156 -440 -84 -142 -139 -250 -185 -370 -77 -197 -151 -479 -186 -701 -8 -58
-20 -125 -25 -150 -5 -25 -9 -83 -10 -130 0 -47 -7 -139 -15 -205 -19 -149
-19 -305 0 -460 8 -66 15 -158 15 -205 1 -47 5 -105 11 -130 5 -25 16 -86 23
-136 24 -157 94 -419 196 -729 156 -479 174 -535 167 -541 -3 -3 -67 36 -144
86 -291 192 -661 351 -1058 455 -162 43 -443 99 -595 120 -63 8 -181 24 -262
35 -80 11 -197 20 -260 20 -62 0 -221 7 -353 15 -183 10 -283 12 -420 4 -99
-6 -306 -14 -460 -18 -160 -5 -295 -14 -315 -21 -19 -6 -111 -15 -205 -20 -93
-5 -199 -16 -235 -24 -36 -9 -99 -16 -140 -16 -41 0 -102 -7 -135 -15 -33 -8
-112 -19 -176 -25 -64 -5 -127 -14 -142 -19 -14 -6 -77 -15 -139 -20 -62 -5
-127 -15 -143 -21 -16 -6 -77 -15 -135 -19 -58 -4 -115 -13 -126 -19 -12 -6
-60 -16 -108 -21 -47 -6 -94 -15 -105 -21 -11 -5 -59 -14 -108 -19 -48 -5
-100 -14 -115 -20 -15 -6 -60 -15 -100 -20 -40 -5 -107 -17 -148 -25 -41 -8
-131 -24 -200 -36 -69 -12 -170 -30 -225 -40 -55 -10 -129 -21 -165 -25 -36
-4 -70 -11 -77 -17 -7 -5 -57 -14 -110 -18 -54 -4 -111 -13 -128 -20 -16 -6
-74 -16 -127 -20 -54 -5 -106 -14 -117 -19 -10 -6 -63 -15 -117 -20 -55 -5
-111 -14 -126 -20 -15 -5 -62 -13 -105 -17 -43 -3 -103 -12 -133 -19 -30 -8
-82 -16 -115 -20 -33 -3 -109 -14 -170 -25 -136 -24 -217 -36 -363 -55 -62 -8
-129 -19 -150 -24 -20 -5 -82 -15 -137 -21 -55 -6 -116 -15 -135 -20 -19 -5
-83 -14 -141 -19 -58 -6 -118 -15 -134 -21 -15 -6 -80 -15 -144 -20 -64 -4
-129 -14 -146 -20 -16 -6 -82 -15 -145 -19 -64 -5 -127 -14 -140 -21 -12 -7
-71 -15 -129 -17 -58 -3 -137 -14 -176 -24 -42 -12 -103 -19 -155 -19 -52 0
-114 -8 -159 -20 -41 -11 -106 -20 -143 -20 -38 0 -101 -7 -141 -15 -40 -8
-129 -19 -199 -24 -70 -5 -136 -14 -146 -20 -10 -6 -88 -14 -173 -20 -85 -5
-167 -15 -184 -21 -16 -7 -100 -16 -185 -20 -106 -5 -167 -13 -192 -24 -28
-12 -69 -16 -161 -16 -85 0 -139 -5 -173 -16 -30 -9 -115 -19 -219 -24 -93 -5
-199 -16 -235 -24 -39 -9 -115 -16 -190 -16 -69 -1 -159 -8 -200 -16 -41 -8
-163 -19 -270 -24 -108 -4 -226 -15 -265 -24 -48 -11 -122 -16 -240 -16 -108
0 -203 -6 -260 -16 -55 -9 -201 -19 -375 -24 -157 -5 -343 -16 -413 -25 -113
-14 -271 -15 -1330 -12 -1064 3 -1213 5 -1302 20 -65 11 -160 17 -270 17 -115
0 -214 7 -305 20 -74 11 -189 20 -255 20 -70 0 -149 7 -190 16 -38 8 -137 19
-220 24 -82 5 -181 16 -220 24 -38 9 -100 16 -136 16 -36 0 -108 9 -160 20
-52 11 -112 20 -134 20 -36 0 -97 9 -400 61 -802 138 -1448 336 -1835 561
-246 143 -405 277 -495 416 -59 92 -125 234 -125 269 0 15 -5 64 -12 109 -21
147 13 325 102 544 132 319 179 512 187 761 6 179 -4 251 -64 459 -46 160
-194 437 -306 573 -22 26 -37 50 -34 53 3 3 43 -2 89 -11 138 -28 179 -34 263
-34 44 -1 121 -8 170 -16 50 -7 142 -17 205 -20 63 -4 156 -13 205 -20 50 -8
158 -16 240 -20 83 -3 231 -14 330 -23 150 -14 296 -17 865 -17 487 0 720 4
805 13 66 7 269 17 450 23 182 5 350 14 375 19 25 6 146 14 270 19 124 5 277
16 340 25 63 8 176 17 250 21 74 3 176 12 225 20 50 7 149 16 220 20 72 3 158
10 192 16 33 5 119 14 190 19 70 6 153 15 183 20 30 5 111 14 180 20 69 6 170
17 225 24 55 8 136 18 180 21 44 3 116 12 160 20 44 8 121 17 170 20 50 4 108
11 130 15 22 5 87 14 145 19 58 6 148 17 200 25 52 9 167 25 255 36 88 12 219
29 290 40 72 10 198 28 280 40 83 11 193 28 245 36 52 9 143 22 203 29 59 8
111 16 116 19 4 3 50 10 102 16 52 6 123 17 159 25 36 7 94 17 130 20 36 4 92
13 125 20 33 7 87 16 120 20 33 4 87 13 120 20 33 8 92 17 130 21 39 3 80 10
92 15 11 4 59 13 105 19 45 6 115 17 153 25 39 7 126 23 195 35 274 46 709
125 1100 199 58 11 157 29 220 41 63 12 156 30 205 40 50 10 110 22 135 25 25
4 68 13 95 20 28 8 75 17 105 20 30 4 69 11 86 16 17 5 64 16 105 23 41 8 119
23 174 34 55 11 136 27 180 36 44 8 112 22 150 31 39 8 133 27 210 41 77 14
169 31 205 39 36 7 90 16 120 20 30 4 78 13 105 20 28 7 82 16 120 20 39 3 90
12 115 20 25 7 83 16 129 19 46 4 92 11 103 17 11 6 61 15 112 19 50 5 118 16
151 25 32 8 82 15 110 15 27 0 79 7 115 16 36 8 112 19 170 24 58 6 139 16
180 24 41 8 116 17 165 21 50 3 110 11 135 16 24 6 113 16 197 24 85 8 158 17
163 20 6 3 79 10 162 16 84 5 187 16 228 24 41 7 149 16 240 20 91 3 183 10
205 16 22 6 141 14 265 19 124 4 281 15 350 23 88 11 279 17 651 21 l526 7
112 -41 c61 -22 141 -51 177 -66 36 -14 67 -24 70 -22 2 3 -19 28 -46 56 -32
33 -65 84 -94 144 -53 111 -116 310 -116 365 0 35 -4 42 -32 56 -28 14 -283
109 -373 139 -27 9 -32 18 -49 81 -10 40 -22 110 -27 156 -6 47 -14 103 -20
125 -6 23 -13 140 -16 260 -5 211 -5 219 13 213 11 -3 57 -20 104 -36 47 -16
139 -47 205 -69 66 -21 127 -42 136 -46 15 -6 17 19 21 271 3 197 8 285 17
301 7 13 17 82 22 154 6 86 14 137 24 151 10 15 15 46 15 100 0 55 6 91 19
120 10 23 21 68 25 99 6 54 5 58 -22 76 -15 11 -126 53 -246 92 l-218 72 5 37
c7 52 90 431 131 596 142 572 362 1189 583 1629 168 337 408 721 593 951 31
39 81 102 112 140 90 112 414 424 501 482 l77 52 25 -25 c20 -20 34 -24 82
-24 39 0 71 -7 96 -20 25 -14 56 -20 96 -20 33 0 62 -4 66 -10 9 -14 35 -1 84
42 95 83 285 187 450 247 126 46 138 62 64 81 -26 6 -52 15 -58 20 -22 17
-157 40 -246 40 -181 2 -393 -76 -609 -225 -346 -238 -584 -477 -886 -889
-597 -816 -1026 -1954 -1256 -3331 -26 -159 -35 -221 -48 -340 -6 -55 -16
-138 -21 -185 -7 -53 -9 -254 -6 -535 5 -425 7 -458 31 -598 62 -360 154 -593
295 -747 23 -25 37 -46 32 -48 -5 -2 -46 15 -90 38 -94 47 -122 79 -186 215
-47 98 -115 306 -115 348 0 17 -9 32 -23 42 -28 18 -264 103 -329 118 -39 9
-48 15 -48 32 0 12 -8 51 -19 86 -38 131 -113 673 -98 712 5 12 42 3 216 -56
116 -39 213 -68 216 -65 3 3 10 45 15 94 5 49 14 134 20 189 6 55 13 177 16
270 3 94 11 199 19 235 8 36 17 110 21 165 3 54 12 108 19 120 8 11 15 60 17
115 l3 94 -41 7 c-63 11 -383 120 -406 139 -4 3 -3 21 2 40 6 19 28 123 50
230 231 1127 618 2043 1169 2760 220 286 650 702 775 750 22 8 35 6 74 -15 31
-17 63 -25 94 -25 26 0 71 -9 100 -20 77 -29 107 -26 169 17 169 116 217 146
284 178 98 47 237 94 303 102 29 3 55 9 58 14 5 8 -58 29 -87 29 -9 0 -33 7
-53 15 -108 45 -285 60 -406 33 -299 -65 -634 -283 -995 -644 -251 -252 -411
-454 -613 -770 -398 -624 -690 -1371 -891 -2274 -40 -182 -106 -539 -125 -678
-9 -62 -18 -118 -21 -123 -4 -5 -11 -79 -16 -163 -5 -85 -14 -167 -19 -182 -7
-18 -11 -157 -11 -385 1 -322 3 -378 26 -558 37 -289 99 -528 190 -726 42 -92
83 -153 154 -228 30 -31 51 -60 47 -65 -4 -4 -107 -10 -229 -13 -208 -6 -560
-27 -847 -49 -342 -27 -502 -41 -570 -50 -41 -5 -129 -14 -195 -20 -66 -5
-174 -16 -240 -25 -66 -8 -199 -24 -295 -35 -96 -12 -206 -26 -245 -31 -166
-23 -360 -50 -485 -68 -74 -11 -180 -27 -235 -35 -137 -20 -281 -44 -400 -66
-179 -33 -184 -33 -191 -16 -4 11 18 43 68 98 162 182 293 349 387 493 39 61
76 115 81 122 6 7 10 15 10 18 0 10 100 207 112 223 28 33 258 -28 266 -72 4
-20 -24 -56 -44 -56 -20 0 -46 -42 -33 -55 15 -15 579 -13 647 3 29 7 106 17
170 22 64 6 134 15 154 21 44 11 78 -1 78 -29 -1 -25 -46 -72 -69 -72 -14 0
-19 -5 -15 -15 8 -19 54 -19 80 0 11 8 41 14 73 15 30 0 62 6 70 13 9 8 53 25
99 40 114 37 262 111 314 158 40 37 45 39 88 33 25 -4 56 -15 69 -26 13 -10
26 -16 28 -14 6 6 -31 76 -83 156 -61 94 -133 263 -157 370 -9 38 -17 42 -277
135 l-95 34 -23 53 c-30 67 -84 239 -123 388 -27 103 -64 328 -56 337 2 1 26
-6 53 -17 49 -19 287 -94 335 -105 l26 -6 6 238 c4 131 13 288 21 348 8 61 18
182 21 269 4 104 11 166 20 180 17 28 27 230 12 245 -6 6 -21 11 -33 11 -12 0
-96 25 -186 56 -89 30 -178 60 -195 66 -31 11 -32 13 -27 52 3 23 12 70 19
106 8 36 19 97 25 135 6 39 17 99 25 135 8 36 19 90 24 120 18 99 96 416 145
590 26 94 101 311 140 405 54 130 205 436 282 572 112 198 351 541 463 665 26
29 80 94 121 143 160 195 298 314 643 558 48 34 108 74 133 89 44 28 44 28 64
8 14 -14 33 -20 65 -20 25 0 71 -9 102 -20 32 -11 79 -20 106 -20 52 0 91 -15
82 -31 -15 -23 25 -5 70 32 164 136 416 262 567 284 l47 7 -27 29 c-25 26 -38
30 -167 49 -174 25 -240 25 -335 0 -269 -72 -561 -226 -875 -464 -217 -164
-554 -508 -741 -756 -93 -123 -260 -373 -340 -507 l-49 -83 -72 0 c-109 0
-161 25 -259 121 -121 120 -156 120 -349 -2 -147 -92 -184 -119 -184 -136 -1
-7 -5 -13 -10 -13 -5 0 -35 -42 -67 -92 -96 -153 -100 -158 -148 -158 -23 0
-68 7 -101 15 -33 9 -84 20 -115 24 -72 11 -214 38 -321 62 -48 10 -103 19
-124 19 -20 0 -63 6 -94 14 -31 8 -108 22 -171 31 -63 8 -142 19 -175 24 -33
5 -105 15 -160 21 -55 6 -170 20 -255 30 -85 10 -193 23 -240 29 -276 33
-1000 86 -1283 94 -124 3 -127 3 -110 -15 15 -14 50 -21 163 -33 80 -8 188
-19 240 -25 52 -5 145 -10 205 -11 61 0 146 -4 190 -9 44 -4 145 -13 225 -19
80 -6 208 -18 285 -26 77 -8 169 -17 205 -20 90 -8 358 -43 460 -60 47 -8 103
-17 125 -21 55 -8 385 -75 610 -123 55 -12 143 -30 195 -41 52 -11 111 -24
130 -30 19 -5 47 -10 62 -10 33 0 33 2 11 -41 -13 -25 -18 -58 -18 -125 0 -74
4 -96 18 -111 9 -11 17 -24 17 -30 0 -16 -144 -9 -171 9 -16 10 -56 17 -116
20 -59 3 -97 9 -109 19 -11 9 -51 16 -116 19 l-99 6 -140 72 c-77 40 -163 81
-191 92 -82 31 -245 68 -349 79 -105 10 -180 34 -162 52 6 6 32 13 58 17 27 4
50 12 52 19 3 7 -15 22 -39 35 -41 22 -55 23 -275 26 -183 3 -244 0 -291 -12
-33 -8 -84 -18 -113 -22 -30 -3 -87 -15 -128 -25 -41 -10 -85 -19 -97 -19 -12
0 -48 -8 -80 -19 -40 -12 -105 -20 -201 -24 -172 -7 -182 2 -63 60 44 21 82
44 84 51 4 9 -40 12 -201 12 -181 0 -209 -2 -225 -17 -16 -14 -46 -18 -191
-20 -95 -2 -178 -3 -184 -3 -8 0 -13 -13 -13 -34 0 -44 -19 -60 -48 -40 -30
21 -24 86 18 184 18 41 38 91 45 110 7 19 17 36 21 37 5 2 29 -36 54 -85 65
-123 74 -118 78 43 1 72 -2 157 -7 190 -21 122 -39 214 -76 378 -44 194 -42
206 29 168 73 -40 77 -19 29 134 -38 120 -85 206 -184 340 -71 96 -150 235
-144 254 3 10 27 32 54 49 52 34 89 78 111 130 17 43 9 50 -71 63 -90 14 -134
61 -71 75 85 18 163 92 214 201 28 61 32 78 32 163 1 91 -1 98 -37 169 -39 78
-42 96 -9 61 19 -20 21 -21 30 -4 29 51 -107 271 -230 374 -115 96 -275 177
-398 201 -38 7 -60 17 -60 25 0 21 -385 20 -393 0z m518 -184 c50 -17 110 -39
135 -51 58 -25 176 -125 216 -182 l32 -44 -78 37 c-93 44 -130 55 -130 39 0
-7 31 -45 69 -85 85 -90 125 -166 140 -267 32 -210 -58 -344 -273 -406 -66
-19 -110 -39 -126 -58 -10 -13 1 -21 81 -60 74 -35 110 -46 166 -51 l73 -7
-28 -23 c-37 -33 -140 -72 -207 -80 -30 -4 -55 -10 -55 -13 0 -4 16 -23 36
-42 19 -18 48 -57 65 -85 l29 -51 0 -270 c0 -255 -1 -272 -20 -296 -40 -51
-16 -70 41 -32 46 30 59 27 37 -7 -8 -13 -21 -41 -28 -63 -39 -125 -136 -310
-266 -506 -40 -63 -70 -117 -66 -121 5 -5 34 3 65 17 31 15 62 23 68 19 16
-10 -84 -108 -163 -160 -61 -40 -319 -174 -335 -174 -3 0 2 10 13 23 78 87
144 210 174 322 12 44 28 104 37 133 10 37 12 57 5 64 -15 15 -29 2 -53 -44
-29 -57 -97 -128 -144 -149 -56 -26 -75 -24 -75 6 0 25 -49 175 -69 214 -22
40 -133 166 -194 219 -95 83 -199 150 -331 213 -120 56 -337 134 -407 145 -34
6 -37 9 -43 47 -4 22 -29 84 -57 137 -38 75 -68 116 -132 182 -80 83 -133 126
-142 116 -3 -3 10 -31 29 -62 19 -32 47 -92 62 -134 26 -72 28 -89 31 -276 2
-186 -4 -245 -26 -232 -4 3 -8 0 -9 -7 -15 -94 -19 -120 -21 -112 -1 6 -20 36
-44 67 -49 65 -120 124 -192 160 -130 65 -414 131 -652 152 -72 6 -134 14
-136 16 -20 22 -30 67 -34 150 l-6 98 29 27 c16 15 68 54 116 86 144 97 180
164 181 329 1 87 -3 116 -23 172 -14 37 -22 69 -20 72 3 2 53 -8 110 -23 162
-43 284 -125 344 -232 29 -50 33 -13 6 57 -28 77 -63 134 -118 196 -75 82
-237 178 -304 178 -36 0 -37 1 -32 28 4 19 -4 46 -28 91 -28 54 -41 68 -88 93
-53 29 -59 30 -150 25 -60 -3 -117 -13 -155 -26 -96 -34 -87 -17 17 33 195 94
264 110 453 104 132 -4 143 -6 194 -33 29 -16 56 -35 58 -42 3 -7 9 -10 14 -7
20 12 7 -23 -35 -95 -59 -101 -91 -169 -84 -177 4 -3 37 24 75 61 115 112 242
187 398 232 187 55 207 58 460 58 255 0 252 0 490 -62 220 -59 444 -169 590
-293 55 -47 97 -67 78 -37 -95 148 -197 261 -304 333 -81 55 -82 62 -44 175
46 136 110 203 250 263 57 24 67 25 215 22 142 -3 163 -6 245 -34z m-2936
-796 c103 -16 137 -35 198 -114 33 -44 52 -127 38 -173 -8 -25 -53 -79 -67
-79 -12 0 -36 51 -44 95 -7 44 -47 129 -73 159 -9 10 -43 32 -75 48 -58 29
-61 30 -191 26 -131 -3 -132 -3 -213 -44 -76 -37 -80 -38 -56 -13 45 47 114
77 214 92 123 19 156 20 269 3z m-624 -517 c35 -83 102 -164 142 -172 45 -9
73 -41 99 -114 42 -119 28 -189 -48 -241 -24 -17 -62 -34 -84 -38 -70 -12
-117 -42 -177 -113 -45 -54 -47 -87 -11 -155 14 -26 23 -50 20 -54 -8 -7 -6
-9 -54 68 -48 77 -61 127 -62 232 0 57 4 81 16 92 8 9 19 16 23 16 5 0 6 11 4
24 -3 13 0 32 6 43 9 16 12 15 23 -15 8 -20 18 -31 28 -30 24 5 25 114 0 201
-24 88 -26 196 -5 238 9 17 21 27 27 23 7 -4 8 -3 4 5 -9 14 1 61 12 61 4 0
21 -32 37 -71z m985 -669 c52 -11 113 -20 135 -20 62 0 69 -9 62 -77 -3 -32
-14 -76 -25 -98 -11 -22 -36 -89 -56 -149 -56 -167 -52 -164 -101 -65 -44 87
-87 206 -99 272 -6 30 -11 37 -30 37 -23 0 -46 -33 -46 -65 0 -22 -44 -19 -82
5 -30 18 -51 20 -215 20 l-181 0 -7 -30 c-6 -26 -10 -30 -28 -24 -51 15 -73
31 -90 67 -10 20 -23 37 -28 37 -5 0 -9 -83 -9 -193 0 -107 -3 -197 -7 -200
-11 -11 -72 81 -114 171 -37 79 -39 90 -39 178 0 108 0 108 97 117 38 3 69 11
78 21 14 14 58 16 353 16 296 0 348 -3 432 -20z m-5170 -55 c561 -52 1060
-240 1517 -571 135 -98 592 -545 697 -682 140 -184 243 -349 233 -375 -5 -12
-174 -84 -180 -76 -2 2 -33 54 -67 114 -160 277 -245 388 -462 601 -221 217
-471 392 -778 546 -352 175 -561 242 -915 290 -530 72 -1142 -53 -1625 -333
-105 -62 -269 -170 -325 -217 -573 -471 -877 -991 -986 -1687 -19 -123 -22
-180 -22 -480 -1 -301 2 -358 22 -494 74 -515 206 -879 470 -1301 237 -381
513 -671 821 -865 144 -90 407 -221 591 -293 325 -127 682 -207 984 -219 208
-8 517 47 721 127 132 53 485 237 551 287 34 27 101 78 149 116 105 80 158 92
103 23 -26 -33 -294 -257 -414 -346 -223 -165 -420 -242 -747 -289 -308 -45
-327 -46 -649 -2 -440 60 -855 216 -1294 488 -279 174 -402 272 -698 562 -64
64 -117 110 -117 103 0 -38 185 -296 298 -414 l76 -79 -54 28 c-148 79 -374
234 -498 342 -40 35 -76 61 -79 58 -14 -15 175 -291 294 -431 24 -27 41 -51
39 -54 -7 -6 -270 158 -349 217 -105 80 -229 162 -235 156 -3 -3 4 -18 16 -33
13 -15 35 -44 50 -65 58 -82 262 -333 291 -361 55 -49 26 -41 -81 24 -175 107
-259 170 -362 269 -57 55 -101 91 -103 84 -6 -18 125 -267 178 -339 23 -32 74
-95 111 -139 37 -44 68 -84 68 -90 0 -5 -81 71 -180 170 -233 232 -353 393
-485 650 -152 296 -264 672 -285 955 -4 58 -14 162 -21 232 -11 104 -11 152 0
255 7 71 17 179 22 240 20 249 121 653 213 853 31 68 32 49 7 -95 -26 -145
-33 -225 -25 -275 8 -48 26 -48 35 1 3 19 14 77 24 129 29 156 130 490 199
654 25 61 29 36 7 -50 -43 -169 -65 -334 -65 -491 -1 -83 2 -155 7 -159 15
-15 29 15 37 79 14 117 75 343 162 602 39 114 95 240 84 185 -3 -14 -17 -77
-30 -140 -14 -63 -32 -169 -40 -235 -17 -126 -22 -380 -8 -389 14 -8 62 158
73 250 28 245 142 599 276 854 145 278 256 424 537 709 310 313 422 397 728
546 229 111 471 191 741 245 187 37 503 48 747 25z m170 -403 c432 -92 774
-239 1095 -470 120 -87 232 -190 374 -343 113 -123 136 -153 213 -282 39 -65
153 -315 147 -321 -2 -2 -103 -48 -224 -101 -121 -53 -238 -106 -259 -116 -22
-11 -43 -16 -46 -12 -3 5 -24 53 -45 108 -48 121 -122 235 -191 290 -42 34
-61 43 -105 47 -30 4 -77 13 -104 21 -28 8 -75 20 -105 26 -174 37 -239 51
-270 60 -42 13 -161 17 -178 7 -18 -11 -51 -80 -88 -185 -34 -97 -66 -142
-113 -160 -14 -5 -69 -22 -121 -36 -79 -22 -104 -34 -139 -66 l-43 -40 4 -92
3 -92 -30 -3 c-16 -1 -59 -11 -95 -22 -36 -10 -85 -23 -110 -27 l-45 -8 -5
-87 -5 -88 -46 -37 c-26 -21 -60 -45 -77 -54 -20 -12 -34 -31 -45 -64 -16 -45
-15 -50 4 -109 11 -33 27 -71 35 -83 20 -31 18 -41 -15 -74 -48 -48 -120 -207
-141 -314 -19 -91 -19 -96 -1 -180 15 -71 25 -93 58 -132 54 -64 115 -104 208
-137 123 -44 134 -44 222 -2 104 50 135 75 177 145 33 53 36 66 36 131 0 60 2
71 14 61 7 -6 21 -36 31 -67 17 -56 17 -56 -6 -106 -34 -73 -159 -194 -239
-232 -61 -28 -73 -30 -180 -30 -103 -1 -121 2 -170 25 -32 15 -89 58 -137 103
-65 62 -91 94 -120 154 l-38 76 -3 160 c-4 153 -3 164 22 230 14 37 42 90 62
118 59 80 30 68 -61 -24 -96 -97 -112 -128 -156 -293 -35 -134 -36 -155 -4
-292 45 -188 129 -308 280 -397 97 -57 155 -75 260 -82 151 -11 299 40 436
151 79 64 190 192 205 237 7 18 14 32 18 31 3 -1 52 -25 109 -53 103 -51 173
-70 253 -70 40 0 44 -2 44 -25 0 -32 70 -109 123 -137 38 -19 207 -175 207
-190 0 -16 -38 -7 -70 17 -43 32 -60 32 -60 1 0 -25 64 -109 134 -176 21 -19
47 -51 59 -70 11 -19 33 -51 49 -70 56 -72 111 -260 75 -260 -8 0 -22 9 -32
20 -21 24 -35 18 -35 -15 0 -39 55 -200 121 -356 113 -266 135 -338 108 -355
-6 -3 -19 -27 -30 -52 -28 -65 -191 -224 -309 -302 -223 -146 -405 -214 -745
-278 -121 -23 -167 -26 -340 -27 -166 0 -222 4 -330 23 -325 58 -556 136 -865
292 -279 142 -525 304 -658 433 -60 58 -222 263 -299 377 -300 447 -524 1093
-583 1680 -32 323 -33 293 4 600 38 310 149 630 308 884 93 148 158 226 326
394 253 251 451 391 803 566 265 133 480 204 779 260 14 2 147 3 295 1 258 -2
277 -4 415 -33z m12212 -264 c57 -62 67 -81 48 -93 -12 -8 -126 -179 -149
-224 -10 -20 -29 -67 -41 -106 -13 -38 -34 -95 -48 -125 -13 -30 -25 -69 -27
-87 -1 -17 -9 -43 -18 -57 -10 -14 -17 -43 -17 -65 0 -28 -8 -49 -27 -71 -25
-30 -30 -32 -74 -27 -67 8 -121 39 -189 107 -108 110 -132 199 -86 312 77 186
210 341 363 421 50 26 97 45 104 41 8 -3 41 -37 74 -75 33 -38 66 -69 73 -69
30 0 8 46 -77 161 -12 17 -11 19 10 19 15 0 42 -21 81 -62z m228 -235 c0 -6
-24 -63 -54 -126 -74 -156 -162 -380 -183 -466 l-18 -71 -90 6 c-49 4 -94 10
-99 15 -6 5 1 44 17 96 14 48 29 104 32 123 14 69 88 276 117 327 16 29 45 66
65 83 35 31 37 31 124 28 60 -2 89 -7 89 -15z m-6657 -30 c61 -88 124 -279
134 -404 l6 -76 -67 -100 c-65 -98 -126 -231 -140 -305 -8 -45 9 -90 53 -140
17 -20 31 -38 31 -40 0 -7 -96 -33 -235 -63 -66 -15 -140 -33 -165 -40 -155
-45 -194 -50 -375 -50 -166 0 -187 2 -266 27 -91 27 -181 69 -164 75 6 2 38
-6 70 -18 92 -33 258 -38 356 -11 130 36 186 61 239 109 65 58 96 114 104 184
10 78 54 166 130 256 112 133 207 346 227 508 18 144 21 148 62 88z m-1427
-629 c78 -40 91 -44 159 -44 l73 0 46 -52 c39 -44 46 -59 44 -88 -2 -44 7 -60
35 -60 12 -1 33 -7 47 -15 16 -9 54 -14 102 -15 91 0 113 14 104 65 -5 26 -1
36 24 60 17 16 51 40 78 54 36 20 54 39 76 79 l28 54 34 -61 c19 -35 34 -76
34 -94 0 -18 -17 -69 -39 -113 -35 -72 -44 -83 -84 -102 -42 -20 -48 -20 -81
-7 -28 12 -86 15 -269 15 l-233 0 -95 98 c-53 53 -109 117 -126 142 -29 43
-73 124 -73 134 0 8 21 -1 116 -50z m-3749 -43 c137 -7 167 -11 175 -25 7 -12
25 -16 84 -16 87 0 126 -14 183 -65 50 -46 85 -119 100 -210 6 -38 14 -82 17
-97 l6 -28 -164 0 -163 0 -2 44 c-2 64 -26 103 -71 117 -21 6 -49 9 -62 7
l-25 -3 -3 -137 -3 -138 -27 -6 c-44 -11 -135 -60 -158 -85 -12 -13 -40 -60
-63 -103 -22 -44 -41 -76 -41 -71 0 5 -12 -2 -26 -16 -24 -22 -26 -22 -16 -3
13 24 7 35 -14 27 -17 -6 -18 11 -1 29 6 7 13 18 14 23 1 6 5 18 8 27 6 16 1
17 -48 12 l-55 -6 -7 94 c-4 51 -5 167 -3 258 3 159 4 167 29 205 40 59 64 82
104 95 31 10 37 17 37 40 1 3 -2 18 -6 33 -6 26 -5 27 14 17 11 -6 95 -15 187
-19z m3298 -191 c81 -38 143 -83 162 -117 9 -18 14 -35 11 -39 -4 -3 -28 1
-54 10 -26 9 -66 16 -88 16 -23 0 -68 4 -101 10 -85 14 -146 14 -260 0 -135
-15 -155 -34 -53 -50 29 -4 67 -13 83 -19 17 -6 66 -23 110 -37 134 -43 301
-140 338 -198 35 -53 33 -74 -13 -121 l-43 -44 48 -123 c27 -68 55 -133 63
-145 12 -19 12 -23 1 -27 -8 -2 -34 -11 -59 -19 -32 -11 -107 -17 -256 -21
-225 -6 -289 -17 -289 -50 0 -13 17 -24 65 -42 61 -22 98 -31 288 -70 40 -9
131 -40 204 -70 72 -30 140 -54 152 -54 11 0 64 -12 116 -26 133 -36 310 -133
310 -169 0 -8 -16 -33 -36 -55 -20 -22 -35 -42 -33 -44 10 -9 117 -52 250
-102 323 -120 454 -188 549 -283 120 -122 180 -254 188 -417 3 -65 0 -114 -8
-138 -17 -54 -102 -141 -168 -173 -103 -50 -193 -34 -532 97 -226 87 -338 125
-347 117 -12 -12 44 -61 125 -110 42 -26 173 -92 291 -148 117 -55 256 -126
309 -157 107 -63 252 -197 252 -231 0 -27 -52 -85 -95 -105 -28 -14 -64 -17
-189 -15 -85 0 -160 -2 -166 -6 -21 -13 6 -27 77 -40 37 -7 86 -18 108 -24 22
-6 56 -11 76 -11 45 0 151 -39 217 -80 53 -32 103 -99 141 -188 61 -144 26
-233 -114 -298 -58 -27 -65 -27 -235 -27 -142 -1 -196 4 -289 22 -255 51 -472
127 -746 261 -219 107 -298 162 -440 304 -206 206 -302 383 -402 736 -14 51
-18 100 -18 230 0 154 2 168 24 208 13 23 30 42 40 42 15 0 199 -60 335 -110
86 -31 100 -22 37 23 -29 21 -72 55 -94 76 -23 21 -78 65 -122 99 -280 213
-305 237 -408 384 -53 76 -114 195 -145 283 -37 109 -72 233 -72 257 0 14 -9
69 -21 124 -17 81 -20 123 -16 229 8 225 71 373 216 507 83 77 212 146 331
178 110 29 323 24 395 -10z m8094 6 c33 -18 59 -46 42 -46 -7 0 -26 8 -44 17
-23 12 -59 17 -132 17 l-100 1 -23 -47 c-30 -60 -36 -195 -10 -243 30 -56 105
-106 181 -120 21 -4 40 -11 43 -16 8 -14 -120 -10 -226 6 -52 8 -159 15 -237
15 l-142 0 -35 31 c-19 16 -54 65 -76 107 l-42 77 23 43 c31 56 115 137 158
151 20 6 60 8 101 5 52 -5 73 -3 96 10 25 15 53 16 212 11 130 -4 192 -9 211
-19z m-11809 -138 c0 -176 12 -356 28 -413 8 -33 17 -87 19 -120 l4 -60 -60
-47 c-33 -26 -77 -57 -97 -68 -20 -12 -43 -28 -51 -36 -20 -20 -33 -18 -33 6
0 11 6 20 14 20 13 0 46 51 46 72 0 16 -37 8 -55 -12 -26 -28 -33 -25 -40 18
-4 20 -17 71 -30 112 -37 120 -54 190 -65 270 -11 76 -5 174 10 165 5 -3 11
-1 15 5 3 5 28 10 55 10 49 0 73 21 50 44 -15 15 -12 36 5 36 22 0 137 49 155
66 26 25 30 15 30 -68z m11844 32 c28 -10 44 -53 28 -73 -6 -6 -13 -30 -17
-52 -4 -22 -13 -53 -20 -70 -8 -16 -16 -38 -19 -48 -10 -32 -35 -30 -91 7 -63
42 -115 107 -115 145 0 15 11 43 25 64 l26 37 79 0 c43 0 90 -4 104 -10z
m-9513 -124 c0 -17 -588 -207 -936 -303 -49 -14 -99 -28 -110 -31 -18 -5 -19
-4 -6 12 29 35 150 82 325 127 43 11 158 49 255 84 97 34 223 74 281 88 58 14
114 28 125 30 30 7 66 3 66 -7z m32 -125 c8 -59 7 -66 -31 -154 -22 -51 -46
-112 -52 -135 -11 -41 -12 -43 -29 -28 -18 17 -125 241 -136 286 -6 24 -2 26
107 62 62 20 118 36 123 34 6 -1 14 -31 18 -65z m-1486 40 c32 -11 71 -22 87
-26 16 -3 57 -33 91 -66 69 -66 75 -79 140 -294 38 -123 67 -263 59 -277 -3
-4 2 -8 12 -8 36 0 -4 -220 -58 -311 -26 -43 -125 -144 -182 -184 -27 -20 -28
-22 -12 -38 25 -24 129 -23 176 2 33 17 50 36 131 149 l36 50 109 -90 c60 -50
147 -124 194 -164 82 -72 208 -156 221 -148 9 5 -29 84 -54 111 -26 30 -14 42
16 17 29 -26 109 -64 133 -64 11 0 36 -9 57 -20 20 -11 43 -20 51 -20 35 0
157 -59 199 -97 26 -22 47 -43 47 -46 0 -2 -12 -7 -27 -10 -57 -10 -256 -86
-310 -119 -169 -102 -259 -261 -265 -471 -3 -108 -4 -109 -68 -77 -22 11 -51
20 -65 20 -14 0 -52 9 -85 21 -40 14 -90 22 -148 23 -71 2 -96 7 -137 28 -64
33 -165 138 -200 208 -33 67 -81 149 -150 255 -59 93 -105 184 -105 210 0 11
12 32 27 47 45 47 26 53 -164 51 -143 -2 -169 -5 -186 -20 -16 -15 -38 -18
-121 -18 -89 0 -106 3 -141 24 -57 35 -213 189 -236 233 -25 50 -24 64 11 126
30 51 31 52 78 52 63 0 114 -27 127 -66 18 -55 39 -75 110 -105 67 -28 76 -29
222 -29 84 0 153 3 153 8 0 4 -16 16 -35 26 -20 11 -56 41 -80 67 l-45 48 0
87 c0 119 27 196 153 427 17 33 13 59 -14 83 -15 13 -19 31 -19 76 0 76 -21
78 -55 6 -21 -45 -25 -68 -25 -155 0 -79 -4 -112 -19 -145 -11 -24 -31 -70
-45 -103 l-25 -60 -118 -3 c-80 -1 -126 2 -143 11 -24 12 -88 125 -89 159 -1
9 13 25 29 35 17 9 30 21 30 26 0 13 -34 0 -149 -54 -112 -53 -134 -53 -107 0
17 33 101 93 205 148 l64 34 27 -26 c28 -27 50 -32 51 -12 6 108 45 215 97
269 23 24 64 49 111 69 42 17 99 43 126 57 75 38 187 80 217 81 16 1 54 -8 85
-18z m-1218 -218 c77 -300 103 -378 135 -405 12 -9 19 -19 16 -21 -3 -3 -50
-7 -105 -8 -88 -4 -100 -2 -103 13 -2 12 6 21 24 29 23 8 25 12 14 19 -8 6
-34 10 -58 10 -53 0 -61 10 -118 135 -33 72 -48 120 -55 178 -5 44 -9 80 -7
81 12 7 117 46 133 49 11 3 38 5 61 6 l41 1 22 -87z m2181 71 c0 -9 29 -103
65 -209 36 -105 65 -201 65 -213 0 -12 9 -55 20 -94 23 -82 26 -196 9 -295
-13 -72 -18 -74 -88 -43 -24 11 -58 20 -77 20 -18 0 -56 9 -84 20 -68 27 -100
26 -100 -1 0 -16 14 -27 60 -46 54 -24 77 -43 50 -43 -12 0 -130 39 -254 84
-54 20 -107 36 -117 36 -23 0 -21 -10 -19 167 1 111 -2 148 -14 170 -24 44
-63 173 -70 228 l-6 51 268 91 c147 51 273 92 280 92 6 1 12 -6 12 -15z m9888
-174 c19 -7 34 -21 38 -34 5 -21 -36 -200 -50 -213 -3 -4 -21 7 -39 24 -17 18
-57 41 -87 53 -55 22 -287 65 -411 76 l-66 7 61 53 61 54 230 -4 c148 -2 242
-8 263 -16z m-6777 -110 c-10 -52 -9 -64 12 -121 21 -59 84 -165 127 -214 55
-62 151 -295 112 -271 -6 3 -90 10 -189 15 -185 10 -247 23 -338 72 -45 25
-92 65 -107 93 -16 29 6 36 124 36 l107 0 25 33 c19 24 26 49 31 107 4 41 13
93 21 115 7 22 18 68 23 103 11 67 52 144 59 108 2 -10 -1 -45 -7 -76z m-5561
8 c14 -22 38 -62 54 -87 67 -105 85 -152 86 -224 0 -75 -2 -77 -83 -90 l-39
-6 4 42 3 42 -57 3 c-65 3 -67 6 -116 118 -36 82 -44 117 -34 162 6 27 16 37
57 57 74 35 95 32 125 -17z m12091 -139 c94 -24 227 -81 235 -102 2 -7 -6 -57
-19 -110 l-23 -97 -40 41 c-50 51 -161 126 -224 150 -27 10 -117 25 -210 35
-160 17 -162 18 -139 35 13 10 38 21 54 25 17 4 41 15 54 25 35 28 198 26 312
-2z m-12213 -220 c19 -22 31 -46 28 -54 -3 -8 -31 -28 -63 -45 -32 -16 -68
-37 -80 -46 -23 -16 -23 -16 -23 28 0 35 7 54 33 88 17 24 36 49 42 56 16 22
28 17 63 -27z m11933 15 c59 -14 141 -38 183 -54 87 -32 257 -124 282 -151 15
-17 16 -21 2 -36 -12 -14 -18 -66 -27 -213 -14 -223 -1 -686 24 -825 7 -44 19
-120 25 -168 6 -49 27 -144 47 -210 19 -67 35 -128 36 -134 0 -7 4 -13 8 -13
4 0 24 -48 45 -106 20 -58 58 -148 83 -199 l46 -93 -65 -6 c-36 -4 -75 -13
-87 -21 -17 -12 -76 -15 -285 -17 -281 -3 -346 5 -528 63 -194 62 -479 239
-581 360 -140 167 -234 336 -288 518 -30 100 -31 113 -31 283 0 104 4 187 10
199 13 23 67 52 85 46 7 -3 15 -32 19 -69 9 -81 41 -225 68 -308 42 -131 151
-319 240 -416 78 -84 254 -189 393 -234 39 -12 87 -28 108 -36 20 -8 52 -14
70 -14 17 0 81 -9 141 -20 139 -25 153 -25 296 5 133 27 240 72 205 86 -11 4
-33 8 -48 8 -86 2 -304 122 -487 269 -141 112 -175 147 -282 282 -151 193
-246 357 -290 505 -11 39 -25 76 -31 83 -27 35 14 3 88 -68 78 -74 105 -93
105 -71 0 4 -10 21 -21 35 -12 15 -23 44 -24 64 -1 20 -9 51 -18 68 -9 17 -20
59 -25 95 -6 35 -18 98 -27 141 -18 76 -18 76 5 149 42 129 99 180 249 225 99
30 152 29 282 -2z m-11226 -64 c-4 -6 -58 -51 -120 -100 -62 -50 -155 -135
-207 -189 l-93 -99 -77 -6 c-63 -5 -78 -3 -78 8 0 8 42 46 93 85 50 38 130
105 177 148 84 77 176 132 265 158 43 14 51 13 40 -5z m2733 -762 c-17 -78
-20 -137 -21 -373 -2 -278 -1 -281 26 -377 15 -53 50 -153 77 -221 27 -69 52
-141 55 -160 l7 -36 -96 -45 c-120 -57 -228 -74 -356 -57 -94 12 -110 22 -201
119 -75 78 -97 129 -124 283 -15 90 -15 104 0 205 32 215 58 312 113 424 66
134 210 262 327 291 22 5 63 16 90 24 28 7 66 14 86 14 l36 1 -19 -92z m-1613
-841 c56 -31 147 -67 169 -67 11 0 36 -9 54 -20 18 -11 39 -20 46 -20 8 0 38
-21 68 -46 81 -70 158 -116 197 -119 20 -1 53 -10 73 -19 21 -9 48 -16 62 -16
33 0 111 -82 142 -150 13 -29 24 -56 24 -61 0 -5 -15 -15 -32 -22 -35 -15
-118 -80 -131 -103 -6 -10 7 -20 47 -39 66 -30 123 -32 176 -5 22 11 56 20 76
20 25 0 46 7 60 21 l23 22 48 -31 c27 -17 62 -45 78 -62 17 -18 53 -48 80 -68
28 -20 82 -62 120 -93 101 -82 221 -143 342 -174 96 -25 114 -26 288 -23 102
2 185 1 185 -3 0 -3 -21 -16 -47 -29 -58 -28 -177 -38 -273 -21 -147 24 -230
47 -640 178 -253 80 -271 84 -484 90 -130 3 -216 10 -244 19 -23 8 -55 14 -70
14 -57 0 -163 63 -237 141 -154 163 -309 498 -322 699 l-6 84 49 -40 c27 -22
63 -48 79 -57z m7750 -725 c13 -16 47 -64 76 -108 28 -43 64 -97 78 -118 14
-22 78 -92 142 -156 147 -148 178 -165 309 -165 73 1 103 5 130 19 109 58 190
125 382 314 l207 204 28 -20 c15 -11 36 -29 46 -40 23 -25 20 -37 -51 -217
-124 -312 -265 -493 -482 -616 -69 -39 -71 -39 -103 -23 -17 9 -45 26 -62 39
-32 24 -108 75 -280 193 -117 79 -331 280 -341 320 -9 34 -21 27 -59 -32 -38
-60 -78 -96 -106 -96 -11 0 -28 -9 -39 -20 -18 -18 -33 -20 -135 -20 -93 0
-115 -3 -115 -14 0 -8 8 -17 18 -20 11 -4 30 -18 43 -32 22 -23 22 -27 9 -48
-49 -78 -138 -179 -196 -221 -119 -89 -129 -95 -175 -103 -62 -12 -203 5 -247
29 l-37 19 -3 -31 c-9 -81 79 -220 175 -276 54 -32 124 -33 183 -3 24 12 59
20 92 20 50 0 55 -2 108 -55 44 -44 69 -59 128 -79 l74 -25 49 19 c105 39 206
137 254 245 24 56 26 70 26 199 -1 137 -10 180 -31 146 -5 -8 -10 -25 -10 -36
0 -12 -9 -33 -20 -47 -11 -14 -20 -29 -20 -33 0 -5 -21 -43 -47 -86 -38 -63
-55 -81 -90 -98 -50 -23 -76 -25 -92 -6 -6 7 -34 16 -61 19 -28 3 -55 9 -60
12 -17 10 -11 123 8 173 27 69 53 144 59 172 3 14 12 33 21 42 25 29 133 78
171 78 20 0 50 9 66 20 17 11 37 20 46 20 9 0 53 -51 100 -116 46 -64 106
-146 132 -183 26 -36 63 -82 81 -101 61 -64 168 -221 177 -258 5 -20 9 -66 9
-102 l0 -65 -78 -23 c-42 -12 -113 -27 -157 -32 -44 -5 -109 -16 -145 -25 -36
-8 -80 -15 -99 -15 -18 0 -59 -7 -90 -15 -31 -8 -95 -19 -143 -24 -48 -6 -97
-15 -108 -21 -12 -6 -67 -15 -123 -20 -56 -4 -119 -15 -139 -24 -22 -10 -66
-16 -108 -16 -46 0 -82 -6 -103 -17 -20 -10 -66 -18 -127 -21 -64 -3 -103 -9
-120 -20 -18 -12 -51 -17 -122 -18 l-98 -1 0 68 c0 67 -13 96 -31 68 -5 -8 -9
-27 -9 -42 0 -16 -9 -40 -20 -54 -11 -14 -20 -36 -20 -48 0 -18 -7 -24 -37
-29 -21 -3 -52 -6 -68 -6 -17 0 -54 -8 -83 -18 -29 -11 -84 -20 -123 -21 -38
-1 -87 -8 -108 -16 -21 -7 -78 -18 -127 -24 -49 -6 -114 -18 -144 -26 -30 -8
-73 -15 -95 -15 -23 0 -68 -7 -100 -16 -33 -8 -106 -18 -162 -21 l-103 -6 0
35 c0 19 -3 56 -6 81 l-6 45 184 4 184 3 65 32 c51 25 90 58 177 147 97 99
118 127 157 207 25 51 45 99 45 107 0 7 3 12 8 10 107 -55 131 -63 203 -66 54
-3 85 0 105 11 16 8 49 18 74 22 71 11 147 61 125 83 -2 3 -31 4 -63 3 -42 -1
-86 7 -154 29 -107 35 -182 76 -265 147 l-56 48 64 8 c154 19 608 241 924 450
123 82 250 173 310 222 28 22 88 71 135 107 47 36 105 87 130 112 24 25 48 46
53 46 4 0 19 -13 32 -28z m3515 -247 c0 -8 -4 -17 -10 -20 -6 -4 -10 5 -10 20
0 15 4 24 10 20 6 -3 10 -12 10 -20z m-10964 -140 c66 -63 120 -115 120 -115
1 0 36 -35 77 -77 57 -58 79 -75 87 -67 9 9 7 20 -5 44 -9 17 -14 38 -11 46 8
20 49 17 93 -5 285 -146 539 -254 723 -307 95 -28 263 -43 274 -26 3 6 -13 29
-36 51 -55 52 -41 67 41 41 31 -10 106 -32 166 -50 61 -17 146 -42 190 -55
192 -56 378 -91 412 -78 21 8 11 38 -15 41 -18 3 -22 10 -22 43 l0 39 53 0
c65 0 132 30 222 100 73 55 123 80 163 80 36 0 79 -36 167 -140 108 -127 195
-182 195 -122 0 38 36 50 109 36 17 -4 44 -18 60 -33 24 -23 28 -35 34 -106 8
-109 42 -266 67 -315 43 -84 119 -138 280 -198 30 -11 66 -24 80 -28 14 -3 57
-22 96 -40 81 -38 87 -46 135 -195 26 -82 62 -159 91 -200 18 -27 3 -46 -44
-53 -232 -35 -514 -75 -729 -105 -80 -11 -177 -25 -215 -30 -81 -12 -310 -42
-549 -71 -93 -12 -219 -27 -280 -35 -366 -48 -1388 -156 -1745 -185 -69 -5
-170 -15 -225 -20 -116 -13 -403 -34 -730 -55 -126 -8 -291 -19 -365 -25 -372
-29 -1503 -63 -1850 -55 -294 7 -901 40 -995 55 -33 5 -100 14 -150 20 -295
35 -621 93 -784 141 -35 11 -72 19 -82 19 -11 0 -38 9 -59 20 -23 12 -40 16
-40 10 0 -16 -38 -2 -61 21 -23 23 -45 24 -53 4 -9 -25 -36 -18 -36 10 0 18
-11 32 -39 49 -64 40 -63 82 1 143 84 80 309 168 586 228 319 70 401 82 722
106 80 6 175 15 211 20 81 13 89 25 89 142 0 148 29 470 43 484 11 11 27 9 92
-10 276 -82 527 -117 834 -117 374 1 689 58 1151 210 236 77 440 168 613 272
120 73 327 221 390 280 28 26 54 48 57 48 3 0 59 52 125 115 65 63 127 115
136 115 9 0 70 -52 135 -115z m-4758 -85 c219 -231 505 -427 807 -552 l80 -33
3 -183 2 -182 -133 0 c-108 0 -163 -6 -283 -29 -540 -107 -985 -285 -1128
-453 -21 -24 -40 -38 -44 -32 -13 13 -76 168 -101 246 -40 121 -71 280 -71
361 0 127 65 368 138 512 54 107 201 256 337 340 110 69 249 142 261 138 5 -2
65 -62 132 -133z m9331 -214 c109 -104 238 -156 536 -215 50 -10 103 -23 118
-30 16 -6 48 -11 71 -11 24 0 69 -9 101 -20 32 -11 66 -20 75 -20 37 0 273
-84 298 -105 18 -16 -23 -64 -97 -114 -74 -49 -239 -142 -326 -183 -69 -32
-73 -33 -205 -33 -196 1 -306 39 -413 143 -46 46 -63 72 -87 134 -17 43 -30
82 -30 89 0 12 -96 121 -111 127 -14 6 -10 -154 5 -200 8 -24 17 -69 21 -101
15 -129 73 -257 154 -337 l56 -57 -5 -159 -5 -159 -72 -2 c-40 -1 -88 -9 -108
-17 -43 -18 -145 -31 -178 -22 -35 8 -129 104 -166 169 -17 30 -31 59 -31 64
0 4 30 16 68 26 74 19 130 58 207 145 61 68 56 93 -11 57 -26 -14 -60 -25 -76
-25 -16 0 -40 -7 -54 -17 -37 -24 -267 -25 -344 -1 -30 9 -73 22 -96 27 -80
21 -163 105 -175 180 -4 25 -15 78 -24 118 -15 70 -14 74 7 117 21 44 22 45
92 56 225 37 320 60 400 99 95 46 180 119 227 193 45 73 100 148 107 148 3 0
35 -29 71 -64z m10251 -4966 c654 -23 1268 -142 1751 -341 189 -77 374 -174
479 -248 179 -129 378 -323 451 -441 32 -51 34 -61 34 -140 0 -110 -24 -163
-104 -226 -70 -56 -246 -142 -371 -183 -187 -60 -505 -131 -678 -151 -51 -5
-117 -17 -149 -25 -32 -8 -100 -15 -154 -15 -56 0 -130 -7 -175 -17 -117 -26
-865 -26 -1032 0 -62 9 -159 17 -215 18 -56 0 -124 4 -152 9 -27 6 -90 14
-140 20 -627 73 -1244 209 -1685 372 -358 131 -674 334 -710 455 -10 33 -10
53 3 109 15 73 88 355 106 414 6 19 11 51 11 71 0 58 52 91 182 115 480 89
807 139 1003 155 66 5 149 14 185 21 63 11 630 33 920 36 80 1 278 -3 440 -8z"/>
<path d="M10260 14376 c-93 -28 -150 -56 -220 -111 -111 -86 -151 -105 -219
-105 -45 0 -61 -4 -61 -14 0 -18 94 -66 129 -66 16 0 47 -14 72 -34 110 -84
217 -111 364 -95 67 8 98 17 120 34 l31 23 63 -24 c35 -13 70 -24 79 -24 9 0
35 -10 59 -21 43 -21 61 -21 49 -1 -6 10 -45 33 -201 120 -44 24 -99 62 -124
83 -61 54 -96 62 -177 40 -35 -10 -67 -15 -69 -10 -7 10 86 79 153 113 52 26
171 66 247 82 75 17 38 29 -92 31 -107 1 -141 -3 -203 -21z m56 -271 c26 -39
15 -60 -31 -60 -36 0 -40 3 -43 28 -5 41 4 57 32 57 16 0 32 -9 42 -25z"/>
<path d="M9398 10953 c7 -3 16 -2 19 1 4 3 -2 6 -13 5 -11 0 -14 -3 -6 -6z"/>
<path d="M5555 9629 c-5 -15 2 -35 26 -68 18 -25 47 -66 64 -91 17 -25 41 -56
53 -68 13 -13 20 -27 17 -32 -11 -18 -46 -10 -69 15 -28 30 -43 32 -51 5 -12
-39 6 -90 43 -118 30 -23 47 -28 111 -30 71 -4 78 -2 101 22 l24 27 -19 36
c-11 19 -61 74 -112 121 -51 47 -93 89 -93 95 0 13 -70 107 -80 107 -5 0 -12
-10 -15 -21z"/>
<path d="M19529 14030 c-8 -5 -46 -14 -84 -20 -127 -20 -365 -127 -573 -258
-340 -214 -692 -552 -998 -957 -300 -398 -577 -934 -748 -1447 -112 -337 -222
-797 -285 -1198 -10 -63 -23 -133 -29 -155 -6 -22 -16 -98 -22 -169 -7 -70
-17 -142 -23 -160 -13 -39 -19 -844 -7 -997 26 -323 159 -761 306 -1008 55
-93 204 -258 255 -283 56 -27 132 -56 161 -62 15 -3 33 -13 42 -21 8 -9 33
-15 57 -15 l42 0 -44 48 c-66 70 -179 306 -179 372 0 11 -10 44 -22 74 l-22
54 -111 42 c-60 22 -149 54 -196 71 l-85 30 -42 152 c-54 195 -75 291 -101
453 -21 128 -26 184 -16 184 2 0 87 -27 187 -59 101 -33 200 -63 221 -67 l37
-6 0 311 c0 230 4 331 14 384 8 40 18 128 21 197 4 69 12 131 17 138 9 10 20
96 31 232 2 21 -3 25 -33 30 -27 5 -414 128 -429 137 -2 1 6 46 17 100 12 54
26 127 32 163 6 36 25 130 41 210 139 664 318 1170 589 1660 152 276 234 399
485 730 71 94 486 511 580 583 44 33 118 88 165 121 l85 60 79 -3 c44 -1 95
-9 115 -17 20 -8 69 -19 109 -24 39 -5 85 -16 102 -25 46 -24 67 -18 118 29
136 126 395 252 577 279 75 12 85 15 60 21 -16 4 -63 19 -103 32 -40 13 -87
24 -105 24 -17 0 -74 9 -126 20 -103 22 -138 24 -162 10z"/>
<path d="M20100 13904 c-19 -7 -44 -13 -55 -13 -46 -2 -207 -56 -310 -105
-196 -93 -349 -198 -591 -403 -148 -125 -220 -196 -322 -318 -41 -49 -94 -110
-117 -135 -63 -67 -226 -287 -330 -445 -273 -417 -514 -932 -669 -1430 -130
-415 -259 -1003 -315 -1431 -10 -72 -21 -136 -26 -143 -4 -7 -11 -95 -16 -195
-4 -99 -15 -224 -23 -276 -18 -107 -20 -288 -6 -400 6 -41 19 -152 30 -246 46
-402 150 -748 292 -976 28 -44 187 -218 200 -218 4 0 41 -15 81 -34 40 -19 99
-42 132 -51 33 -10 65 -21 70 -25 15 -13 126 -53 131 -48 2 3 -19 15 -46 27
-64 29 -116 89 -173 200 -55 108 -119 307 -115 359 3 33 0 37 -22 40 -14 2
-103 31 -199 65 -195 70 -176 52 -217 202 -38 142 -75 368 -84 515 -4 74 -6
137 -5 138 2 2 92 -26 199 -62 108 -36 200 -66 204 -66 4 0 8 15 9 33 1 17 7
84 13 147 18 187 29 359 30 458 0 52 6 117 14 145 8 29 17 101 21 161 4 61 12
118 20 130 7 12 16 65 19 119 7 97 7 97 -16 97 -24 0 -417 127 -431 139 -4 4
3 54 16 112 14 57 34 158 47 224 55 299 157 686 260 989 82 240 164 435 291
691 212 430 368 670 694 1072 165 203 386 408 608 563 86 60 125 67 188 34 18
-9 67 -21 108 -26 41 -5 81 -14 87 -19 7 -5 35 -12 62 -16 49 -5 52 -4 102 40
144 125 446 265 615 283 l60 6 -50 14 c-280 78 -409 100 -465 78z"/>
<path d="M21586 12770 c-216 -90 -496 -365 -733 -720 -509 -762 -877 -1760
-1088 -2946 -94 -529 -145 -1125 -116 -1344 5 -36 17 -119 25 -185 29 -218 81
-329 180 -385 47 -27 59 -30 146 -30 80 1 106 5 165 28 193 76 397 282 601
607 95 150 193 322 265 464 89 175 68 170 321 74 26 -9 50 -14 54 -10 4 4 -11
24 -34 45 -31 28 -42 47 -42 68 0 29 -3 30 -183 91 -100 34 -300 103 -444 155
l-263 93 0 52 c0 28 -4 55 -10 58 -5 3 -10 13 -10 22 0 26 41 14 445 -131 210
-75 388 -136 398 -136 15 0 17 15 17 158 0 149 -1 158 -21 170 -16 10 -539
191 -848 293 -10 4 -14 19 -13 50 2 41 27 158 37 167 2 3 19 -2 37 -11 18 -8
186 -65 373 -126 187 -62 348 -116 358 -122 10 -6 40 -13 66 -16 l48 -5 16 40
c9 22 26 80 38 129 47 196 123 460 141 496 11 22 18 41 16 43 -2 2 -164 62
-358 133 -442 161 -524 192 -528 196 -2 2 33 77 78 166 81 162 244 425 302
485 l30 32 36 -19 c20 -10 206 -85 412 -166 206 -81 380 -154 386 -162 10 -13
19 -7 55 33 59 65 138 107 313 170 25 9 15 17 -31 27 -32 7 -160 51 -215 74
-14 6 -16 17 -11 78 3 40 14 98 24 131 11 32 19 76 19 98 0 21 8 64 19 96 10
31 21 96 24 143 2 47 10 96 17 109 7 14 16 85 20 165 5 77 14 165 21 195 20
85 18 361 -4 429 -9 30 -17 75 -17 99 0 49 -38 164 -75 228 -30 51 -103 119
-151 139 -25 10 -68 15 -138 14 -88 0 -110 -4 -170 -29z m91 -275 c122 -46
172 -117 200 -280 36 -218 36 -223 24 -318 -7 -51 -16 -144 -21 -208 -4 -64
-13 -133 -20 -153 -6 -20 -18 -76 -25 -124 -17 -105 -40 -219 -60 -287 -7 -27
-17 -72 -21 -98 -6 -43 -9 -47 -28 -41 -31 9 -198 68 -294 103 -159 58 -203
52 -341 -46 -93 -67 -143 -115 -215 -207 -212 -273 -354 -586 -451 -996 -58
-241 -64 -272 -70 -350 -3 -41 -12 -97 -20 -124 -21 -71 -21 -409 0 -450 8
-15 15 -43 15 -60 0 -46 45 -131 92 -170 27 -23 82 -50 166 -81 243 -88 272
-100 272 -110 0 -16 -192 -372 -277 -513 -198 -332 -325 -469 -497 -541 -105
-44 -148 -48 -220 -21 -106 40 -137 91 -178 295 -31 153 -31 433 0 700 27 229
65 494 92 642 12 59 25 135 31 168 36 214 172 748 265 1040 220 692 553 1390
857 1793 184 245 334 369 527 438 84 30 115 30 197 -1z"/>
<path d="M13645 11179 c-49 -10 -103 -18 -120 -19 -16 0 -50 -6 -75 -14 -274
-89 -373 -137 -489 -237 -120 -104 -193 -205 -206 -284 -4 -22 -14 -59 -22
-82 -28 -77 14 -277 93 -443 110 -231 275 -402 491 -509 121 -61 173 -71 352
-71 164 0 199 7 347 67 73 29 214 111 214 124 0 15 -79 10 -113 -8 -41 -22
-297 -31 -378 -14 -160 35 -337 179 -417 340 -23 46 -42 96 -42 112 0 15 -7
50 -16 76 -17 51 -16 69 15 206 23 100 63 189 128 285 58 86 103 133 181 189
99 71 180 101 297 108 242 17 438 -40 725 -207 123 -72 164 -108 227 -201 43
-63 83 -101 83 -78 0 15 -80 152 -121 206 -149 199 -473 382 -799 451 -137 28
-230 29 -355 3z"/>
<path d="M22259 10646 c-133 -57 -214 -124 -315 -258 -233 -307 -363 -621
-472 -1138 -36 -174 -36 -176 -37 -425 0 -239 1 -253 24 -312 23 -62 71 -121
138 -170 28 -20 36 -22 80 -13 126 23 226 84 342 206 l91 96 33 -13 c17 -7 92
-41 165 -76 73 -35 135 -63 136 -63 2 0 68 -31 147 -69 407 -194 583 -271 622
-271 176 0 447 265 607 594 77 159 122 304 140 451 6 50 18 100 26 112 20 32
20 284 0 316 -8 12 -20 45 -26 72 -16 73 -67 172 -104 202 -43 34 -134 66
-406 143 -161 46 -286 82 -455 130 -170 49 -214 61 -278 79 -38 10 -73 23 -79
29 -11 11 -23 58 -38 147 -16 96 -77 207 -123 221 -12 4 -34 15 -49 25 -38 27
-83 23 -169 -15z m212 -87 c40 -44 71 -127 84 -228 7 -52 7 -53 -16 -46 -13 4
-36 14 -51 21 -16 8 -58 14 -101 14 -59 0 -83 -5 -126 -26 -149 -75 -311 -304
-406 -575 -48 -138 -93 -328 -106 -453 -13 -118 -6 -334 12 -390 25 -73 142
-163 262 -200 17 -5 15 -10 -15 -48 -42 -54 -118 -127 -187 -181 -53 -41 -57
-42 -140 -45 -107 -5 -127 8 -167 105 -27 66 -28 75 -31 283 -3 118 0 240 5
270 44 253 59 321 97 459 131 474 366 875 603 1031 l76 50 85 0 84 0 38 -41z
m229 -559 c493 -155 537 -169 583 -186 20 -8 48 -14 61 -14 13 0 35 -9 49 -20
39 -31 64 -25 110 26 59 65 82 74 181 74 80 0 87 -2 119 -29 83 -73 117 -201
117 -444 0 -217 -33 -383 -117 -584 -92 -218 -293 -471 -451 -566 -94 -57
-136 -69 -192 -55 -50 13 -120 85 -120 124 0 47 -33 135 -60 161 -15 13 -73
44 -131 67 -57 24 -198 85 -314 136 -288 126 -635 276 -662 284 -30 10 -37 41
-28 130 l7 74 51 -17 c96 -33 1042 -413 1065 -427 26 -17 24 -22 52 96 11 47
20 108 20 135 0 28 9 75 19 105 10 30 22 78 26 106 l6 50 -128 43 c-146 49
-266 92 -648 231 -148 54 -289 104 -312 111 -40 11 -43 15 -43 46 0 73 100
273 202 405 33 42 65 79 71 81 6 2 27 -2 47 -9 19 -7 208 -68 420 -134z"/>
<path d="M23580 9617 c-106 -51 -234 -216 -313 -404 -59 -139 -85 -231 -108
-373 -31 -193 -32 -208 -21 -237 6 -15 16 -47 22 -69 13 -54 73 -114 112 -114
53 0 121 42 208 130 99 98 136 149 195 269 39 78 101 243 108 288 1 10 5 23 8
28 3 6 6 23 7 39 1 16 9 51 17 79 36 122 7 308 -57 362 -38 33 -113 34 -178 2z
m153 -46 c21 -25 25 -42 30 -135 10 -180 -5 -280 -71 -466 -49 -136 -125 -261
-222 -364 -128 -135 -172 -157 -231 -115 -42 30 -53 82 -45 221 19 367 215
770 419 863 69 32 90 31 120 -4z"/>
<path d="M23468 9243 c-28 -32 -98 -169 -123 -241 -32 -93 -35 -201 -5 -250
l20 -33 31 18 c40 24 85 68 120 119 37 55 37 62 -2 30 -48 -40 -81 -54 -117
-49 -23 4 -34 12 -38 29 -7 28 36 164 81 254 63 127 75 171 33 123z"/>
<path d="M12342 10531 c-26 -27 -28 -34 -24 -83 8 -102 -61 -203 -317 -462
-191 -194 -195 -198 -157 -193 36 6 75 26 265 137 100 59 257 110 337 110 l62
0 7 -52 c4 -29 13 -68 21 -86 7 -18 16 -81 20 -140 9 -153 49 -393 74 -442 44
-86 46 -68 48 363 1 470 5 446 -111 672 -59 113 -80 145 -115 172 -53 41 -72
41 -110 4z"/>
<path d="M15995 6460 c-66 -11 -158 -22 -205 -26 -119 -9 -255 -37 -320 -66
-56 -25 -161 -105 -299 -227 -111 -98 -370 -400 -505 -589 -209 -292 -266
-382 -379 -608 l-110 -222 -48 49 c-51 53 -127 93 -195 104 -41 6 -259 -32
-322 -56 -15 -6 -49 -14 -77 -18 l-50 -6 -6 -45 c-4 -25 -16 -76 -28 -114 -11
-37 -21 -79 -21 -91 0 -13 -4 -26 -8 -29 -5 -3 -44 35 -87 85 -44 50 -96 106
-118 125 l-39 35 -206 -3 c-171 -3 -217 -6 -264 -22 -32 -11 -61 -16 -65 -12
-4 4 0 28 10 54 81 223 277 827 272 840 -4 9 -27 35 -52 57 l-46 40 -193 3
c-106 2 -232 -2 -281 -8 -48 -6 -116 -15 -150 -19 -34 -3 -67 -11 -72 -16 -6
-6 -58 -156 -117 -335 -58 -179 -191 -570 -294 -870 -103 -300 -222 -654 -264
-787 -85 -269 -110 -333 -131 -333 -7 0 -24 19 -37 42 -41 76 -126 106 -205
73 -43 -18 -73 -19 -73 -3 0 6 60 71 134 143 138 136 195 207 311 385 146 225
145 259 -7 424 -32 36 -79 74 -104 87 -45 21 -54 22 -236 16 -104 -3 -195 -11
-202 -16 -7 -6 -82 -17 -167 -26 -85 -8 -163 -18 -174 -21 -11 -3 -92 -9 -180
-14 -137 -7 -173 -12 -250 -38 -119 -39 -198 -87 -296 -178 l-80 -75 -58 54
c-72 67 -121 83 -224 73 -39 -4 -87 -11 -107 -16 -19 -5 -84 -14 -143 -20 -60
-6 -120 -16 -135 -21 -15 -6 -85 -13 -156 -16 -114 -5 -129 -8 -133 -24 -7
-25 -35 -24 -58 1 -23 26 -67 26 -165 0 -41 -11 -88 -20 -103 -20 -31 0 -143
-44 -168 -66 -25 -22 -30 -17 -23 21 13 71 -1 101 -92 191 -68 66 -93 85 -122
89 -20 3 -71 15 -113 25 -97 25 -111 25 -184 -6 -33 -14 -104 -41 -157 -60
-185 -64 -275 -118 -409 -242 -62 -57 -124 -165 -134 -235 l-6 -38 -41 37
c-22 20 -65 47 -95 61 -51 23 -62 25 -196 21 -135 -3 -145 -5 -207 -34 -66
-32 -162 -118 -297 -266 -34 -38 -69 -68 -77 -68 -8 0 -40 29 -71 65 -94 107
-88 105 -331 105 -199 0 -212 -1 -260 -24 -90 -42 -136 -123 -153 -267 -5 -37
-17 -72 -34 -98 -15 -22 -27 -43 -27 -46 0 -3 -11 -23 -25 -45 -36 -57 -55
-53 -55 11 0 45 -2 50 -17 43 -10 -5 -136 -10 -280 -12 -248 -3 -261 -4 -266
-23 -7 -25 -27 -24 -27 2 0 20 -2 20 -343 17 -288 -3 -349 -6 -384 -20 -22 -9
-44 -14 -47 -11 -7 7 102 222 155 304 23 35 76 100 118 144 42 44 94 106 114
137 44 69 68 85 127 90 l45 3 6 -110 c4 -60 14 -137 23 -170 9 -32 16 -69 16
-82 0 -35 65 -101 113 -114 27 -7 113 -9 247 -6 227 5 266 13 432 91 87 41
122 72 172 155 42 68 46 113 16 168 -11 21 -20 55 -20 75 0 51 -33 118 -86
177 -24 27 -44 54 -44 60 0 6 11 17 25 23 14 6 25 17 25 23 0 6 -36 42 -80 79
-44 37 -80 70 -80 74 0 4 -24 26 -52 47 -29 22 -90 73 -136 113 -149 132 -276
202 -402 223 -71 11 -348 10 -420 -2 -30 -5 -120 -14 -200 -19 -80 -6 -173
-14 -208 -19 -71 -11 -175 -56 -235 -103 -42 -34 -298 -336 -391 -462 -274
-370 -498 -792 -596 -1121 l-33 -110 -5 -271 c-4 -254 -3 -277 18 -350 24 -88
74 -190 122 -248 34 -42 176 -150 275 -209 73 -45 179 -90 248 -106 28 -6 78
-18 113 -26 80 -19 136 -19 193 -1 26 9 105 16 194 19 83 3 162 10 176 15 14
6 66 17 115 26 112 19 246 72 499 196 183 89 383 211 460 279 77 68 70 74 67
-61 l-3 -120 47 -85 c89 -164 193 -233 392 -264 68 -10 89 -9 157 6 73 16 83
21 135 74 51 51 58 63 78 141 12 47 26 117 31 155 16 124 76 239 189 369 27
31 60 76 73 101 14 25 31 45 40 45 10 0 43 -13 74 -30 70 -37 141 -39 290 -11
146 28 263 74 319 126 15 14 29 25 31 23 3 -3 -16 -106 -42 -218 -14 -63 -15
-84 -4 -140 6 -36 16 -94 22 -130 6 -36 22 -84 35 -107 35 -60 138 -149 221
-190 65 -32 84 -37 172 -41 147 -7 157 -4 246 85 63 64 85 94 122 173 42 89
179 310 192 310 3 0 17 -20 30 -45 39 -73 79 -122 127 -154 100 -66 301 -108
560 -118 248 -10 564 65 889 211 17 8 60 41 97 75 36 33 72 61 80 61 8 0 39
-13 69 -29 110 -60 214 -82 442 -94 346 -18 558 15 851 132 39 16 92 36 117
45 31 11 69 39 112 81 36 36 68 65 71 65 3 0 6 -14 6 -31 0 -73 22 -121 82
-180 32 -31 58 -59 58 -61 0 -3 -20 -40 -45 -84 l-45 -79 0 -110 c0 -169 33
-261 135 -373 142 -155 361 -260 710 -337 110 -25 284 -34 445 -24 196 11 238
29 422 173 126 99 176 136 302 228 67 48 139 101 161 118 109 84 103 76 107
138 3 31 12 86 21 122 17 68 52 262 62 343 10 77 23 54 31 -53 8 -115 13 -123
111 -160 l55 -21 97 24 c125 31 237 78 326 138 89 60 139 114 173 187 38 83
39 128 7 213 -25 65 -40 85 -143 191 -136 140 -217 198 -278 198 -22 0 -49 -7
-60 -15 -27 -20 -174 -21 -174 -1 0 15 34 106 125 336 29 74 56 143 59 154 5
14 9 16 19 7 18 -15 35 -75 46 -159 12 -92 58 -186 127 -261 102 -111 293
-223 469 -277 81 -24 253 -25 355 -2 41 10 131 29 200 44 284 59 372 92 651
249 228 128 428 262 562 375 60 50 110 90 112 88 2 -2 13 -39 25 -83 12 -44
31 -102 42 -130 10 -27 20 -54 21 -59 1 -5 -38 -23 -88 -41 -136 -48 -241
-105 -335 -182 -89 -71 -152 -104 -234 -123 -99 -22 -167 -72 -242 -176 -83
-117 -113 -225 -79 -284 8 -14 14 -52 15 -86 0 -72 15 -112 75 -203 104 -157
372 -289 685 -335 58 -9 132 -21 165 -27 80 -14 249 -6 297 15 21 9 53 16 73
16 43 0 210 53 233 73 59 53 644 453 720 491 31 16 32 19 32 76 0 33 7 77 15
97 18 46 58 236 70 336 4 26 10 47 14 47 9 0 21 -82 21 -144 0 -33 7 -46 44
-81 81 -78 156 -75 416 17 159 57 244 115 307 209 22 34 27 55 31 122 3 80 3
83 -32 136 -19 30 -33 58 -30 63 3 4 24 18 46 29 22 11 68 46 102 77 33 32
104 92 156 134 52 42 106 88 119 102 14 14 28 26 31 26 4 0 10 -33 12 -72 6
-97 42 -172 111 -234 82 -74 142 -97 270 -102 99 -4 114 -2 175 22 37 14 99
48 137 76 122 85 419 287 442 298 20 11 21 10 21 -46 0 -31 10 -99 21 -149 12
-51 21 -105 21 -121 0 -105 204 -353 375 -456 85 -52 234 -96 340 -102 108 -7
138 6 203 85 48 60 52 85 23 170 -62 183 -82 355 -62 536 6 55 33 189 60 297
28 108 55 234 61 280 15 108 6 238 -22 292 -28 54 -212 238 -267 266 -116 58
-237 31 -463 -102 -37 -22 -72 -37 -78 -33 -5 3 -10 42 -10 87 0 103 -27 161
-123 264 -80 86 -142 129 -217 151 -51 15 -61 15 -138 -1 -98 -20 -194 -59
-293 -116 -73 -43 -223 -151 -234 -170 -13 -22 -31 -8 -60 47 -18 34 -67 95
-120 150 -108 109 -126 116 -289 111 -105 -3 -115 -5 -184 -40 -106 -54 -142
-85 -142 -118 0 -29 -63 -121 -115 -170 -22 -21 -28 -22 -35 -10 -5 8 -10 24
-10 35 0 26 -22 59 -85 126 -71 78 -113 106 -180 124 -69 18 -204 20 -290 4
-33 -6 -91 -16 -128 -22 l-68 -12 -38 -115 c-39 -120 -61 -147 -80 -97 -13 34
-101 138 -151 177 -30 24 -61 36 -113 47 -133 27 -393 11 -469 -28 -46 -23
-48 -14 -8 36 57 71 63 167 21 339 -16 69 -24 84 -58 113 l-38 33 27 24 c16
14 36 29 45 35 16 8 11 16 -35 68 -29 32 -103 126 -166 208 -120 160 -217 260
-281 292 -22 11 -82 32 -133 47 -113 32 -236 34 -417 6z m439 -122 c74 -22
122 -57 157 -116 13 -20 51 -74 86 -119 35 -45 63 -86 63 -90 0 -5 -13 -22
-30 -38 -16 -16 -30 -34 -30 -39 0 -6 36 -51 80 -101 l80 -89 0 -124 0 -124
-30 -28 c-53 -50 -203 -107 -312 -120 -54 -6 -112 -16 -130 -21 -50 -14 -205
-12 -210 4 -3 6 -3 102 -1 211 l3 200 30 31 c16 17 30 34 30 38 0 4 -21 21
-47 37 -55 35 -104 39 -140 10 -14 -11 -31 -20 -38 -20 -6 0 -20 9 -30 20 -10
11 -25 20 -34 20 -42 0 -240 -194 -358 -350 -23 -30 -77 -94 -120 -141 -53
-59 -94 -116 -127 -180 -27 -52 -89 -162 -137 -245 -125 -215 -189 -348 -249
-514 -50 -140 -52 -151 -62 -299 -14 -209 -1 -346 42 -430 16 -33 40 -65 52
-72 13 -7 47 -10 87 -7 81 6 133 31 301 146 162 110 371 314 391 380 19 65 -3
89 -123 128 -148 48 -268 120 -268 160 0 8 6 27 14 42 7 15 19 52 25 82 14 64
43 100 82 100 16 0 75 9 131 20 82 16 144 20 300 20 187 0 198 -1 208 -20 8
-14 21 -20 45 -20 24 0 37 6 45 20 10 18 21 20 118 20 107 0 311 16 346 26 16
5 18 2 12 -22 -3 -16 -22 -60 -42 -98 -19 -38 -39 -92 -45 -119 -22 -118 -172
-371 -297 -500 -96 -99 -281 -231 -472 -336 -287 -158 -524 -254 -685 -276
-27 -4 -58 -11 -67 -16 -10 -5 -55 -14 -100 -20 -46 -5 -100 -16 -121 -24
-127 -50 -375 26 -548 168 -93 76 -117 103 -160 187 l-33 65 1 190 c1 215 6
251 81 495 39 130 69 199 183 430 76 151 163 313 195 360 131 194 282 400 344
470 36 41 98 113 137 160 76 91 191 205 288 287 158 132 256 169 475 179 74 3
149 11 165 17 82 29 340 27 449 -5z m-3789 -770 c-8 -36 -131 -397 -368 -1078
-222 -641 -442 -1338 -435 -1384 4 -30 47 -32 99 -6 23 12 100 60 170 107
l128 85 11 52 c6 28 16 87 22 131 7 52 25 111 50 170 22 50 69 164 105 255 35
91 89 214 119 274 31 62 66 150 81 204 14 52 30 103 35 112 9 13 6 22 -11 39
-35 35 -27 48 49 83 74 34 350 58 415 37 l40 -14 3 -62 c4 -84 -29 -166 -173
-428 -224 -406 -321 -629 -294 -674 11 -17 49 -41 65 -41 3 0 36 29 74 65 38
36 76 65 84 65 9 0 40 22 69 48 29 27 87 74 128 104 133 100 182 159 233 279
50 120 106 284 106 310 0 10 -11 19 -27 24 -49 11 -113 46 -113 61 0 10 13 14
49 14 54 0 107 15 134 38 10 9 34 67 54 130 19 63 44 123 54 133 11 11 33 19
53 19 19 0 65 10 102 21 95 30 203 31 241 3 15 -11 34 -32 41 -47 14 -28 11
-36 -61 -202 -19 -44 -62 -159 -97 -255 -34 -96 -105 -283 -157 -415 -119
-303 -203 -547 -203 -594 0 -36 0 -37 39 -33 40 4 40 4 43 -35 l3 -38 92 -3
c78 -2 99 1 134 19 31 15 51 19 78 15 51 -9 70 -9 114 -1 37 8 41 6 99 -51 99
-97 118 -128 118 -193 0 -55 -1 -56 -58 -111 -69 -65 -194 -131 -302 -159 -41
-11 -83 -22 -92 -26 -10 -4 -18 -3 -18 3 0 6 10 14 23 17 12 4 33 17 47 30 14
12 50 38 80 57 73 47 110 88 116 129 9 64 10 64 -249 64 -170 0 -238 -3 -249
-12 -8 -7 -32 -16 -54 -21 l-39 -8 -6 -64 c-4 -36 -13 -83 -22 -105 -11 -27
-16 -73 -17 -140 0 -80 -4 -109 -20 -140 -11 -22 -20 -59 -20 -85 0 -58 -31
-108 -92 -152 -26 -18 -76 -53 -110 -77 -35 -25 -83 -61 -107 -80 -24 -20 -63
-49 -86 -66 -24 -16 -89 -66 -146 -109 -57 -44 -131 -91 -164 -105 -56 -24
-74 -26 -247 -29 -122 -3 -204 0 -235 8 -26 6 -81 18 -121 26 -208 39 -447
144 -551 240 -75 69 -103 124 -102 203 0 76 18 118 78 182 56 60 126 98 187
102 50 3 179 76 256 144 64 57 133 90 330 158 287 98 563 196 582 206 9 5 44
11 77 13 47 2 70 10 102 32 45 31 58 55 83 149 58 223 73 275 86 300 5 11 16
62 23 113 10 73 10 92 1 92 -25 0 -64 -47 -136 -161 -40 -64 -92 -145 -115
-181 -57 -87 -231 -253 -320 -306 -67 -39 -77 -42 -145 -42 -74 0 -74 0 -115
43 -22 23 -53 67 -68 97 -15 30 -29 57 -31 59 -1 1 -20 -10 -41 -26 -21 -16
-73 -55 -116 -87 -82 -62 -154 -139 -281 -299 -42 -54 -89 -102 -102 -108 -16
-6 -71 -6 -147 0 -98 7 -133 14 -179 35 -58 26 -58 26 -58 69 0 24 -5 48 -11
54 -9 9 -9 19 -1 40 6 15 14 44 17 63 24 122 224 766 380 1225 76 220 208 609
295 865 87 256 163 480 170 499 22 59 65 71 273 71 l179 0 -7 -32z m3395 -201
l5 -196 55 -56 c30 -30 70 -60 89 -66 24 -8 86 -10 196 -6 205 8 342 40 485
112 27 14 51 25 52 25 2 0 0 -46 -3 -102 -6 -119 -43 -234 -86 -268 -32 -25
-43 -18 -43 26 0 44 -13 49 -75 28 -42 -14 -123 -18 -520 -24 -395 -6 -492
-11 -606 -28 -75 -11 -146 -26 -157 -33 -24 -15 -40 -6 -24 13 5 7 22 36 37
63 141 258 170 300 287 421 64 67 128 139 142 160 51 79 122 140 151 131 6 -2
12 -82 15 -200z m3251 -155 c20 -22 29 -43 29 -66 0 -75 -75 -236 -148 -317
-52 -58 -175 -290 -170 -322 2 -16 11 -23 30 -25 34 -4 98 38 188 123 36 34
94 84 130 110 36 27 88 70 115 96 28 25 88 70 135 99 47 30 100 67 119 83 19
16 48 35 65 43 17 7 47 30 67 52 41 44 168 109 276 142 62 19 78 20 109 10 54
-18 104 -68 136 -135 44 -93 40 -110 -50 -266 -15 -26 -40 -62 -55 -80 -38
-45 -119 -157 -134 -183 -13 -24 -22 -172 -10 -170 5 1 144 83 310 182 449
269 558 319 642 298 38 -10 124 -93 146 -141 30 -66 24 -134 -31 -347 -28
-106 -55 -220 -61 -253 -10 -56 -17 -92 -39 -190 -14 -62 -11 -193 6 -270 8
-38 19 -97 25 -130 6 -33 17 -79 25 -103 7 -23 14 -63 14 -87 l0 -45 -43 0
c-57 0 -208 44 -279 82 -38 20 -92 66 -160 137 -86 88 -108 117 -131 174 -35
87 -38 208 -7 287 12 31 20 74 20 110 0 33 6 81 13 107 10 37 10 47 0 50 -23
8 -14 38 22 73 47 46 45 60 -8 60 -52 0 -119 -32 -179 -85 -24 -20 -83 -64
-133 -97 -167 -110 -192 -126 -271 -183 -43 -31 -90 -67 -104 -80 -31 -28
-183 -123 -228 -142 -18 -7 -62 -14 -96 -14 -51 -1 -75 5 -124 30 -72 37 -87
56 -101 135 -11 57 -10 62 19 113 20 34 30 67 30 93 0 32 8 51 40 91 22 28 40
55 40 61 0 5 16 35 34 66 19 32 38 71 42 87 4 17 15 41 26 54 21 27 24 51 6
51 -17 0 -123 -65 -177 -109 -32 -25 -53 -34 -74 -33 -28 2 -57 -23 -286 -251
-246 -243 -394 -367 -461 -387 -14 -4 -41 -15 -61 -25 -36 -17 -36 -17 -111
18 -41 20 -79 41 -85 49 -5 7 -20 41 -32 75 -36 97 -28 203 15 203 7 0 20 10
28 22 14 20 14 24 -4 43 -19 20 -19 22 -3 45 9 14 25 35 37 48 15 16 21 38 22
75 1 55 18 90 177 362 56 96 87 137 157 205 97 94 146 157 155 199 7 32 31 56
89 91 54 33 88 39 194 37 92 -2 94 -3 123 -35z m-1778 -41 c46 -22 47 -22 47
-70 0 -65 -53 -170 -220 -441 -73 -118 -162 -270 -197 -337 -58 -114 -63 -128
-63 -187 0 -35 3 -71 6 -80 7 -18 49 -22 59 -6 6 10 241 170 329 225 36 22
133 104 178 149 16 16 44 56 62 90 34 60 126 284 126 305 0 5 -18 16 -40 22
-41 13 -90 50 -90 69 0 6 32 10 84 10 56 0 87 4 94 13 6 7 27 59 46 116 19 57
40 109 47 117 21 25 83 34 242 34 l159 0 30 -30 c37 -38 36 -44 -39 -200 -30
-63 -88 -191 -128 -285 -40 -93 -107 -242 -148 -330 -90 -190 -104 -226 -168
-413 -48 -141 -57 -182 -41 -182 5 0 17 9 27 20 29 32 45 25 45 -20 l0 -40
254 0 254 0 59 -65 c76 -82 100 -158 74 -228 -11 -28 -130 -92 -231 -125 -130
-42 -213 -63 -227 -58 -21 9 -8 23 35 37 53 16 150 76 195 118 47 45 48 73 3
100 -32 20 -45 21 -282 19 l-248 -3 -23 -34 c-15 -22 -23 -49 -23 -75 0 -23
-7 -54 -16 -71 -9 -16 -20 -70 -24 -120 -4 -49 -15 -108 -23 -130 -8 -22 -25
-73 -38 -114 -20 -60 -29 -76 -54 -88 -16 -9 -38 -22 -48 -31 -9 -8 -67 -47
-127 -86 -156 -101 -360 -244 -395 -278 -44 -40 -147 -78 -241 -89 -44 -4 -94
-15 -110 -24 -40 -21 -143 -19 -233 5 -41 11 -99 20 -128 20 -70 0 -273 59
-381 111 -107 52 -190 131 -234 224 -29 63 -30 70 -18 104 7 20 38 71 68 113
60 84 107 116 232 157 86 28 151 67 230 136 38 34 98 73 145 95 86 41 714 254
780 265 21 4 53 14 69 22 16 8 52 16 80 18 28 1 54 3 58 3 15 4 77 120 83 157
7 39 69 245 101 335 23 64 23 104 1 108 -33 7 -61 -24 -160 -171 -199 -295
-459 -486 -607 -447 -50 13 -113 83 -146 160 -26 60 -28 75 -27 185 1 113 3
127 42 237 22 64 56 145 75 180 19 35 53 106 77 158 23 52 66 139 96 192 29
53 67 136 84 185 17 48 37 98 44 109 12 19 11 27 -5 60 -22 42 -14 64 24 64
11 0 53 9 91 20 100 27 279 23 348 -9z m-12838 -526 c92 -43 144 -81 255 -189
l92 -89 -31 -24 c-17 -13 -31 -28 -31 -33 0 -5 19 -18 43 -28 105 -48 197
-193 197 -311 0 -56 -2 -62 -32 -84 -45 -34 -102 -61 -199 -97 -81 -29 -87
-30 -265 -30 l-181 0 -5 128 c-3 77 -12 151 -23 189 -17 61 -17 62 4 89 50 64
26 74 -173 74 -124 0 -134 -2 -180 -28 -27 -15 -54 -36 -60 -47 -6 -11 -31
-42 -55 -70 -24 -27 -58 -72 -76 -100 -18 -27 -66 -86 -108 -130 -62 -67 -86
-104 -142 -215 -37 -74 -101 -193 -143 -265 -117 -201 -175 -344 -218 -544
-21 -92 -25 -133 -20 -196 9 -144 76 -328 128 -356 13 -7 53 -10 102 -7 95 5
152 28 319 129 200 121 292 200 338 290 32 64 18 76 -164 149 -67 26 -144 61
-171 76 l-48 27 5 56 c7 70 21 117 47 159 l20 32 329 0 c321 0 330 -1 336 -20
5 -15 15 -20 40 -20 24 0 38 6 45 20 10 19 21 20 245 20 129 0 235 -2 235 -5
0 -3 -20 -44 -45 -91 -29 -54 -45 -98 -45 -120 0 -40 -67 -181 -132 -277 -67
-100 -173 -201 -293 -281 -218 -146 -657 -337 -805 -350 -36 -4 -87 -13 -114
-21 -33 -10 -94 -15 -185 -15 -75 0 -153 -4 -174 -9 -74 -17 -225 13 -344 69
-113 53 -177 97 -270 188 -121 117 -127 132 -131 338 -7 325 29 461 224 852
151 303 318 564 504 788 41 50 102 123 135 163 78 96 145 155 208 184 44 21
74 25 192 31 77 4 158 11 180 17 58 15 310 27 450 22 110 -4 126 -7 190 -38z
m10585 -237 c11 -24 20 -64 20 -89 0 -57 16 -107 44 -137 29 -33 147 -102 173
-102 12 0 24 -4 27 -9 7 -11 -98 -103 -177 -157 -140 -94 -251 -164 -260 -164
-5 0 -7 61 -4 153 3 126 9 166 30 235 14 46 35 95 48 108 12 13 17 24 11 24
-17 0 -15 25 9 83 11 29 25 62 30 75 13 33 28 27 49 -20z m-3935 -32 c15 -23
15 -27 -3 -63 -11 -21 -30 -47 -42 -58 -12 -11 -35 -49 -51 -83 -16 -35 -49
-89 -73 -120 -25 -32 -67 -86 -94 -122 -34 -46 -66 -75 -106 -97 -32 -18 -66
-43 -77 -55 -24 -28 -70 -116 -93 -179 -26 -69 -71 -119 -107 -119 -20 0 -31
-6 -35 -17 -13 -42 -64 -141 -87 -169 -30 -35 -113 -158 -132 -195 l-14 -25
62 3 c85 5 117 18 392 158 132 67 256 125 275 128 51 8 62 -12 58 -98 -7 -130
-123 -327 -233 -395 -42 -26 -354 -134 -435 -150 -36 -7 -77 -19 -92 -27 -21
-10 -92 -13 -309 -13 -309 0 -342 5 -467 68 -61 31 -62 32 -73 80 -17 78 55
185 184 271 26 18 65 56 86 85 41 55 224 231 263 253 13 7 33 12 45 13 16 0
22 7 25 27 2 19 25 46 78 93 84 72 202 201 302 330 36 47 76 94 88 105 12 11
31 33 43 49 l20 29 -54 -30 c-59 -32 -298 -126 -414 -163 -38 -12 -82 -28 -97
-36 -14 -8 -46 -14 -70 -14 -26 0 -55 -8 -73 -20 -25 -16 -47 -20 -123 -20
-51 0 -102 5 -112 10 -11 6 -22 26 -26 46 -5 29 0 49 31 112 46 91 178 231
265 279 106 59 162 72 326 74 144 3 181 -2 169 -22 -4 -5 -2 -9 3 -9 6 0 19
15 30 34 l20 33 126 8 c69 4 145 13 168 20 29 9 104 14 230 14 l188 1 15 -24z
m-3353 -71 c39 -14 80 -25 90 -25 26 0 23 -14 -21 -78 -44 -64 -111 -131 -219
-218 -40 -32 -93 -75 -117 -95 -27 -23 -74 -46 -124 -63 -75 -25 -90 -26 -233
-24 l-153 3 -3 39 c-6 75 32 134 149 232 106 88 178 130 279 161 47 14 110 37
140 50 111 50 118 51 212 18z m1646 -178 c17 -17 32 -37 32 -44 0 -7 -19 -35
-42 -62 -24 -27 -65 -85 -92 -129 -26 -44 -67 -103 -90 -130 -24 -27 -48 -63
-55 -79 -7 -18 -29 -39 -54 -53 -49 -27 -162 -133 -183 -172 -8 -15 -14 -38
-14 -52 0 -17 -28 -53 -93 -123 -51 -54 -96 -106 -100 -116 -4 -10 -52 -84
-107 -166 -55 -82 -100 -152 -100 -155 0 -33 238 50 412 145 81 44 185 96 230
115 46 19 87 39 92 45 16 15 25 11 46 -23 26 -44 25 -84 -5 -164 -41 -110 -83
-177 -149 -243 -61 -61 -68 -64 -227 -123 -309 -114 -542 -148 -849 -124 -266
21 -360 63 -360 159 0 55 41 120 124 197 33 30 129 123 215 206 86 83 176 164
201 179 62 38 299 273 368 365 31 41 92 113 135 158 43 46 77 86 75 88 -2 1
-32 -11 -68 -27 -35 -17 -100 -44 -144 -60 -45 -16 -90 -34 -101 -39 -34 -16
-137 -50 -185 -62 -25 -6 -54 -17 -65 -24 -11 -8 -38 -14 -60 -14 -22 0 -57
-9 -78 -20 -29 -16 -56 -20 -126 -20 -121 0 -121 0 -121 72 0 48 6 71 31 116
39 73 157 193 234 239 82 49 224 93 300 93 58 0 63 -2 100 -40 29 -29 47 -40
64 -38 38 5 36 26 -3 42 -20 8 -36 19 -36 24 0 5 48 12 107 15 58 3 138 13
177 21 148 31 456 67 506 59 14 -3 40 -18 58 -36z m-2687 -315 c56 -62 49 -83
-127 -432 -122 -241 -158 -320 -162 -359 -4 -47 -6 -49 -51 -70 -98 -44 -179
-68 -253 -75 -95 -9 -188 1 -188 20 0 8 53 118 118 246 146 289 137 268 106
268 -32 0 -117 -85 -178 -175 -57 -86 -179 -247 -200 -265 -10 -8 -33 -38 -52
-67 -19 -30 -51 -73 -72 -96 -21 -23 -59 -71 -84 -107 -25 -36 -67 -85 -92
-110 -31 -30 -48 -56 -52 -80 -4 -19 -13 -47 -20 -61 -22 -43 -56 -190 -64
-272 -9 -101 -28 -129 -96 -140 -80 -13 -181 1 -243 33 -69 35 -95 59 -122
112 -29 57 -22 108 31 238 55 135 136 376 145 431 4 24 14 57 22 73 8 16 17
65 19 108 4 81 18 120 60 171 13 16 24 41 24 55 0 15 6 39 14 54 8 15 20 53
27 85 6 32 18 68 25 80 8 12 14 38 14 57 0 45 17 81 44 94 32 16 172 22 312
15 l124 -6 0 -32 c0 -18 -16 -77 -36 -131 -20 -55 -45 -126 -56 -159 -22 -67
-36 -195 -21 -195 5 0 157 149 338 331 181 182 344 343 363 357 44 33 90 41
235 39 l119 -2 29 -33z m816 -158 c-61 -154 -156 -399 -210 -541 -20 -50 -43
-105 -51 -122 -10 -18 -12 -31 -6 -31 29 0 173 117 310 250 125 123 158 150
182 150 16 0 31 -6 34 -14 8 -21 -57 -128 -132 -216 -95 -112 -159 -201 -239
-335 -39 -66 -99 -161 -132 -212 -34 -51 -88 -146 -122 -211 -78 -154 -98
-172 -193 -172 -93 0 -175 39 -253 120 -55 59 -59 69 -56 145 2 35 37 197 53
240 6 17 16 53 22 80 7 28 17 61 23 75 6 14 24 66 40 115 15 50 42 115 59 145
18 30 36 71 42 90 5 19 33 94 61 165 29 72 63 157 75 190 27 68 34 73 151 106
72 19 171 57 335 125 43 18 56 20 58 10 2 -8 -21 -76 -51 -152z m1958 -65 c86
-58 120 -69 220 -69 52 0 95 -3 95 -7 0 -5 -50 -54 -110 -111 -60 -57 -124
-123 -142 -148 -32 -45 -102 -94 -135 -94 -9 0 -34 19 -54 43 l-37 42 -78 -1
c-44 0 -92 -3 -107 -7 l-28 -8 20 38 c10 21 32 46 48 55 39 23 152 124 183
164 14 17 37 53 52 78 15 25 31 46 35 46 5 0 22 -9 38 -21z m-1395 -324 c0
-17 -39 -55 -57 -55 -16 0 -17 42 -1 58 17 17 58 15 58 -3z m-4589 -194 c-12
-48 -13 -77 -5 -164 14 -148 38 -186 154 -245 47 -24 86 -48 88 -53 7 -19
-341 -219 -381 -219 -15 0 -17 19 -17 185 l0 185 41 26 c37 23 40 28 35 58 -8
42 16 130 59 216 19 38 37 70 38 70 2 0 -3 -26 -12 -59z"/>
<path d="M15024 4922 c-6 -4 -24 -36 -39 -72 -16 -36 -41 -82 -57 -103 -46
-59 -88 -160 -88 -211 0 -25 4 -47 8 -50 5 -3 22 8 38 25 22 23 28 38 26 63
-3 25 5 42 32 75 20 24 39 55 42 70 7 34 53 138 77 174 10 15 14 27 8 27 -5 0
-15 2 -23 5 -7 3 -18 1 -24 -3z"/>
<path d="M13669 4383 c-43 -54 -62 -90 -74 -149 -7 -36 -11 -72 -8 -80 18 -47
79 47 92 141 4 28 13 60 19 72 7 12 12 24 12 27 0 13 -28 5 -41 -11z"/>
<path d="M12865 2726 c-33 -12 -73 -28 -88 -34 -16 -7 -34 -12 -40 -12 -22 0
-132 -57 -317 -164 -102 -59 -292 -169 -422 -243 -265 -152 -259 -145 -209
-224 25 -40 40 -51 123 -87 58 -26 111 -42 134 -42 22 0 53 -7 69 -16 47 -26
309 -32 395 -10 136 35 288 130 335 210 30 52 75 233 75 305 0 35 6 61 16 72
11 13 16 48 20 143 6 145 11 138 -91 102z m-68 -398 c-15 -127 -92 -229 -217
-291 -63 -31 -68 -32 -223 -35 -216 -5 -248 4 -159 45 26 12 76 39 112 61 36
21 112 65 169 98 57 32 145 82 195 111 50 29 99 52 110 53 16 0 18 -6 13 -42z"/>
<path d="M18029 4851 c-16 -16 -29 -40 -29 -53 0 -13 -9 -43 -20 -67 -21 -44
-26 -81 -12 -81 39 0 112 125 112 193 0 45 -12 47 -51 8z"/>
<path d="M17265 3376 c-22 -8 -80 -26 -130 -41 -113 -34 -222 -92 -660 -347
l-350 -204 -3 -44 c-6 -75 3 -89 71 -120 84 -40 163 -57 287 -65 66 -4 117
-12 136 -22 30 -15 34 -15 68 5 26 15 54 22 91 22 100 0 304 97 379 181 50 54
70 102 101 235 14 60 31 132 39 159 15 53 46 213 46 239 0 19 -20 19 -75 2z
m-135 -439 c-37 -114 -61 -140 -190 -205 -117 -58 -239 -90 -350 -91 -59 -1
-83 8 -72 25 6 9 167 102 472 274 52 30 110 64 129 77 19 12 36 21 38 19 2 -2
-10 -46 -27 -99z"/>
<path d="M3436 3418 c-29 -27 -156 -276 -156 -307 0 -22 34 -43 56 -34 6 2 14
24 18 49 8 58 22 84 46 84 25 0 25 9 3 25 -16 12 -15 16 20 49 44 41 71 99 63
132 -8 30 -18 30 -50 2z"/>
<path d="M10436 4264 c-9 -23 -8 -24 12 -24 11 0 27 9 37 20 18 20 17 20 -12
20 -19 0 -33 -6 -37 -16z"/>
<path d="M10217 4233 c-16 -3 -26 -10 -24 -16 3 -8 30 -11 88 -8 90 3 102 7
79 21 -15 10 -89 11 -143 3z"/>
<path d="M8625 3993 c-16 -2 -47 -8 -67 -13 -45 -13 -52 -35 -9 -27 15 3 52 9
82 12 30 3 65 9 79 12 23 5 24 6 5 13 -21 9 -39 10 -90 3z"/>
<path d="M7000 2821 c0 -24 5 -31 19 -31 10 0 23 6 29 13 9 10 4 17 -18 31
l-30 17 0 -30z"/>
</g></symbol>
</svg>
