<svg xmlns="http://www.w3.org/2000/svg" style="display:none">

  <symbol id="icon-user" viewBox="0 0 24 24">
    <path d="M12 12a4 4 0 1 0-4-4 4 4 0 0 0 4 4zm0 2c-4.418 0-8 2.239-8 5v1h16v-1c0-2.761-3.582-5-8-5z"/>
  </symbol>

  <symbol id="icon-logout" viewBox="0 0 24 24">
    <path d="M12.9999 2C10.2385 2 7.99991 4.23858 7.99991 7C7.99991 7.55228 8.44762 8 8.99991 8C9.55219 8 9.99991 7.55228 9.99991 7C9.99991 5.34315 11.3431 4 12.9999 4H16.9999C18.6568 4 19.9999 5.34315 19.9999 7V17C19.9999 18.6569 18.6568 20 16.9999 20H12.9999C11.3431 20 9.99991 18.6569 9.99991 17C9.99991 16.4477 9.55219 16 8.99991 16C8.44762 16 7.99991 16.4477 7.99991 17C7.99991 19.7614 10.2385 22 12.9999 22H16.9999C19.7613 22 21.9999 19.7614 21.9999 17V7C21.9999 4.23858 19.7613 2 16.9999 2H12.9999Z"></path>
    <path d="M13.9999 11C14.5522 11 14.9999 11.4477 14.9999 12C14.9999 12.5523 14.5522 13 13.9999 13V11Z"></path>
    <path d="M5.71783 11C5.80685 10.8902 5.89214 10.7837 5.97282 10.682C6.21831 10.3723 6.42615 10.1004 6.57291 9.90549C6.64636 9.80795 6.70468 9.72946 6.74495 9.67492L6.79152 9.61162L6.804 9.59454L6.80842 9.58848C6.80846 9.58842 6.80892 9.58778 5.99991 9L6.80842 9.58848C7.13304 9.14167 7.0345 8.51561 6.58769 8.19098C6.14091 7.86637 5.51558 7.9654 5.19094 8.41215L5.18812 8.41602L5.17788 8.43002L5.13612 8.48679C5.09918 8.53682 5.04456 8.61033 4.97516 8.7025C4.83623 8.88702 4.63874 9.14542 4.40567 9.43937C3.93443 10.0337 3.33759 10.7481 2.7928 11.2929L2.08569 12L2.7928 12.7071C3.33759 13.2519 3.93443 13.9663 4.40567 14.5606C4.63874 14.8546 4.83623 15.113 4.97516 15.2975C5.04456 15.3897 5.09918 15.4632 5.13612 15.5132L5.17788 15.57L5.18812 15.584L5.19045 15.5872C5.51509 16.0339 6.14091 16.1336 6.58769 15.809C7.0345 15.4844 7.13355 14.859 6.80892 14.4122L5.99991 15C6.80892 14.4122 6.80897 14.4123 6.80892 14.4122L6.804 14.4055L6.79152 14.3884L6.74495 14.3251C6.70468 14.2705 6.64636 14.1921 6.57291 14.0945C6.42615 13.8996 6.21831 13.6277 5.97282 13.318C5.89214 13.2163 5.80685 13.1098 5.71783 13H13.9999V11H5.71783Z"></path>
  </symbol>

  <symbol id="icon-arrow-left" viewBox="0 0 24 24">
    <path d="M15 18l-6-6 6-6 1.414 1.414L11.828 12l4.586 4.586L15 18z"/>
  </symbol>

  <symbol id="icon-heart" viewBox="0 0 256 256">
    <path d="M220.3457,136.50781l-81.03125,81.03125a16.013,16.013,0,0,1-22.625,0L33.58008,134.42969a59.974,59.974,0,0,1,2.34375-87.07031c23.28125-21.01563,61.25-19.05469,84.57812,4.29687l7.5,7.49219,9.57813-9.57813a60.69786,60.69786,0,0,1,43.98437-17.55469A59.54956,59.54956,0,0,1,224.627,51.90625C245.61133,75.20312,243.68945,113.15625,220.3457,136.50781Z"/>
  </symbol>

</svg>
