<svg xmlns="http://www.w3.org/2000/svg" style="display:none">
  <symbol viewBox="0 0 24 24" id="icon-moon">
    <title>Moon-fill SVG Icon</title>
    <path fill="currentColor" d="M20.958 15.325c.204-.486-.379-.9-.868-.684a7.684 7.684 0 0 1-3.101.648c-4.185 0-7.577-3.324-7.577-7.425a7.28 7.28 0 0 1 1.134-3.91c.284-.448-.057-1.068-.577-.936C5.96 4.041 3 7.613 3 11.862C3 16.909 7.175 21 12.326 21c3.9 0 7.24-2.345 8.632-5.675"></path><path fill="currentColor" d="M15.611 3.103c-.53-.354-1.162.278-.809.808l.63.945a2.332 2.332 0 0 1 0 2.588l-.63.945c-.353.53.28 1.162.81.808l.944-.63a2.332 2.332 0 0 1 2.588 0l.945.63c.53.354 1.162-.278.808-.808l-.63-.945a2.332 2.332 0 0 1 0-2.588l.63-.945c.354-.53-.278-1.162-.809-.808l-.944.63a2.332 2.332 0 0 1-2.588 0z"></path>
  </symbol>

  <symbol viewBox="0 0 24 24" id="icon-sun">
    <title>Sun SVG Icon</title>
    <g fill="none" stroke="currentColor" stroke-linecap="round" stroke-width="2">
    <path d="M12 3V2m0 20v-1m9-9h1M2 12h1m15.5-6.5L20 4M4 20l1.5-1.5M4 4l1.5 1.5m13 13L20 20"></path><circle cx="12" cy="12" r="4"></circle>
    </g>
  </symbol>

  <symbol viewBox="0 0 1024 1024" id="icon-search">
    <title>Search-outlined SVG Icon</title>
    <path fill="currentColor" d="M909.6 854.5L649.9 594.8C690.2 542.7 712 479 712 412c0-80.2-31.3-155.4-87.9-212.1c-56.6-56.7-132-87.9-212.1-87.9s-155.5 31.3-212.1 87.9C143.2 256.5 112 331.8 112 412c0 80.1 31.3 155.5 87.9 212.1C256.5 680.8 331.8 712 412 712c67 0 130.6-21.8 182.7-62l259.7 259.6a8.2 8.2 0 0 0 11.6 0l43.6-43.5a8.2 8.2 0 0 0 0-11.6M570.4 570.4C528 612.7 471.8 636 412 636s-116-23.3-158.4-65.6C211.3 528 188 471.8 188 412s23.3-116.1 65.6-158.4C296 211.3 352.2 188 412 188s116.1 23.2 158.4 65.6S636 352.2 636 412s-23.3 116.1-65.6 158.4"></path>
  </symbol>

  <symbol viewBox="0 0 24 24" id="icon-user">
    <title>Profile-circle SVG Icon</title>
    <g fill="none" stroke="currentColor" stroke-linecap="round" stroke-linejoin="round" stroke-width="1.5">
    <path d="M12 2C6.477 2 2 6.477 2 12s4.477 10 10 10s10-4.477 10-10S17.523 2 12 2"></path><path d="M4.271 18.346S6.5 15.5 12 15.5s7.73 2.846 7.73 2.846M12 12a3 3 0 1 0 0-6a3 3 0 0 0 0 6"></path>
    </g>
  </symbol>

  <symbol viewBox="0 0 1024 1024" id="icon-home">
    <title>Home-outlined SVG Icon</title>
    <path fill="currentColor" d="M946.5 505L560.1 118.8l-25.9-25.9a31.5 31.5 0 0 0-44.4 0L77.5 505a63.9 63.9 0 0 0-18.8 46c.4 35.2 29.7 63.3 64.9 63.3h42.5V940h691.8V614.3h43.4c17.1 0 33.2-6.7 45.3-18.8a63.6 63.6 0 0 0 18.7-45.3c0-17-6.7-33.1-18.8-45.2M568 868H456V664h112zm217.9-325.7V868H632V640c0-22.1-17.9-40-40-40H432c-22.1 0-40 17.9-40 40v228H238.1V542.3h-96l370-369.7l23.1 23.1L882 542.3z"></path>
  </symbol>

  <symbol id="icon-logout" viewBox="0 0 24 24">
    <path d="M10 17H6a2 2 0 0 1-2-2V9a2 2 0 0 1 2-2h4" fill="none" stroke="currentColor" stroke-width="2" stroke-linecap="round"></path>
    <path d="M16 17l5-5-5-5" fill="none" stroke="currentColor" stroke-width="2" stroke-linecap="round" stroke-linejoin="round"></path>
    <path d="M21 12H10" fill="none" stroke="currentColor" stroke-width="2" stroke-linecap="round"></path>
  </symbol>

  <symbol viewBox="0 0 24 24" id="icon-message">
    <title>Comment SVG Icon</title>
    <g fill="none" stroke="currentColor" stroke-linecap="round" stroke-width="2">
    <path stroke-linejoin="round" d="M14 19c3.771 0 5.657 0 6.828-1.172C22 16.657 22 14.771 22 11c0-3.771 0-5.657-1.172-6.828C19.657 3 17.771 3 14 3h-4C6.229 3 4.343 3 3.172 4.172C2 5.343 2 7.229 2 11c0 3.771 0 5.657 1.172 6.828c.653.654 1.528.943 2.828 1.07"></path><path d="M14 19c-1.236 0-2.598.5-3.841 1.145c-1.998 1.037-2.997 1.556-3.489 1.225c-.492-.33-.399-1.355-.212-3.404L6.5 17.5"></path>
    </g>
  </symbol>

  <symbol viewBox="0 0 24 24" id="icon-phone">
    <title>Phone SVG Icon</title>
    <path fill="none" stroke="currentColor" stroke-linecap="round" stroke-linejoin="round" stroke-width="2" d="M10.554 6.24L7.171 2.335c-.39-.45-1.105-.448-1.558.006L2.831 5.128c-.828.829-1.065 2.06-.586 3.047a29.207 29.207 0 0 0 13.561 13.58c.986.479 2.216.242 3.044-.587l2.808-2.813c.455-.455.456-1.174.002-1.564l-3.92-3.365c-.41-.352-1.047-.306-1.458.106l-1.364 1.366a.462.462 0 0 1-.553.088a14.557 14.557 0 0 1-5.36-5.367a.463.463 0 0 1 .088-.554l1.36-1.361c.412-.414.457-1.054.101-1.465"></path>
  </symbol>
</svg>
