<!-- SVG SPRITE -->
<svg xmlns="http://www.w3.org/2000/svg" style="display: none;">
    <symbol id="icon-trophy" viewBox="0 0 24 24"><path d="M19 5h-2V3H7v2H5c-1.1 0-2 .9-2 2v1c0 2.55 1.92 4.63 4.39 4.94.63 1.5 1.98 2.63 3.61 2.96V19H7v2h10v-2h-4v-3.1c1.63-.33 2.98-1.46 3.61-2.96C19.08 12.63 21 10.55 21 8V7c0-1.1-.9-2-2-2zM5 8V7h2v3.82C5.84 10.4 5 9.3 5 8zm14 0c0 1.3-.84 2.4-2 2.82V7h2v1z"/></symbol>
    <symbol id="icon-flame" viewBox="0 0 24 24"><path d="M17.66 11.2c-.23-.3-.51-.56-.77-.82-.67-.6-1.43-1.03-2.07-1.66C13.33 7.26 13 4.85 13.95 3c-.95.23-1.78.75-2.49 1.32-2.59 2.08-3.61 5.75-2.39 8.9.04.1.08.2.08.33 0 .22-.15.42-.35.5-.23.1-.47.04-.66-.12a2.48 2.48 0 01-1.1-2.16c0-.92.52-1.73 1.26-2.15-.23-.59-.35-1.25-.35-1.9 0-2.16 1.73-3.92 3.86-3.92 2.13 0 3.86 1.76 3.86 3.92 0 .65-.12 1.31-.35 1.9.74.42 1.26 1.23 1.26 2.15 0 .89-.52 1.67-1.1 2.16-.19.16-.43.22-.66.12-.2-.08-.35-.28-.35-.5 0-.13.04-.23.08-.33.48-1.24.45-2.56-.01-3.81z"/></symbol>
    <symbol id="icon-heart" viewBox="0 0 24 24"><path d="M12 21.35l-1.45-1.32C5.4 15.36 2 12.28 2 8.5 2 5.42 4.42 3 7.5 3c1.74 0 3.41.81 4.5 2.09C13.09 3.81 14.76 3 16.5 3 19.58 3 22 5.42 22 8.5c0 3.78-3.4 6.86-8.55 11.54L12 21.35z"/></symbol>
    <symbol id="icon-chart" viewBox="0 0 24 24"><path d="M3.5 18.49l6-6.01 4 4L22 6.92l-1.41-1.41-7.09 7.97-4-4L2 16.99z"/><path d="M21 18v2H3v-2h18z"/></symbol>
    <symbol id="icon-star" viewBox="0 0 24 24"><path d="M12 17.27L18.18 21l-1.64-7.03L22 9.24l-7.19-.61L12 2 9.19 8.63 2 9.24l5.46 4.73L5.82 21z"/></symbol>
    <symbol id="icon-clock" viewBox="0 0 24 24"><circle cx="12" cy="12" r="10" stroke="currentColor" stroke-width="1.5" fill="none"/><path d="M12 6v6l4 2" stroke="currentColor" stroke-width="1.5" fill="none" stroke-linecap="round"/></symbol>
    <symbol id="icon-dumbbell" viewBox="0 0 24 24"><path d="M20.57 14.86L22 13.43 20.57 12 17 15.57 8.43 7 12 3.43 10.57 2 9.14 3.43 7.71 2 5.57 4.14 4.14 2.71 2.71 4.14l1.43 1.43L2 7.71l1.43 1.43L2 10.57 3.43 12 7 8.43 15.57 17 12 20.57 13.43 22l1.43-1.43L16.29 22l2.14-2.14 1.43 1.43 1.43-1.43-1.43-1.43L22 16.29z"/></symbol>
    <symbol id="icon-calendar" viewBox="0 0 24 24"><path d="M19 4h-1V2h-2v2H8V2H6v2H5c-1.11 0-1.99.9-1.99 2L3 20c0 1.1.89 2 2 2h14c1.1 0 2-.9 2-2V6c0-1.1-.9-2-2-2zm0 16H5V10h14v10zM9 14H7v-2h2v2zm4 0h-2v-2h2v2zm4 0h-2v-2h2v2z" fill="currentColor"/></symbol>
    <symbol id="icon-check" viewBox="0 0 24 24"><path d="M9 16.17L4.83 12l-1.42 1.41L9 19 21 7l-1.41-1.41z" fill="currentColor"/></symbol>
    <symbol id="icon-plus" viewBox="0 0 24 24"><path d="M19 13h-6v6h-2v-6H5v-2h6V5h2v6h6v2z" fill="currentColor"/></symbol>
    <symbol id="icon-target" viewBox="0 0 24 24"><path d="M12 2C6.48 2 2 6.48 2 12s4.48 10 10 10 10-4.48 10-10S17.52 2 12 2zm0 18c-4.42 0-8-3.58-8-8s3.58-8 8-8 8 3.58 8 8-3.58 8-8 8z" fill="currentColor"/><circle cx="12" cy="12" r="3" fill="currentColor"/></symbol>
    <symbol id="icon-arrow-left" viewBox="0 0 24 24"><path d="M20 11H7.83l5.59-5.59L12 4l-8 8 8 8 1.41-1.41L7.83 13H20v-2z" fill="currentColor"/></symbol>
    <symbol id="icon-loading" viewBox="0 0 24 24"><path d="M12 6v3l4-4-4-4v3c-4.42 0-8 3.58-8 8 0 1.57.46 3.03 1.24 4.26L6.7 14.8c-.45-.83-.7-1.79-.7-2.8 0-3.31 2.69-6 6-6zm6.76 1.74L17.3 9.2c.44.84.7 1.79.7 2.8 0 3.31-2.69 6-6 6v-3l-4 4 4 4v-3c4.42 0 8-3.58 8-8 0-1.57-.46-3.03-1.24-4.26z" fill="currentColor"/></symbol>
    <symbol id="icon-play" viewBox="0 0 24 24"><path d="M8 5v14l11-7z" fill="currentColor"/></symbol>
    <symbol id="icon-bed" viewBox="0 0 24 24"><path d="M21 10.78V8c0-1.65-1.35-3-3-3h-4c-.77 0-1.47.3-2 .78-.53-.48-1.23-.78-2-.78H6C4.35 5 3 6.35 3 8v2.78c-.61.55-1 1.34-1 2.22v6h2v-2h16v2h2v-6c0-.88-.39-1.67-1-2.22zM14 7h4c.55 0 1 .45 1 1v2h-6V8c0-.55.45-1 1-1zM5 8c0-.55.45-1 1-1h4c.55 0 1 .45 1 1v2H5V8z" fill="currentColor"/></symbol>
    <symbol id="icon-lotus" viewBox="0 0 24 24"><path d="M17 12c0 2.76-2.24 5-5 5s-5-2.24-5-5 2.24-5 5-5 5 2.24 5 5z" fill="currentColor"/></symbol>
    <symbol id="icon-stretch" viewBox="0 0 24 24"><path d="M4 20h16v2H4zM4 2h16v2H4zM12 5c1.66 0 3 1.34 3 3s-1.34 3-3 3-3-1.34-3-3 1.34-3 3-3m0-3c-3.31 0-6 2.69-6 6s2.69 6 6 6 6-2.69 6-6-2.69-6-6-6z" fill="currentColor"/></symbol>
    <symbol id="icon-weight" viewBox="0 0 24 24"><path d="M12 3C10.34 3 9 4.34 9 6c0 1.66 1.34 3 3 3s3-1.34 3-3-1.34-3-3-3zm0 14c-4.42 0-8-1.79-8-4v2c0 2.21 3.58 4 8 4s8-1.79 8-4v-2c0 2.21-3.58 4-8 4z" fill="currentColor"/></symbol>
    <symbol id="icon-sun" viewBox="0 0 24 24"><path d="M6.76 4.84l-1.8-1.79-1.41 1.41 1.79 1.79 1.42-1.41zM4 10.5H1v2h3v-2zm9-9.95h-2V3.5h2V.55zm7.45 3.91l-1.41-1.41-1.79 1.79 1.41 1.41 1.79-1.79zm-3.21 13.7l1.79 1.8 1.41-1.41-1.8-1.79-1.4 1.4zM20 10.5v2h3v-2h-3zm-8-5c-3.31 0-6 2.69-6 6s2.69 6 6 6 6-2.69 6-6-2.69-6-6-6zm-1 16.95h2V19.5h-2v2.95zm-7.45-3.91l1.41 1.41 1.79-1.8-1.41-1.41-1.79 1.8z"/></symbol>
    <symbol id="icon-moon" viewBox="0 0 24 24"><path d="M9.37 5.51c-.18.64-.27 1.31-.27 1.99 0 4.08 3.32 7.4 7.4 7.4.68 0 1.35-.09 1.99-.27C17.45 17.19 14.93 19 12 19c-3.86 0-7-3.14-7-7 0-2.93 1.81-5.45 4.37-6.49zM12 3c-4.97 0-9 4.03-9 9s4.03 9 9 9 9-4.03 9-9c0-.46-.04-.92-.1-1.36-.98 1.37-2.58 2.26-4.4 2.26-2.98 0-5.4-2.42-5.4-5.4 0-1.81.89-3.42 2.26-4.4-.44-.06-.9-.1-1.36-.1z"/></symbol>
    <symbol id="icon-palette" viewBox="0 0 24 24"><path d="M12 3a9 9 0 000 18c.83 0 1.5-.67 1.5-1.5 0-.39-.15-.74-.39-1.01-.23-.26-.38-.61-.38-.99 0-.83.67-1.5 1.5-1.5H16c2.76 0 5-2.24 5-5 0-4.42-4.03-8-9-8zm-5.5 9c-.83 0-1.5-.67-1.5-1.5S5.67 9 6.5 9 8 9.67 8 10.5 7.33 12 6.5 12zm3-4C8.67 8 8 7.33 8 6.5S8.67 5 9.5 5s1.5.67 1.5 1.5S10.33 8 9.5 8zm5 0c-.83 0-1.5-.67-1.5-1.5S13.67 5 14.5 5s1.5.67 1.5 1.5S15.33 8 14.5 8zm3 4c-.83 0-1.5-.67-1.5-1.5S16.67 9 17.5 9s1.5.67 1.5 1.5-.67 1.5-1.5 1.5z"/></symbol>
</svg>