<?xml version="1.0" encoding="utf-8"?>
<svg xmlns="http://www.w3.org/2000/svg" style="display: none;">
    <symbol id="arrow" viewBox="0 0 24 24">
        <path d="M4 12L10 6M4 12L10 18M4 12H14.5M20 12H17.5" stroke="currentColor" stroke-width="1.5" stroke-linecap="round" stroke-linejoin="round"/>
    </symbol>

    <symbol id="edit" viewBox="0 0 24 24">
        <path fill="currentColor" d="M19.186 2.09c.521.25 1.136.612 1.625 1.101.49.49.852 1.104 1.1 1.625.313.654.11 1.408-.401 1.92l-7.214 7.213c-.31.31-.688.541-1.105.675l-4.222 1.353a.75.75 0 0 1-.943-.944l1.353-4.221a2.75 2.75 0 0 1 .674-1.105l7.214-7.214c.512-.512 1.266-.714 1.92-.402zm.211 2.516a3.608 3.608 0 0 0-.828-.586l-6.994 6.994a1.002 1.002 0 0 0-.178.241L9.9 14.102l2.846-1.496c.09-.047.171-.107.242-.178l6.994-6.994a3.61 3.61 0 0 0-.586-.828zM4.999 5.5A.5.5 0 0 1 5.47 5l5.53.005a1 1 0 0 0 0-2L5.5 3A2.5 2.5 0 0 0 3 5.5v12.577c0 .76.082 1.185.319 1.627.224.419.558.754.977.978.442.236.866.318 1.627.318h12.154c.76 0 1.185-.082 1.627-.318.42-.224.754-.559.978-.978.236-.442.318-.866.318-1.627V13a1 1 0 1 0-2 0v5.077c0 .459-.021.571-.082.684a.364.364 0 0 1-.157.157c-.113.06-.225.082-.684.082H5.923c-.459 0-.57-.022-.684-.082a.363.363 0 0 1-.157-.157c-.06-.113-.082-.225-.082-.684V5.5z"/>
    </symbol>

    <symbol id="lock" viewBox="0 0 24 24">
        <path fill="currentColor" d="M5.94209 10.0005C5.93921 9.87333 5.9375 9.73733 5.9375 9.59375C5.9375 8.70739 6.00254 7.50382 6.27381 6.28307C6.54278 5.07271 7.03242 3.76302 7.94009 2.74189C8.8791 1.6855 10.2132 1 12 1C13.7868 1 15.1209 1.6855 16.0599 2.74189C16.9676 3.76302 17.4572 5.07271 17.7262 6.28307C17.9975 7.50382 18.0625 8.70739 18.0625 9.59375C18.0625 9.73733 18.0608 9.87333 18.0579 10.0005C19.688 10.0314 21 11.3625 21 13V20C21 21.6569 19.6569 23 18 23H6C4.34315 23 3 21.6569 3 20V13C3 11.3625 4.31196 10.0314 5.94209 10.0005ZM16.0573 10C16.0605 9.87465 16.0625 9.73868 16.0625 9.59375C16.0625 8.79261 16.0025 7.74618 15.7738 6.71693C15.5428 5.67729 15.1574 4.73698 14.5651 4.07061C14.0041 3.4395 13.2132 3 12 3C10.7868 3 9.9959 3.4395 9.43491 4.07061C8.84258 4.73698 8.45722 5.67729 8.22619 6.71693C7.99747 7.74618 7.9375 8.79261 7.9375 9.59375C7.9375 9.73868 7.93946 9.87465 7.94265 10H16.0573ZM19 13C19 12.4477 18.5523 12 18 12H6C5.44772 12 5 12.4477 5 13V20C5 20.5523 5.44772 21 6 21H18C18.5523 21 19 20.5523 19 20V13Z"  />
    </symbol>

    <symbol id="moon" viewBox="0 0 24 24">
        <path fill="currentColor" d="M12 22C17.5228 22 22 17.5228 22 12C22 11.5373 21.3065 11.4608 21.0672 11.8568C19.9289 13.7406 17.8615 15 15.5 15C11.9101 15 9 12.0899 9 8.5C9 6.13845 10.2594 4.07105 12.1432 2.93276C12.5392 2.69347 12.4627 2 12 2C6.47715 2 2 6.47715 2 12C2 17.5228 6.47715 22 12 22Z"/>
    </symbol>
</svg>