<svg xmlns="http://www.w3.org/2000/svg" aria-hidden="true">
  <symbol id="icon-briefcase" viewBox="0 0 24 24">
    <rect x="3" y="7" width="18" height="12" rx="2" ry="2" fill="none" stroke="currentColor" stroke-width="1.6" stroke-linecap="round" stroke-linejoin="round"/>
    <path d="M9 7V6a2 2 0 0 1 2-2h2a2 2 0 0 1 2 2v1" fill="none" stroke="currentColor" stroke-width="1.6" stroke-linecap="round" stroke-linejoin="round"/>
    <path d="M3 12h18" fill="none" stroke="currentColor" stroke-width="1.6" stroke-linecap="round"/>
    <path d="M12 12v3" fill="none" stroke="currentColor" stroke-width="1.6" stroke-linecap="round"/>
  </symbol>

  <symbol id="icon-search" viewBox="0 0 24 24">
    <circle cx="11" cy="11" r="6" fill="none" stroke="currentColor" stroke-width="1.6"/>
    <path d="m15.5 15.5 4 4" fill="none" stroke="currentColor" stroke-width="1.6" stroke-linecap="round" stroke-linejoin="round"/>
  </symbol>

  <symbol id="icon-filter" viewBox="0 0 24 24">
    <path d="M4 4h16l-6 7v5l-4 2v-7z" fill="none" stroke="currentColor" stroke-width="1.6" stroke-linecap="round" stroke-linejoin="round"/>
  </symbol>

  <symbol id="icon-bookmark" viewBox="0 0 24 24">
    <path d="M7 4.5h10a1 1 0 0 1 1 1v13l-6-3.5-6 3.5v-13a1 1 0 0 1 1-1z" fill="none" stroke="currentColor" stroke-width="1.6" stroke-linecap="round" stroke-linejoin="round"/>
  </symbol>

  <symbol id="icon-map-pin" viewBox="0 0 24 24">
    <path d="M12 21s6-5 6-10a6 6 0 1 0-12 0c0 5 6 10 6 10z" fill="none" stroke="currentColor" stroke-width="1.6" stroke-linecap="round" stroke-linejoin="round"/>
    <circle cx="12" cy="11" r="2.5" fill="none" stroke="currentColor" stroke-width="1.6"/>
  </symbol>
</svg>
