<svg xmlns="http://www.w3.org/2000/svg">
    <symbol id="logo" viewBox="0 0 16 16">
        <g>
            <path d="M4 0h5.293A1 1 0 0 1 10 .293L13.707 4a1 1 0 0 1 .293.707V14a2 2 0 0 1-2 2H4a2 2 0 0 1-2-2V2a2 2 0 0 1 2-2m5.5 1.5v2a1 1 0 0 0 1 1h2z"/>
        </g>
    </symbol>

    <symbol id="search" viewBox="0 0 16 16">
        <g>
            <path d="M11.742 10.344a6.5 6.5 0 1 0-1.397 1.398h-.001q.044.06.098.115l3.85 3.85a1 1 0 0 0 1.415-1.414l-3.85-3.85a1 1 0 0 0-.115-.1zM12 6.5a5.5 5.5 0 1 1-11 0a5.5 5.5 0 0 1 11 0"/>
        </g>
    </symbol>

    <symbol id="profile" viewBox="0 0 16 16">
        <g>
            <path d="m 8 1 c -1.65625 0 -3 1.34375 -3 3 s 1.34375 3 3 3 s 3 -1.34375 3 -3 s -1.34375 -3 -3 -3 z m -1.5 7 c -2.492188 0 -4.5 2.007812 -4.5 4.5 v 0.5 c 0 1.109375 0.890625 2 2 2 h 8 c 1.109375 0 2 -0.890625 2 -2 v -0.5 c 0 -2.492188 -2.007812 -4.5 -4.5 -4.5 z m 0 0"/>
        </g>
    </symbol>
</svg>