<svg display="none" xmlns="http://www.w3.org/2000/svg" xmlns:xlink="http://www.w3.org/1999/xlink">
    <symbol id="egg-fried" viewBox="0 0 16 16">
        <path d="M8 11a3 3 0 1 0 0-6 3 3 0 0 0 0 6" />
        <path d="M13.997 5.17a5 5 0 0 0-8.101-4.09A5 5 0 0 0 1.28 9.342a5 5 0 0 0 8.336 5.109 3.5 3.5 0 0 0 5.201-4.065 3.001 3.001 0 0 0-.822-5.216zm-1-.034a1 1 0 0 0 .668.977 2.001 2.001 0 0 1 .547 3.478 1 1 0 0 0-.341 1.113 2.5 2.5 0 0 1-3.715 2.905 1 1 0 0 0-1.262.152 4 4 0 0 1-6.67-4.087 1 1 0 0 0-.2-1 4 4 0 0 1 3.693-6.61 1 1 0 0 0 .8-.2 4 4 0 0 1 6.48 3.273z" />
    </symbol>

    <symbol id="cup-hot" viewBox="0 0 16 16">
        <path fill-rule="evenodd" d="M.5 6a.5.5 0 0 0-.488.608l1.652 7.434A2.5 2.5 0 0 0 4.104 16h5.792a2.5 2.5 0 0 0 2.44-1.958l.131-.59a3 3 0 0 0 1.3-5.854l.221-.99A.5.5 0 0 0 13.5 6zM13 12.5a2 2 0 0 1-.316-.025l.867-3.898A2.001 2.001 0 0 1 13 12.5M2.64 13.825 1.123 7h11.754l-1.517 6.825A1.5 1.5 0 0 1 9.896 15H4.104a1.5 1.5 0 0 1-1.464-1.175" />
        <path d="m4.4.8-.003.004-.014.019a4 4 0 0 0-.204.31 2 2 0 0 0-.141.267c-.026.06-.034.092-.037.103v.004a.6.6 0 0 0 .091.248c.075.133.178.272.308.445l.01.012c.118.158.26.347.37.543.112.2.22.455.22.745 0 .188-.065.368-.119.494a3 3 0 0 1-.202.388 5 5 0 0 1-.253.382l-.018.025-.005.008-.002.002A.5.5 0 0 1 3.6 4.2l.003-.004.014-.019a4 4 0 0 0 .204-.31 2 2 0 0 0 .141-.267c.026-.06.034-.092.037-.103a.6.6 0 0 0-.09-.252A4 4 0 0 0 3.6 2.8l-.01-.012a5 5 0 0 1-.37-.543A1.53 1.53 0 0 1 3 1.5c0-.188.065-.368.119-.494.059-.138.134-.274.202-.388a6 6 0 0 1 .253-.382l.025-.035A.5.5 0 0 1 4.4.8m3 0-.003.004-.014.019a4 4 0 0 0-.204.31 2 2 0 0 0-.141.267c-.026.06-.034.092-.037.103v.004a.6.6 0 0 0 .091.248c.075.133.178.272.308.445l.01.012c.118.158.26.347.37.543.112.2.22.455.22.745 0 .188-.065.368-.119.494a3 3 0 0 1-.202.388 5 5 0 0 1-.253.382l-.018.025-.005.008-.002.002A.5.5 0 0 1 6.6 4.2l.003-.004.014-.019a4 4 0 0 0 .204-.31 2 2 0 0 0 .141-.267c.026-.06.034-.092.037-.103a.6.6 0 0 0-.09-.252A4 4 0 0 0 6.6 2.8l-.01-.012a5 5 0 0 1-.37-.543A1.53 1.53 0 0 1 6 1.5c0-.188.065-.368.119-.494.059-.138.134-.274.202-.388a6 6 0 0 1 .253-.382l.025-.035A.5.5 0 0 1 7.4.8m3 0-.003.004-.014.019a4 4 0 0 0-.204.31 2 2 0 0 0-.141.267c-.026.06-.034.092-.037.103v.004a.6.6 0 0 0 .091.248c.075.133.178.272.308.445l.01.012c.118.158.26.347.37.543.112.2.22.455.22.745 0 .188-.065.368-.119.494a3 3 0 0 1-.202.388 5 5 0 0 1-.252.382l-.019.025-.005.008-.002.002A.5.5 0 0 1 9.6 4.2l.003-.004.014-.019a4 4 0 0 0 .204-.31 2 2 0 0 0 .141-.267c.026-.06.034-.092.037-.103a.6.6 0 0 0-.09-.252A4 4 0 0 0 9.6 2.8l-.01-.012a5 5 0 0 1-.37-.543A1.53 1.53 0 0 1 9 1.5c0-.188.065-.368.119-.494.059-.138.134-.274.202-.388a6 6 0 0 1 .253-.382l.025-.035A.5.5 0 0 1 10.4.8" />
    </symbol>

    <symbol id="basket" viewBox="0 0 16 16">
        <path d="M5.757 1.071a.5.5 0 0 1 .172.686L3.383 6h9.234L10.07 1.757a.5.5 0 1 1 .858-.514L13.783 6H15a1 1 0 0 1 1 1v1a1 1 0 0 1-1 1v4.5a2.5 2.5 0 0 1-2.5 2.5h-9A2.5 2.5 0 0 1 1 13.5V9a1 1 0 0 1-1-1V7a1 1 0 0 1 1-1h1.217L5.07 1.243a.5.5 0 0 1 .686-.172zM2 9v4.5A1.5 1.5 0 0 0 3.5 15h9a1.5 1.5 0 0 0 1.5-1.5V9zM1 7v1h14V7zm3 3a.5.5 0 0 1 .5.5v3a.5.5 0 0 1-1 0v-3A.5.5 0 0 1 4 10m2 0a.5.5 0 0 1 .5.5v3a.5.5 0 0 1-1 0v-3A.5.5 0 0 1 6 10m2 0a.5.5 0 0 1 .5.5v3a.5.5 0 0 1-1 0v-3A.5.5 0 0 1 8 10m2 0a.5.5 0 0 1 .5.5v3a.5.5 0 0 1-1 0v-3a.5.5 0 0 1 .5-.5m2 0a.5.5 0 0 1 .5.5v3a.5.5 0 0 1-1 0v-3a.5.5 0 0 1 .5-.5" />
    </symbol>

    <symbol id="cake2" viewBox="0 0 16 16">
        <path d="m3.494.013-.595.79A.747.747 0 0 0 3 1.814v2.683q-.224.051-.432.107c-.702.187-1.305.418-1.745.696C.408 5.56 0 5.954 0 6.5v7c0 .546.408.94.823 1.201.44.278 1.043.51 1.745.696C3.978 15.773 5.898 16 8 16s4.022-.227 5.432-.603c.701-.187 1.305-.418 1.745-.696.415-.261.823-.655.823-1.201v-7c0-.546-.408-.94-.823-1.201-.44-.278-1.043-.51-1.745-.696A12 12 0 0 0 13 4.496v-2.69a.747.747 0 0 0 .092-1.004l-.598-.79-.595.792A.747.747 0 0 0 12 1.813V4.3a22 22 0 0 0-2-.23V1.806a.747.747 0 0 0 .092-1.004l-.598-.79-.595.792A.747.747 0 0 0 9 1.813v2.204a29 29 0 0 0-2 0V1.806A.747.747 0 0 0 7.092.802l-.598-.79-.595.792A.747.747 0 0 0 6 1.813V4.07c-.71.05-1.383.129-2 .23V1.806A.747.747 0 0 0 4.092.802zm-.668 5.556L3 5.524v.967q.468.111 1 .201V5.315a21 21 0 0 1 2-.242v1.855q.488.036 1 .054V5.018a28 28 0 0 1 2 0v1.964q.512-.018 1-.054V5.073c.72.054 1.393.137 2 .242v1.377q.532-.09 1-.201v-.967l.175.045c.655.175 1.15.374 1.469.575.344.217.356.35.356.356s-.012.139-.356.356c-.319.2-.814.4-1.47.575C11.87 7.78 10.041 8 8 8c-2.04 0-3.87-.221-5.174-.569-.656-.175-1.151-.374-1.47-.575C1.012 6.639 1 6.506 1 6.5s.012-.139.356-.356c.319-.2.814-.4 1.47-.575M15 7.806v1.027l-.68.907a.94.94 0 0 1-1.17.276 1.94 1.94 0 0 0-2.236.363l-.348.348a1 1 0 0 1-1.307.092l-.06-.044a2 2 0 0 0-2.399 0l-.06.044a1 1 0 0 1-1.306-.092l-.35-.35a1.935 1.935 0 0 0-2.233-.362.935.935 0 0 1-1.168-.277L1 8.82V7.806c.42.232.956.428 1.568.591C3.978 8.773 5.898 9 8 9s4.022-.227 5.432-.603c.612-.163 1.149-.36 1.568-.591m0 2.679V13.5c0 .006-.012.139-.356.355-.319.202-.814.401-1.47.576C11.87 14.78 10.041 15 8 15c-2.04 0-3.87-.221-5.174-.569-.656-.175-1.151-.374-1.47-.575-.344-.217-.356-.35-.356-.356v-3.02a1.935 1.935 0 0 0 2.298.43.935.935 0 0 1 1.08.175l.348.349a2 2 0 0 0 2.615.185l.059-.044a1 1 0 0 1 1.2 0l.06.044a2 2 0 0 0 2.613-.185l.348-.348a.94.94 0 0 1 1.082-.175c.781.39 1.718.208 2.297-.426" />
    </symbol>

    <symbol id="cup-straw" viewBox="0 0 16 16">
        <path d="M13.902.334a.5.5 0 0 1-.28.65l-2.254.902-.4 1.927c.376.095.715.215.972.367.228.135.56.396.56.82q0 .069-.011.132l-.962 9.068a1.28 1.28 0 0 1-.524.93c-.488.34-1.494.87-3.01.87s-2.522-.53-3.01-.87a1.28 1.28 0 0 1-.524-.93L3.51 5.132A1 1 0 0 1 3.5 5c0-.424.332-.685.56-.82.262-.154.607-.276.99-.372C5.824 3.614 6.867 3.5 8 3.5c.712 0 1.389.045 1.985.127l.464-2.215a.5.5 0 0 1 .303-.356l2.5-1a.5.5 0 0 1 .65.278M9.768 4.607A14 14 0 0 0 8 4.5c-1.076 0-2.033.11-2.707.278A3.3 3.3 0 0 0 4.645 5c.146.073.362.15.648.222C5.967 5.39 6.924 5.5 8 5.5c.571 0 1.109-.03 1.588-.085zm.292 1.756C9.445 6.45 8.742 6.5 8 6.5c-1.133 0-2.176-.114-2.95-.308a6 6 0 0 1-.435-.127l.838 8.03c.013.121.06.186.102.215.357.249 1.168.69 2.438.69s2.081-.441 2.438-.69c.042-.029.09-.094.102-.215l.852-8.03a6 6 0 0 1-.435.127 9 9 0 0 1-.89.17zM4.467 4.884s.003.002.005.006zm7.066 0-.005.006zM11.354 5a3 3 0 0 0-.604-.21l-.099.445.055-.013c.286-.072.502-.149.648-.222" />
    </symbol>

    <symbol id="heart-pulse" viewBox="0 0 16 16">
        <path d="m8 2.748-.717-.737C5.6.281 2.514.878 1.4 3.053.918 3.995.78 5.323 1.508 7H.43c-2.128-5.697 4.165-8.83 7.394-5.857q.09.083.176.171a3 3 0 0 1 .176-.17c3.23-2.974 9.522.159 7.394 5.856h-1.078c.728-1.677.59-3.005.108-3.947C13.486.878 10.4.28 8.717 2.01zM2.212 10h1.315C4.593 11.183 6.05 12.458 8 13.795c1.949-1.337 3.407-2.612 4.473-3.795h1.315c-1.265 1.566-3.14 3.25-5.788 5-2.648-1.75-4.523-3.434-5.788-5" />
        <path d="M10.464 3.314a.5.5 0 0 0-.945.049L7.921 8.956 6.464 5.314a.5.5 0 0 0-.88-.091L3.732 8H.5a.5.5 0 0 0 0 1H4a.5.5 0 0 0 .416-.223l1.473-2.209 1.647 4.118a.5.5 0 0 0 .945-.049l1.598-5.593 1.457 3.642A.5.5 0 0 0 12 9h3.5a.5.5 0 0 0 0-1h-3.162z" />
    </symbol>

    <symbol id="book-half" viewBox="0 0 16 16">
        <path d="M8.5 2.687c.654-.689 1.782-.886 3.112-.752 1.234.124 2.503.523 3.388.893v9.923c-.918-.35-2.107-.692-3.287-.81-1.094-.111-2.278-.039-3.213.492zM8 1.783C7.015.936 5.587.81 4.287.94c-1.514.153-3.042.672-3.994 1.105A.5.5 0 0 0 0 2.5v11a.5.5 0 0 0 .707.455c.882-.4 2.303-.881 3.68-1.02 1.409-.142 2.59.087 3.223.877a.5.5 0 0 0 .78 0c.633-.79 1.814-1.019 3.222-.877 1.378.139 2.8.62 3.681 1.02A.5.5 0 0 0 16 13.5v-11a.5.5 0 0 0-.293-.455c-.952-.433-2.48-.952-3.994-1.105C10.413.809 8.985.936 8 1.783"/>
    </symbol>

    <symbol id="bookmark-fill" viewBox="0 0 16 16">
        <path d="M2 2v13.5a.5.5 0 0 0 .74.439L8 13.069l5.26 2.87A.5.5 0 0 0 14 15.5V2a2 2 0 0 0-2-2H4a2 2 0 0 0-2 2"/>
    </symbol>

    <symbol id="star-fill" viewBox="0 0 16 16">
        <path d="M3.612 15.443c-.386.198-.824-.149-.746-.592l.83-4.73L.173 6.765c-.329-.314-.158-.888.283-.95l4.898-.696L7.538.792c.197-.39.73-.39.927 0l2.184 4.327 4.898.696c.441.062.612.636.282.95l-3.522 3.356.83 4.73c.078.443-.36.79-.746.592L8 13.187l-4.389 2.256z"/>
    </symbol>
    
    <symbol id="people-fill" viewBox="0 0 16 16">
        <path d="M7 14s-1 0-1-1 1-4 5-4 5 3 5 4-1 1-1 1zm4-6a3 3 0 1 0 0-6 3 3 0 0 0 0 6m-5.784 6A2.24 2.24 0 0 1 5 13c0-1.355.68-2.75 1.936-3.72A6.3 6.3 0 0 0 5 9c-4 0-5 3-5 4s1 1 1 1zM4.5 8a2.5 2.5 0 1 0 0-5 2.5 2.5 0 0 0 0 5"/>
    </symbol>

    <symbol id="rss-fill" viewBox="0 0 16 16">
        <path d="M2 0a2 2 0 0 0-2 2v12a2 2 0 0 0 2 2h12a2 2 0 0 0 2-2V2a2 2 0 0 0-2-2zm1.5 2.5c5.523 0 10 4.477 10 10a1 1 0 1 1-2 0 8 8 0 0 0-8-8 1 1 0 0 1 0-2m0 4a6 6 0 0 1 6 6 1 1 0 1 1-2 0 4 4 0 0 0-4-4 1 1 0 0 1 0-2m.5 7a1.5 1.5 0 1 1 0-3 1.5 1.5 0 0 1 0 3"/>
    </symbol>

    <symbol id="plus-circle" viewBox="0 0 16 16">
        <path d="M8 15A7 7 0 1 1 8 1a7 7 0 0 1 0 14m0 1A8 8 0 1 0 8 0a8 8 0 0 0 0 16"/>
        <path d="M8 4a.5.5 0 0 1 .5.5v3h3a.5.5 0 0 1 0 1h-3v3a.5.5 0 0 1-1 0v-3h-3a.5.5 0 0 1 0-1h3v-3A.5.5 0 0 1 8 4"/>
    </symbol>

    <symbol id="person-circle" viewBox="0 0 16 16">
        <path d="M11 6a3 3 0 1 1-6 0 3 3 0 0 1 6 0"/>
        <path fill-rule="evenodd" d="M0 8a8 8 0 1 1 16 0A8 8 0 0 1 0 8m8-7a7 7 0 0 0-5.468 11.37C3.242 11.226 4.805 10 8 10s4.757 1.225 5.468 2.37A7 7 0 0 0 8 1"/>
    </symbol>
</svg>
